AdventPro-Regular.ufo
<glyph name="exclam" format="1">
  <advance width="225"/>
  <unicode hex="0021"/>
  <outline>
    <contour>
      <point x="136" y="120" type="line"/>
      <point x="89" y="120" type="line"/>
      <point x="79" y="673" type="line"/>
      <point x="79" y="710"/>
      <point x="145" y="710"/>
      <point x="145" y="674" type="qcurve"/>
    </contour>
    <contour>
      <point x="134" y="10" type="qcurve"/>
      <point x="124" y="0"/>
      <point x="98" y="0"/>
      <point x="78" y="20"/>
      <point x="78" y="46"/>
      <point x="98" y="66"/>
      <point x="124" y="66"/>
      <point x="144" y="46"/>
      <point x="144" y="20"/>
    </contour>
  </outline>
</glyph>
<glyph name="quotedbl" format="1">
  <advance width="426"/>
  <unicode hex="0022"/>
  <outline>
    <contour>
      <point x="159" y="512" type="line"/>
      <point x="119" y="512" type="line"/>
      <point x="105" y="700" type="line"/>
      <point x="105" y="722"/>
      <point x="122" y="731" type="qcurve"/>
      <point x="130" y="736"/>
      <point x="139" y="736" type="qcurve"/>
      <point x="156" y="731" type="line"/>
      <point x="173" y="722"/>
      <point x="173" y="700" type="qcurve"/>
    </contour>
    <contour>
      <point x="304" y="512" type="line"/>
      <point x="264" y="512" type="line"/>
      <point x="250" y="700" type="line"/>
      <point x="250" y="722"/>
      <point x="267" y="731" type="qcurve"/>
      <point x="276" y="736"/>
      <point x="284" y="736" type="qcurve"/>
      <point x="301" y="731" type="line"/>
      <point x="318" y="722"/>
      <point x="318" y="700" type="qcurve"/>
    </contour>
  </outline>
</glyph>
<glyph name="numbersign" format="1">
  <advance width="613"/>
  <unicode hex="0023"/>
  <outline>
    <contour>
      <point x="582" y="189" type="line"/>
      <point x="383" y="189" type="line"/>
      <point x="339" y="0" type="line"/>
      <point x="284" y="0" type="line"/>
      <point x="328" y="189" type="line"/>
      <point x="209" y="189" type="line"/>
      <point x="165" y="0" type="line"/>
      <point x="110" y="0" type="line"/>
      <point x="154" y="189" type="line"/>
      <point x="34" y="189" type="line"/>
      <point x="34" y="245" type="line"/>
      <point x="167" y="245" type="line"/>
      <point x="207" y="413" type="line"/>
      <point x="34" y="413" type="line"/>
      <point x="34" y="469" type="line"/>
      <point x="220" y="469" type="line"/>
      <point x="274" y="700" type="line"/>
      <point x="329" y="700" type="line"/>
      <point x="275" y="469" type="line"/>
      <point x="394" y="469" type="line"/>
      <point x="448" y="700" type="line"/>
      <point x="503" y="700" type="line"/>
      <point x="449" y="469" type="line"/>
      <point x="582" y="469" type="line"/>
      <point x="582" y="413" type="line"/>
      <point x="436" y="413" type="line"/>
      <point x="396" y="245" type="line"/>
      <point x="582" y="245" type="line"/>
    </contour>
    <contour>
      <point x="341" y="245" type="line"/>
      <point x="381" y="413" type="line"/>
      <point x="262" y="413" type="line"/>
      <point x="222" y="245" type="line"/>
    </contour>
  </outline>
</glyph>
<glyph name="dollar" format="1">
  <advance width="540"/>
  <unicode hex="0024"/>
  <outline>
    <contour>
      <point x="299" y="-114" type="line"/>
      <point x="243" y="-114" type="line"/>
      <point x="243" y="-10" type="line"/>
      <point x="146" y="-2"/>
      <point x="36" y="109"/>
      <point x="34" y="178" type="qcurve"/>
      <point x="91" y="178" type="line"/>
      <point x="95" y="130"/>
      <point x="177" y="51"/>
      <point x="243" y="44" type="qcurve"/>
      <point x="243" y="354" type="line"/>
      <point x="162" y="382"/>
      <point x="112" y="416" type="qcurve"/>
      <point x="52" y="459"/>
      <point x="52" y="538" type="qcurve"/>
      <point x="52" y="601"/>
      <point x="150" y="700"/>
      <point x="243" y="708" type="qcurve"/>
      <point x="243" y="817" type="line"/>
      <point x="299" y="817" type="line"/>
      <point x="299" y="709" type="line"/>
      <point x="367" y="707"/>
      <point x="423" y="680" type="qcurve"/>
      <point x="423" y="678"/>
      <point x="406" y="627" type="qcurve"/>
      <point x="358" y="652"/>
      <point x="299" y="655" type="qcurve"/>
      <point x="299" y="394" type="line"/>
      <point x="425" y="351"/>
      <point x="466" y="306" type="qcurve"/>
      <point x="509" y="257"/>
      <point x="509" y="192" type="qcurve"/>
      <point x="509" y="105"/>
      <point x="407" y="-3"/>
      <point x="299" y="-10" type="qcurve"/>
    </contour>
    <contour>
      <point x="299" y="334" type="qcurve"/>
      <point x="299" y="44" type="line"/>
      <point x="365" y="51"/>
      <point x="449" y="120"/>
      <point x="449" y="243"/>
      <point x="372" y="307"/>
    </contour>
    <contour>
      <point x="243" y="413" type="qcurve"/>
      <point x="243" y="654" type="line"/>
      <point x="181" y="646"/>
      <point x="110" y="585"/>
      <point x="110" y="490"/>
      <point x="179" y="436"/>
    </contour>
  </outline>
</glyph>
<glyph name="percent" format="1">
  <advance width="672"/>
  <unicode hex="0025"/>
  <outline>
    <contour>
      <point x="69" y="1" type="line"/>
      <point x="34" y="41" type="line"/>
      <point x="601" y="740" type="line"/>
      <point x="641" y="699" type="line"/>
    </contour>
    <contour>
      <point x="597" y="31" type="qcurve"/>
      <point x="555" y="-11"/>
      <point x="435" y="-11"/>
      <point x="351" y="73"/>
      <point x="351" y="193"/>
      <point x="435" y="277"/>
      <point x="555" y="277"/>
      <point x="639" y="193"/>
      <point x="639" y="73"/>
    </contour>
    <contour>
      <point x="563" y="67" type="qcurve"/>
      <point x="589" y="96"/>
      <point x="589" y="170"/>
      <point x="537" y="227"/>
      <point x="453" y="227"/>
      <point x="401" y="170"/>
      <point x="401" y="96"/>
      <point x="453" y="39"/>
      <point x="537" y="39"/>
    </contour>
    <contour>
      <point x="286" y="481" type="qcurve"/>
      <point x="244" y="439"/>
      <point x="124" y="439"/>
      <point x="40" y="523"/>
      <point x="40" y="643"/>
      <point x="124" y="727"/>
      <point x="244" y="727"/>
      <point x="328" y="643"/>
      <point x="328" y="523"/>
    </contour>
    <contour>
      <point x="252" y="517" type="qcurve"/>
      <point x="278" y="546"/>
      <point x="278" y="620"/>
      <point x="226" y="677"/>
      <point x="142" y="677"/>
      <point x="90" y="620"/>
      <point x="90" y="546"/>
      <point x="142" y="489"/>
      <point x="226" y="489"/>
    </contour>
  </outline>
</glyph>
<glyph name="ampersand" format="1">
  <advance width="548"/>
  <unicode hex="0026"/>
  <outline>
    <contour>
      <point x="498" y="32" type="qcurve"/>
      <point x="482" y="-11" type="line"/>
      <point x="444" y="0"/>
      <point x="391" y="51"/>
      <point x="384" y="87" type="qcurve"/>
      <point x="326" y="-11"/>
      <point x="213" y="-11" type="qcurve"/>
      <point x="123" y="-11"/>
      <point x="76" y="52" type="qcurve"/>
      <point x="35" y="107"/>
      <point x="35" y="179" type="qcurve"/>
      <point x="35" y="242"/>
      <point x="81" y="332"/>
      <point x="150" y="387"/>
      <point x="205" y="418"/>
      <point x="245" y="435" type="qcurve"/>
      <point x="212" y="440"/>
      <point x="186" y="472" type="qcurve"/>
      <point x="155" y="509"/>
      <point x="155" y="566" type="qcurve"/>
      <point x="155" y="642"/>
      <point x="219" y="684" type="qcurve"/>
      <point x="262" y="711"/>
      <point x="345" y="711"/>
      <point x="381" y="699" type="qcurve"/>
      <point x="350" y="653" type="line"/>
      <point x="327" y="660"/>
      <point x="273" y="660"/>
      <point x="246" y="640" type="qcurve"/>
      <point x="210" y="611"/>
      <point x="210" y="568" type="qcurve"/>
      <point x="210" y="507"/>
      <point x="260" y="480" type="qcurve"/>
      <point x="289" y="464"/>
      <point x="334" y="464"/>
      <point x="348" y="467" type="qcurve"/>
      <point x="375" y="472" type="line"/>
      <point x="375" y="609" type="line"/>
      <point x="432" y="609" type="line"/>
      <point x="432" y="484" type="line"/>
      <point x="505" y="500" type="line"/>
      <point x="517" y="447" type="line"/>
      <point x="432" y="428" type="line"/>
      <point x="432" y="141" type="line"/>
      <point x="432" y="54"/>
    </contour>
    <contour>
      <point x="375" y="219" type="qcurve"/>
      <point x="375" y="416" type="line"/>
      <point x="229" y="383"/>
      <point x="162" y="330" type="qcurve"/>
      <point x="135" y="308"/>
      <point x="114" y="274" type="qcurve"/>
      <point x="90" y="233"/>
      <point x="90" y="123"/>
      <point x="154" y="43"/>
      <point x="288" y="43"/>
      <point x="375" y="150"/>
    </contour>
  </outline>
</glyph>
<glyph name="quotesingle" format="1">
  <advance width="172"/>
  <unicode hex="0027"/>
  <outline>
    <contour>
      <point x="100" y="589" type="line"/>
      <point x="60" y="589" type="line"/>
      <point x="46" y="700" type="line"/>
      <point x="46" y="722"/>
      <point x="63" y="731" type="qcurve"/>
      <point x="72" y="736"/>
      <point x="80" y="736" type="qcurve"/>
      <point x="97" y="731" type="line"/>
      <point x="114" y="722"/>
      <point x="114" y="700" type="qcurve"/>
    </contour>
  </outline>
</glyph>
<glyph name="parenleft" format="1">
  <advance width="281"/>
  <unicode hex="0028"/>
  <outline>
    <contour>
      <point x="201" y="-82" type="qcurve"/>
      <point x="183" y="-119" type="line"/>
      <point x="126" y="-86"/>
      <point x="78" y="-7"/>
      <point x="78" y="71" type="qcurve"/>
      <point x="78" y="627" type="line"/>
      <point x="78" y="705"/>
      <point x="126" y="784"/>
      <point x="183" y="817" type="qcurve"/>
      <point x="201" y="780" type="line"/>
      <point x="134" y="730"/>
      <point x="134" y="636" type="qcurve"/>
      <point x="134" y="62" type="line"/>
      <point x="134" y="-32"/>
    </contour>
  </outline>
</glyph>
<glyph name="parenright" format="1">
  <advance width="281"/>
  <unicode hex="0029"/>
  <outline>
    <contour>
      <point x="96" y="-119" type="qcurve"/>
      <point x="78" y="-82" type="line"/>
      <point x="145" y="-32"/>
      <point x="145" y="62" type="qcurve"/>
      <point x="145" y="636" type="line"/>
      <point x="145" y="730"/>
      <point x="78" y="780" type="qcurve"/>
      <point x="96" y="817" type="line"/>
      <point x="153" y="784"/>
      <point x="201" y="705"/>
      <point x="201" y="627" type="qcurve"/>
      <point x="201" y="71" type="line"/>
      <point x="201" y="-7"/>
      <point x="153" y="-86"/>
    </contour>
  </outline>
</glyph>
<glyph name="asterisk" format="1">
  <advance width="352"/>
  <unicode hex="002A"/>
  <outline>
    <contour>
      <point x="285" y="450" type="line"/>
      <point x="244" y="419" type="line"/>
      <point x="175" y="515" type="line"/>
      <point x="110" y="419" type="line"/>
      <point x="65" y="450" type="line"/>
      <point x="130" y="541" type="line"/>
      <point x="24" y="579" type="line"/>
      <point x="42" y="627" type="line"/>
      <point x="148" y="587" type="line"/>
      <point x="148" y="700" type="line"/>
      <point x="201" y="700" type="line"/>
      <point x="201" y="587" type="line"/>
      <point x="308" y="627" type="line"/>
      <point x="328" y="579" type="line"/>
      <point x="219" y="541" type="line"/>
    </contour>
  </outline>
</glyph>
<glyph name="plus" format="1">
  <advance width="385"/>
  <unicode hex="002B"/>
  <outline>
    <contour>
      <point x="222" y="225" type="line"/>
      <point x="167" y="225" type="line"/>
      <point x="167" y="358" type="line"/>
      <point x="34" y="358" type="line"/>
      <point x="34" y="413" type="line"/>
      <point x="167" y="413" type="line"/>
      <point x="167" y="545" type="line"/>
      <point x="222" y="545" type="line"/>
      <point x="222" y="413" type="line"/>
      <point x="354" y="413" type="line"/>
      <point x="354" y="358" type="line"/>
      <point x="222" y="358" type="line"/>
    </contour>
  </outline>
</glyph>
<glyph name="period" format="1">
  <advance width="120"/>
  <unicode hex="002E"/>
  <outline>
    <contour>
      <point x="67" y="10" type="qcurve"/>
      <point x="58" y="0"/>
      <point x="30" y="0"/>
      <point x="11" y="20"/>
      <point x="11" y="46"/>
      <point x="30" y="66"/>
      <point x="58" y="66"/>
      <point x="77" y="46"/>
      <point x="77" y="20"/>
    </contour>
  </outline>
</glyph>
<glyph name="slash" format="1">
  <advance width="429"/>
  <unicode hex="002F"/>
  <outline>
    <contour>
      <point x="85" y="-114" type="line"/>
      <point x="24" y="-114" type="line"/>
      <point x="348" y="817" type="line"/>
      <point x="405" y="817" type="line"/>
    </contour>
  </outline>
</glyph>
<glyph name="one" format="1">
  <advance width="209"/>
  <unicode hex="0031"/>
  <outline>
    <contour>
      <point x="185" y="0" type="line"/>
      <point x="129" y="0" type="line"/>
      <point x="129" y="634" type="line"/>
      <point x="113" y="619"/>
      <point x="67" y="596"/>
      <point x="52" y="592" type="qcurve"/>
      <point x="37" y="588" type="line"/>
      <point x="24" y="641" type="line"/>
      <point x="46" y="641"/>
      <point x="109" y="675"/>
      <point x="129" y="700" type="qcurve"/>
      <point x="185" y="700" type="line"/>
    </contour>
  </outline>
</glyph>
<glyph name="two" format="1">
  <advance width="399"/>
  <unicode hex="0032"/>
  <outline>
    <contour>
      <point x="375" y="0" type="line"/>
      <point x="24" y="0" type="line"/>
      <point x="24" y="53" type="line"/>
      <point x="278" y="438" type="line"/>
      <point x="314" y="496"/>
      <point x="314" y="541" type="qcurve"/>
      <point x="314" y="597"/>
      <point x="243" y="657"/>
      <point x="163" y="657"/>
      <point x="103" y="609"/>
      <point x="89" y="570" type="qcurve"/>
      <point x="37" y="590" type="line"/>
      <point x="56" y="643"/>
      <point x="139" y="710"/>
      <point x="272" y="710"/>
      <point x="320" y="668" type="qcurve"/>
      <point x="373" y="622"/>
      <point x="373" y="487"/>
      <point x="329" y="413" type="qcurve"/>
      <point x="89" y="52" type="line"/>
      <point x="375" y="52" type="line"/>
    </contour>
  </outline>
</glyph>
<glyph name="three" format="1">
  <advance width="438"/>
  <unicode hex="0033"/>
  <outline>
    <contour>
      <point x="24" y="83" type="qcurve"/>
      <point x="71" y="113" type="line"/>
      <point x="117" y="44"/>
      <point x="201" y="44" type="qcurve"/>
      <point x="266" y="44"/>
      <point x="358" y="136"/>
      <point x="358" y="264"/>
      <point x="270" y="355"/>
      <point x="207" y="358" type="qcurve"/>
      <point x="97" y="358" type="line"/>
      <point x="290" y="645" type="line"/>
      <point x="71" y="645" type="line"/>
      <point x="71" y="700" type="line"/>
      <point x="358" y="700" type="line"/>
      <point x="358" y="651" type="line"/>
      <point x="199" y="413" type="line"/>
      <point x="201" y="413" type="line"/>
      <point x="290" y="413"/>
      <point x="414" y="289"/>
      <point x="414" y="112"/>
      <point x="290" y="-12"/>
      <point x="201" y="-12" type="qcurve"/>
      <point x="147" y="-12"/>
      <point x="53" y="39"/>
    </contour>
  </outline>
</glyph>
<glyph name="four" format="1">
  <advance width="493"/>
  <unicode hex="0034"/>
  <outline>
    <contour>
      <point x="396" y="0" type="line"/>
      <point x="340" y="0" type="line"/>
      <point x="340" y="358" type="line"/>
      <point x="24" y="358" type="line"/>
      <point x="218" y="700" type="line"/>
      <point x="276" y="700" type="line"/>
      <point x="120" y="413" type="line"/>
      <point x="340" y="413" type="line"/>
      <point x="340" y="700" type="line"/>
      <point x="396" y="700" type="line"/>
      <point x="396" y="413" type="line"/>
      <point x="469" y="413" type="line"/>
      <point x="450" y="358" type="line"/>
      <point x="396" y="358" type="line"/>
    </contour>
  </outline>
</glyph>
<glyph name="five" format="1">
  <advance width="438"/>
  <unicode hex="0035"/>
  <outline>
    <contour>
      <point x="24" y="83" type="qcurve"/>
      <point x="71" y="113" type="line"/>
      <point x="117" y="44"/>
      <point x="201" y="44" type="qcurve"/>
      <point x="266" y="44"/>
      <point x="358" y="136"/>
      <point x="358" y="266"/>
      <point x="266" y="358"/>
      <point x="201" y="358" type="qcurve"/>
      <point x="57" y="358" type="line"/>
      <point x="93" y="700" type="line"/>
      <point x="358" y="700" type="line"/>
      <point x="358" y="645" type="line"/>
      <point x="142" y="645" type="line"/>
      <point x="118" y="413" type="line"/>
      <point x="201" y="413" type="line"/>
      <point x="290" y="413"/>
      <point x="414" y="289"/>
      <point x="414" y="112"/>
      <point x="290" y="-12"/>
      <point x="201" y="-12" type="qcurve"/>
      <point x="147" y="-12"/>
      <point x="53" y="39"/>
    </contour>
  </outline>
</glyph>
<glyph name="six" format="1">
  <advance width="473"/>
  <unicode hex="0036"/>
  <outline>
    <contour>
      <point x="24" y="201" type="qcurve"/>
      <point x="24" y="461" type="line"/>
      <point x="24" y="544"/>
      <point x="74" y="616" type="qcurve"/>
      <point x="101" y="653"/>
      <point x="201" y="700"/>
      <point x="268" y="700" type="qcurve"/>
      <point x="303" y="700" type="line"/>
      <point x="303" y="645" type="line"/>
      <point x="264" y="645" type="line"/>
      <point x="189" y="645"/>
      <point x="79" y="548"/>
      <point x="79" y="454" type="qcurve"/>
      <point x="79" y="332" type="line"/>
      <point x="100" y="370"/>
      <point x="185" y="413"/>
      <point x="236" y="413" type="qcurve"/>
      <point x="325" y="413"/>
      <point x="449" y="289"/>
      <point x="449" y="112"/>
      <point x="324" y="-12"/>
      <point x="148" y="-12"/>
      <point x="24" y="112"/>
    </contour>
    <contour>
      <point x="79" y="207" type="qcurve"/>
      <point x="79" y="201" type="line"/>
      <point x="79" y="135"/>
      <point x="170" y="43"/>
      <point x="302" y="43"/>
      <point x="394" y="135"/>
      <point x="394" y="267"/>
      <point x="302" y="358"/>
      <point x="172" y="358"/>
      <point x="81" y="271"/>
    </contour>
  </outline>
</glyph>
<glyph name="seven" format="1">
  <advance width="442"/>
  <unicode hex="0037"/>
  <outline>
    <contour>
      <point x="99" y="0" type="line"/>
      <point x="37" y="0" type="line"/>
      <point x="354" y="645" type="line"/>
      <point x="24" y="645" type="line"/>
      <point x="24" y="700" type="line"/>
      <point x="418" y="700" type="line"/>
      <point x="418" y="645" type="line"/>
    </contour>
  </outline>
</glyph>
<glyph name="eight" format="1">
  <advance width="474"/>
  <unicode hex="0038"/>
  <outline>
    <contour>
      <point x="230" y="358" type="qcurve"/>
      <point x="167" y="355"/>
      <point x="80" y="265"/>
      <point x="80" y="136"/>
      <point x="172" y="44"/>
      <point x="302" y="44"/>
      <point x="394" y="136"/>
      <point x="394" y="265"/>
      <point x="302" y="355"/>
    </contour>
    <contour>
      <point x="337" y="388" type="qcurve"/>
      <point x="388" y="360"/>
      <point x="450" y="261"/>
      <point x="450" y="201" type="qcurve"/>
      <point x="450" y="112"/>
      <point x="326" y="-12"/>
      <point x="148" y="-12"/>
      <point x="24" y="112"/>
      <point x="24" y="201" type="qcurve"/>
      <point x="24" y="262"/>
      <point x="86" y="362"/>
      <point x="138" y="389" type="qcurve"/>
      <point x="63" y="440"/>
      <point x="63" y="533" type="qcurve"/>
      <point x="63" y="606"/>
      <point x="165" y="709"/>
      <point x="312" y="709"/>
      <point x="414" y="606"/>
      <point x="414" y="533" type="qcurve"/>
      <point x="414" y="439"/>
    </contour>
    <contour>
      <point x="233" y="413" type="qcurve"/>
      <point x="287" y="413"/>
      <point x="360" y="483"/>
      <point x="360" y="584"/>
      <point x="288" y="656"/>
      <point x="187" y="656"/>
      <point x="115" y="584"/>
      <point x="115" y="484"/>
      <point x="183" y="415"/>
    </contour>
  </outline>
</glyph>
<glyph name="nine" format="1">
  <advance width="473"/>
  <unicode hex="0039"/>
  <outline>
    <contour>
      <point x="205" y="0" type="qcurve"/>
      <point x="170" y="0" type="line"/>
      <point x="170" y="55" type="line"/>
      <point x="209" y="55" type="line"/>
      <point x="284" y="55"/>
      <point x="394" y="152"/>
      <point x="394" y="246" type="qcurve"/>
      <point x="394" y="353" type="line"/>
      <point x="331" y="285"/>
      <point x="148" y="285"/>
      <point x="24" y="409"/>
      <point x="24" y="586"/>
      <point x="148" y="710"/>
      <point x="325" y="710"/>
      <point x="449" y="586"/>
      <point x="449" y="497" type="qcurve"/>
      <point x="449" y="239" type="line"/>
      <point x="449" y="156"/>
      <point x="398" y="84" type="qcurve"/>
      <point x="372" y="47"/>
      <point x="272" y="0"/>
    </contour>
    <contour>
      <point x="125" y="385" type="qcurve"/>
      <point x="171" y="340"/>
      <point x="303" y="340"/>
      <point x="394" y="431"/>
      <point x="394" y="566"/>
      <point x="302" y="655"/>
      <point x="171" y="655"/>
      <point x="79" y="563"/>
      <point x="79" y="431"/>
    </contour>
  </outline>
</glyph>
<glyph name="colon" format="1">
  <advance width="114"/>
  <unicode hex="003A"/>
  <outline>
    <contour>
      <point x="80" y="362" type="qcurve"/>
      <point x="70" y="352"/>
      <point x="44" y="352"/>
      <point x="24" y="372"/>
      <point x="24" y="398"/>
      <point x="44" y="418"/>
      <point x="70" y="418"/>
      <point x="90" y="398"/>
      <point x="90" y="372"/>
    </contour>
    <contour>
      <point x="80" y="120" type="qcurve"/>
      <point x="70" y="111"/>
      <point x="44" y="111"/>
      <point x="24" y="130"/>
      <point x="24" y="158"/>
      <point x="44" y="177"/>
      <point x="70" y="177"/>
      <point x="90" y="158"/>
      <point x="90" y="130"/>
    </contour>
  </outline>
</glyph>
<glyph name="semicolon" format="1">
  <advance width="153"/>
  <unicode hex="003B"/>
  <outline>
    <contour>
      <point x="117" y="250" type="qcurve"/>
      <point x="108" y="241"/>
      <point x="80" y="241"/>
      <point x="61" y="260"/>
      <point x="61" y="288"/>
      <point x="80" y="307"/>
      <point x="108" y="307"/>
      <point x="127" y="288"/>
      <point x="127" y="260"/>
    </contour>
    <contour>
      <point x="64" y="-84" type="qcurve"/>
      <point x="24" y="-56" type="line"/>
      <point x="69" y="-30"/>
      <point x="82" y="-10" type="qcurve"/>
      <point x="87" y="-3" type="line"/>
      <point x="77" y="0" type="line"/>
      <point x="59" y="13"/>
      <point x="60" y="49"/>
      <point x="79" y="66"/>
      <point x="93" y="66"/>
      <point x="107" y="65"/>
      <point x="128" y="42"/>
      <point x="128" y="27" type="qcurve"/>
      <point x="128" y="-31"/>
    </contour>
  </outline>
</glyph>
<glyph name="less" format="1">
  <advance width="365"/>
  <unicode hex="003C"/>
  <outline>
    <contour>
      <point x="341" y="118" type="line"/>
      <point x="302" y="80" type="line"/>
      <point x="24" y="358" type="line"/>
      <point x="24" y="359" type="line"/>
      <point x="302" y="637" type="line"/>
      <point x="341" y="599" type="line"/>
      <point x="100" y="358" type="line"/>
    </contour>
  </outline>
</glyph>
<glyph name="equal" format="1">
  <advance width="368"/>
  <unicode hex="003D"/>
  <outline>
    <contour>
      <point x="344" y="358" type="line"/>
      <point x="24" y="358" type="line"/>
      <point x="24" y="413" type="line"/>
      <point x="344" y="413" type="line"/>
    </contour>
    <contour>
      <point x="344" y="253" type="line"/>
      <point x="24" y="253" type="line"/>
      <point x="24" y="308" type="line"/>
      <point x="344" y="308" type="line"/>
    </contour>
  </outline>
</glyph>
<glyph name="greater" format="1">
  <advance width="365"/>
  <unicode hex="003E"/>
  <outline>
    <contour>
      <point x="63" y="80" type="line"/>
      <point x="24" y="118" type="line"/>
      <point x="265" y="358" type="line"/>
      <point x="24" y="599" type="line"/>
      <point x="63" y="637" type="line"/>
      <point x="341" y="359" type="line"/>
      <point x="341" y="358" type="line"/>
    </contour>
  </outline>
</glyph>
<glyph name="question" format="1">
  <advance width="403"/>
  <unicode hex="003F"/>
  <outline>
    <contour>
      <point x="215" y="119" type="line"/>
      <point x="164" y="119" type="line"/>
      <point x="164" y="212" type="line"/>
      <point x="164" y="258"/>
      <point x="191" y="331"/>
      <point x="223" y="370"/>
      <point x="274" y="423"/>
      <point x="286" y="440" type="qcurve"/>
      <point x="319" y="491"/>
      <point x="319" y="535" type="qcurve"/>
      <point x="319" y="588"/>
      <point x="248" y="656"/>
      <point x="151" y="656"/>
      <point x="80" y="593"/>
      <point x="80" y="532" type="qcurve"/>
      <point x="24" y="532" type="line"/>
      <point x="24" y="607"/>
      <point x="117" y="709"/>
      <point x="202" y="709" type="qcurve"/>
      <point x="254" y="709"/>
      <point x="296" y="682" type="qcurve"/>
      <point x="378" y="631"/>
      <point x="378" y="537" type="qcurve"/>
      <point x="378" y="475"/>
      <point x="341" y="421" type="qcurve"/>
      <point x="322" y="394"/>
      <point x="268" y="339"/>
      <point x="239" y="307"/>
      <point x="216" y="236"/>
      <point x="215" y="182" type="qcurve"/>
    </contour>
    <contour>
      <point x="212" y="10" type="qcurve"/>
      <point x="202" y="0"/>
      <point x="176" y="0"/>
      <point x="156" y="20"/>
      <point x="156" y="46"/>
      <point x="176" y="66"/>
      <point x="202" y="66"/>
      <point x="222" y="46"/>
      <point x="222" y="20"/>
    </contour>
  </outline>
</glyph>
<glyph name="at" format="1">
  <advance width="707"/>
  <unicode hex="0040"/>
  <outline>
    <contour>
      <point x="320" y="54" type="qcurve"/>
      <point x="158" y="54"/>
      <point x="147" y="204" type="qcurve"/>
      <point x="147" y="305" type="line"/>
      <point x="147" y="416"/>
      <point x="235" y="449" type="qcurve"/>
      <point x="269" y="462"/>
      <point x="309" y="462" type="qcurve"/>
      <point x="382" y="462"/>
      <point x="473" y="418" type="qcurve"/>
      <point x="467" y="476"/>
      <point x="384" y="528"/>
      <point x="274" y="528"/>
      <point x="194" y="511"/>
      <point x="158" y="491" type="qcurve"/>
      <point x="80" y="449"/>
      <point x="80" y="342" type="qcurve"/>
      <point x="80" y="190" type="line"/>
      <point x="80" y="119"/>
      <point x="151" y="26"/>
      <point x="256" y="-11"/>
      <point x="323" y="-11" type="qcurve"/>
      <point x="439" y="-11"/>
      <point x="595" y="79"/>
      <point x="595" y="162" type="qcurve"/>
      <point x="595" y="345" type="line"/>
      <point x="595" y="418"/>
      <point x="605" y="442" type="qcurve"/>
      <point x="622" y="477"/>
      <point x="668" y="492" type="qcurve"/>
      <point x="683" y="454" type="line"/>
      <point x="649" y="439"/>
      <point x="649" y="384" type="qcurve"/>
      <point x="650" y="171" type="line"/>
      <point x="650" y="108"/>
      <point x="589" y="12"/>
      <point x="539" y="-14" type="qcurve"/>
      <point x="439" y="-66"/>
      <point x="195" y="-66"/>
      <point x="24" y="58"/>
      <point x="24" y="183" type="qcurve"/>
      <point x="24" y="342" type="line"/>
      <point x="24" y="397"/>
      <point x="60" y="483"/>
      <point x="90" y="508" type="qcurve"/>
      <point x="145" y="553"/>
      <point x="261" y="579"/>
      <point x="366" y="579"/>
      <point x="468" y="551"/>
      <point x="532" y="466"/>
      <point x="532" y="399" type="qcurve"/>
      <point x="569" y="383" type="line"/>
      <point x="569" y="334" type="line"/>
      <point x="532" y="350" type="line"/>
      <point x="532" y="91" type="line"/>
      <point x="396" y="54"/>
    </contour>
    <contour>
      <point x="476" y="367" type="line"/>
      <point x="389" y="410"/>
      <point x="303" y="410" type="qcurve"/>
      <point x="259" y="410"/>
      <point x="202" y="356"/>
      <point x="202" y="302" type="qcurve"/>
      <point x="202" y="204" type="line"/>
      <point x="203" y="129"/>
      <point x="276" y="110" type="qcurve"/>
      <point x="299" y="104"/>
      <point x="327" y="104" type="qcurve"/>
      <point x="389" y="104"/>
      <point x="476" y="133" type="qcurve"/>
    </contour>
  </outline>
</glyph>
<glyph name="A" format="1">
  <advance width="527"/>
  <unicode hex="0041"/>
  <outline>
    <contour>
      <point x="517" y="0" type="line"/>
      <point x="457" y="0" type="line"/>
      <point x="377" y="245" type="line"/>
      <point x="149" y="245" type="line"/>
      <point x="71" y="0" type="line"/>
      <point x="12" y="0" type="line"/>
      <point x="236" y="700" type="line"/>
      <point x="289" y="700" type="line"/>
    </contour>
    <contour>
      <point x="362" y="300" type="line"/>
      <point x="262" y="613" type="line"/>
      <point x="165" y="300" type="line"/>
    </contour>
  </outline>
</glyph>
<glyph name="D" format="1">
  <advance width="576"/>
  <unicode hex="0044"/>
  <outline>
    <contour>
      <point x="286" y="0" type="qcurve"/>
      <point x="78" y="0" type="line"/>
      <point x="78" y="701" type="line"/>
      <point x="266" y="701" type="line"/>
      <point x="379" y="701"/>
      <point x="498" y="577"/>
      <point x="498" y="474" type="qcurve"/>
      <point x="498" y="200" type="line"/>
      <point x="498" y="0"/>
    </contour>
    <contour>
      <point x="442" y="190" type="qcurve"/>
      <point x="442" y="484" type="line"/>
      <point x="442" y="568"/>
      <point x="342" y="650"/>
      <point x="276" y="650" type="qcurve"/>
      <point x="134" y="650" type="line"/>
      <point x="134" y="50" type="line"/>
      <point x="270" y="50" type="line"/>
      <point x="442" y="50"/>
    </contour>
  </outline>
</glyph>
<glyph name="E" format="1">
  <advance width="465"/>
  <unicode hex="0045"/>
  <outline>
    <contour>
      <point x="410" y="0" type="line"/>
      <point x="78" y="0" type="line"/>
      <point x="78" y="700" type="line"/>
      <point x="412" y="700" type="line"/>
      <point x="412" y="648" type="line"/>
      <point x="134" y="648" type="line"/>
      <point x="134" y="413" type="line"/>
      <point x="325" y="413" type="line"/>
      <point x="306" y="358" type="line"/>
      <point x="134" y="358" type="line"/>
      <point x="134" y="50" type="line"/>
      <point x="410" y="50" type="line"/>
    </contour>
  </outline>
</glyph>
<glyph name="F" format="1">
  <advance width="445"/>
  <unicode hex="0046"/>
  <outline>
    <contour>
      <point x="134" y="0" type="line"/>
      <point x="78" y="0" type="line"/>
      <point x="78" y="700" type="line"/>
      <point x="412" y="700" type="line"/>
      <point x="412" y="647" type="line"/>
      <point x="134" y="647" type="line"/>
      <point x="134" y="413" type="line"/>
      <point x="305" y="413" type="line"/>
      <point x="282" y="358" type="line"/>
      <point x="134" y="358" type="line"/>
    </contour>
  </outline>
</glyph>
<glyph name="G" format="1">
  <advance width="537"/>
  <unicode hex="0047"/>
  <outline>
    <contour>
      <point x="476" y="0" type="line"/>
      <point x="435" y="0" type="line"/>
      <point x="421" y="41" type="line"/>
      <point x="369" y="-10"/>
      <point x="188" y="-10"/>
      <point x="65" y="90"/>
      <point x="65" y="189" type="qcurve"/>
      <point x="65" y="503" type="line"/>
      <point x="65" y="631"/>
      <point x="152" y="684" type="qcurve"/>
      <point x="197" y="709"/>
      <point x="259" y="709" type="qcurve"/>
      <point x="336" y="709"/>
      <point x="401" y="676" type="qcurve"/>
      <point x="385" y="638" type="line"/>
      <point x="328" y="659"/>
      <point x="277" y="659" type="qcurve"/>
      <point x="121" y="659"/>
      <point x="121" y="512" type="qcurve"/>
      <point x="121" y="187" type="line"/>
      <point x="121" y="120"/>
      <point x="208" y="44"/>
      <point x="343" y="44"/>
      <point x="423" y="122"/>
      <point x="423" y="186" type="qcurve"/>
      <point x="423" y="245" type="line"/>
      <point x="357" y="245" type="line"/>
      <point x="338" y="300" type="line"/>
      <point x="476" y="300" type="line"/>
    </contour>
  </outline>
</glyph>
<glyph name="H" format="1">
  <advance width="588"/>
  <unicode hex="0048"/>
  <outline>
    <contour>
      <point x="508" y="0" type="line"/>
      <point x="452" y="0" type="line"/>
      <point x="452" y="358" type="line"/>
      <point x="134" y="358" type="line"/>
      <point x="134" y="0" type="line"/>
      <point x="78" y="0" type="line"/>
      <point x="78" y="700" type="line"/>
      <point x="134" y="700" type="line"/>
      <point x="134" y="413" type="line"/>
      <point x="452" y="413" type="line"/>
      <point x="452" y="700" type="line"/>
      <point x="508" y="700" type="line"/>
    </contour>
  </outline>
</glyph>
<glyph name="I" format="1">
  <advance width="264"/>
  <unicode hex="0049"/>
  <outline>
    <contour>
      <point x="189" y="0" type="line"/>
      <point x="133" y="0" type="line"/>
      <point x="133" y="649" type="line"/>
      <point x="66" y="651" type="line"/>
      <point x="66" y="700" type="line"/>
      <point x="189" y="700" type="line"/>
    </contour>
  </outline>
</glyph>
<glyph name="J" format="1">
  <advance width="196"/>
  <unicode hex="004A"/>
  <outline>
    <contour>
      <point x="27" y="-37" type="qcurve"/>
      <point x="14" y="0" type="line"/>
      <point x="47" y="0"/>
      <point x="96" y="54"/>
      <point x="96" y="114" type="qcurve"/>
      <point x="96" y="649" type="line"/>
      <point x="29" y="651" type="line"/>
      <point x="29" y="700" type="line"/>
      <point x="153" y="700" type="line"/>
      <point x="153" y="118" type="line"/>
      <point x="153" y="44"/>
      <point x="86" y="-37"/>
    </contour>
  </outline>
</glyph>
<glyph name="K" format="1">
  <advance width="475"/>
  <unicode hex="004B"/>
  <outline>
    <contour>
      <point x="476" y="0" type="line"/>
      <point x="409" y="0" type="line"/>
      <point x="183" y="345" type="line"/>
      <point x="135" y="269" type="line"/>
      <point x="135" y="0" type="line"/>
      <point x="79" y="0" type="line"/>
      <point x="79" y="701" type="line"/>
      <point x="135" y="701" type="line"/>
      <point x="135" y="367" type="line"/>
      <point x="359" y="701" type="line"/>
      <point x="424" y="701" type="line"/>
      <point x="219" y="398" type="line"/>
    </contour>
  </outline>
</glyph>
<glyph name="L" format="1">
  <advance width="440"/>
  <unicode hex="004C"/>
  <outline>
    <contour>
      <point x="439" y="0" type="line"/>
      <point x="78" y="0" type="line"/>
      <point x="78" y="700" type="line"/>
      <point x="134" y="700" type="line"/>
      <point x="134" y="50" type="line"/>
      <point x="439" y="50" type="line"/>
    </contour>
  </outline>
</glyph>
<glyph name="M" format="1">
  <advance width="694"/>
  <unicode hex="004D"/>
  <outline>
    <contour>
      <point x="614" y="0" type="line"/>
      <point x="558" y="0" type="line"/>
      <point x="558" y="535" type="line"/>
      <point x="376" y="0" type="line"/>
      <point x="315" y="0" type="line"/>
      <point x="134" y="535" type="line"/>
      <point x="134" y="0" type="line"/>
      <point x="78" y="0" type="line"/>
      <point x="78" y="700" type="line"/>
      <point x="134" y="700" type="line"/>
      <point x="345" y="86" type="line"/>
      <point x="558" y="700" type="line"/>
      <point x="614" y="700" type="line"/>
    </contour>
  </outline>
</glyph>
<glyph name="N" format="1">
  <advance width="650"/>
  <unicode hex="004E"/>
  <outline>
    <contour>
      <point x="570" y="0" type="line"/>
      <point x="514" y="0" type="line"/>
      <point x="134" y="597" type="line"/>
      <point x="134" y="0" type="line"/>
      <point x="78" y="0" type="line"/>
      <point x="78" y="700" type="line"/>
      <point x="134" y="700" type="line"/>
      <point x="514" y="103" type="line"/>
      <point x="514" y="700" type="line"/>
      <point x="570" y="700" type="line"/>
    </contour>
  </outline>
</glyph>
<glyph name="O" format="1">
  <advance width="549"/>
  <unicode hex="004F"/>
  <outline>
    <contour>
      <point x="483" y="506" type="qcurve"/>
      <point x="483" y="185" type="line"/>
      <point x="483" y="84"/>
      <point x="360" y="-11"/>
      <point x="188" y="-11"/>
      <point x="63" y="84"/>
      <point x="63" y="185" type="qcurve"/>
      <point x="63" y="507" type="line"/>
      <point x="63" y="610"/>
      <point x="176" y="716"/>
      <point x="374" y="716"/>
      <point x="483" y="604"/>
    </contour>
    <contour>
      <point x="428" y="187" type="qcurve"/>
      <point x="428" y="516" type="line"/>
      <point x="428" y="589"/>
      <point x="343" y="663"/>
      <point x="203" y="663"/>
      <point x="119" y="589"/>
      <point x="119" y="516" type="qcurve"/>
      <point x="119" y="186" type="line"/>
      <point x="119" y="115"/>
      <point x="206" y="42"/>
      <point x="341" y="42"/>
      <point x="428" y="113"/>
    </contour>
  </outline>
</glyph>
<glyph name="Q" format="1">
  <advance width="549"/>
  <unicode hex="0051"/>
  <outline>
    <contour>
      <point x="428" y="-40" type="qcurve"/>
      <point x="428" y="-94" type="line"/>
      <point x="308" y="-94"/>
      <point x="266" y="-11" type="qcurve"/>
      <point x="188" y="-9"/>
      <point x="128" y="34" type="qcurve"/>
      <point x="98" y="56"/>
      <point x="63" y="134"/>
      <point x="63" y="185" type="qcurve"/>
      <point x="63" y="507" type="line"/>
      <point x="63" y="610"/>
      <point x="176" y="716"/>
      <point x="374" y="716"/>
      <point x="483" y="604"/>
      <point x="483" y="506" type="qcurve"/>
      <point x="483" y="185" type="line"/>
      <point x="483" y="98"/>
      <point x="392" y="5"/>
      <point x="322" y="-7" type="qcurve"/>
      <point x="349" y="-40"/>
      <point x="424" y="-40" type="qcurve"/>
      <point x="426" y="-40"/>
    </contour>
    <contour>
      <point x="428" y="187" type="qcurve"/>
      <point x="428" y="516" type="line"/>
      <point x="428" y="589"/>
      <point x="343" y="663"/>
      <point x="203" y="663"/>
      <point x="119" y="589"/>
      <point x="119" y="516" type="qcurve"/>
      <point x="119" y="186" type="line"/>
      <point x="119" y="122"/>
      <point x="190" y="49"/>
      <point x="248" y="43" type="qcurve"/>
      <point x="244" y="67"/>
      <point x="244" y="101" type="qcurve"/>
      <point x="244" y="174" type="line"/>
      <point x="300" y="174" type="line"/>
      <point x="300" y="102" type="line"/>
      <point x="300" y="61"/>
      <point x="303" y="44" type="qcurve"/>
      <point x="360" y="51"/>
      <point x="428" y="122"/>
    </contour>
  </outline>
</glyph>
<glyph name="T" format="1">
  <advance width="402"/>
  <unicode hex="0054"/>
  <outline>
    <contour>
      <point x="226" y="0" type="line"/>
      <point x="170" y="0" type="line"/>
      <point x="170" y="650" type="line"/>
      <point x="0" y="650" type="line"/>
      <point x="0" y="700" type="line"/>
      <point x="402" y="700" type="line"/>
      <point x="402" y="650" type="line"/>
      <point x="226" y="650" type="line"/>
    </contour>
  </outline>
</glyph>
<glyph name="U" format="1">
  <advance width="566"/>
  <unicode hex="0055"/>
  <outline>
    <contour>
      <point x="439" y="178" type="qcurve"/>
      <point x="439" y="701" type="line"/>
      <point x="495" y="701" type="line"/>
      <point x="495" y="186" type="line"/>
      <point x="495" y="133"/>
      <point x="458" y="55"/>
      <point x="395" y="13"/>
      <point x="325" y="-7"/>
      <point x="245" y="-7"/>
      <point x="174" y="13"/>
      <point x="111" y="55"/>
      <point x="74" y="133"/>
      <point x="74" y="186" type="qcurve"/>
      <point x="74" y="701" type="line"/>
      <point x="130" y="701" type="line"/>
      <point x="130" y="178" type="line"/>
      <point x="130" y="117"/>
      <point x="219" y="43"/>
      <point x="349" y="43"/>
      <point x="439" y="117"/>
    </contour>
  </outline>
</glyph>
<glyph name="V" format="1">
  <advance width="589"/>
  <unicode hex="0056"/>
  <outline>
    <contour>
      <point x="356" y="0" type="line"/>
      <point x="279" y="0" type="line"/>
      <point x="78" y="700" type="line"/>
      <point x="138" y="700" type="line"/>
      <point x="317" y="69" type="line"/>
      <point x="496" y="700" type="line"/>
      <point x="556" y="700" type="line"/>
    </contour>
  </outline>
</glyph>
<glyph name="W" format="1">
  <advance width="807"/>
  <unicode hex="0057"/>
  <outline>
    <contour>
      <point x="611" y="0" type="line"/>
      <point x="526" y="0" type="line"/>
      <point x="427" y="599" type="line"/>
      <point x="328" y="0" type="line"/>
      <point x="243" y="0" type="line"/>
      <point x="78" y="700" type="line"/>
      <point x="138" y="700" type="line"/>
      <point x="281" y="69" type="line"/>
      <point x="388" y="700" type="line"/>
      <point x="466" y="700" type="line"/>
      <point x="573" y="69" type="line"/>
      <point x="714" y="700" type="line"/>
      <point x="774" y="700" type="line"/>
    </contour>
  </outline>
</glyph>
<glyph name="X" format="1">
  <advance width="628"/>
  <unicode hex="0058"/>
  <outline>
    <contour>
      <point x="585" y="0" type="line"/>
      <point x="516" y="0" type="line"/>
      <point x="332" y="294" type="line"/>
      <point x="147" y="0" type="line"/>
      <point x="78" y="0" type="line"/>
      <point x="299" y="352" type="line"/>
      <point x="97" y="700" type="line"/>
      <point x="160" y="700" type="line"/>
      <point x="332" y="406" type="line"/>
      <point x="506" y="700" type="line"/>
      <point x="569" y="700" type="line"/>
      <point x="366" y="352" type="line"/>
    </contour>
  </outline>
</glyph>
<glyph name="Z" format="1">
  <advance width="550"/>
  <unicode hex="005A"/>
  <outline>
    <contour>
      <point x="518" y="0" type="line"/>
      <point x="31" y="0" type="line"/>
      <point x="31" y="50" type="line"/>
      <point x="441" y="649" type="line"/>
      <point x="44" y="649" type="line"/>
      <point x="44" y="700" type="line"/>
      <point x="512" y="700" type="line"/>
      <point x="512" y="650" type="line"/>
      <point x="102" y="51" type="line"/>
      <point x="518" y="51" type="line"/>
    </contour>
  </outline>
</glyph>
<glyph name="backslash" format="1">
  <advance width="492"/>
  <unicode hex="005C"/>
  <outline>
    <contour>
      <point x="451" y="-114" type="line"/>
      <point x="390" y="-114" type="line"/>
      <point x="70" y="817" type="line"/>
      <point x="127" y="817" type="line"/>
    </contour>
  </outline>
</glyph>
<glyph name="asciicircum" format="1">
  <advance width="401"/>
  <unicode hex="005E"/>
  <outline>
    <contour>
      <point x="330" y="719" type="line"/>
      <point x="225" y="823" type="line"/>
      <point x="116" y="719" type="line"/>
      <point x="78" y="758" type="line"/>
      <point x="226" y="899" type="line"/>
      <point x="368" y="758" type="line"/>
    </contour>
  </outline>
</glyph>
<glyph name="underscore" format="1">
  <advance width="353"/>
  <unicode hex="005F"/>
  <outline>
    <contour>
      <point x="396" y="-55" type="line"/>
      <point x="76" y="-55" type="line"/>
      <point x="76" y="0" type="line"/>
      <point x="396" y="0" type="line"/>
    </contour>
  </outline>
</glyph>
<glyph name="grave" format="1">
  <advance width="222"/>
  <unicode hex="0060"/>
  <outline>
    <contour>
      <point x="164" y="590" type="line"/>
      <point x="120" y="590" type="line"/>
      <point x="51" y="682" type="line"/>
      <point x="46" y="688"/>
      <point x="46" y="695" type="qcurve"/>
      <point x="46" y="722"/>
      <point x="68" y="729" type="qcurve"/>
      <point x="75" y="731"/>
      <point x="81" y="731" type="qcurve"/>
      <point x="102" y="731"/>
      <point x="113" y="708" type="qcurve"/>
    </contour>
  </outline>
</glyph>
<glyph name="a" format="1">
  <advance width="458"/>
  <unicode hex="0061"/>
  <outline>
    <contour>
      <point x="256" y="-10" type="qcurve"/>
      <point x="37" y="-10"/>
      <point x="37" y="169" type="qcurve"/>
      <point x="37" y="252" type="line"/>
      <point x="37" y="351"/>
      <point x="106" y="385" type="qcurve"/>
      <point x="142" y="402"/>
      <point x="177" y="402" type="qcurve"/>
      <point x="295" y="402"/>
      <point x="366" y="346" type="qcurve"/>
      <point x="366" y="401"/>
      <point x="302" y="466"/>
      <point x="211" y="466" type="qcurve"/>
      <point x="214" y="509" type="line"/>
      <point x="295" y="509"/>
      <point x="334" y="490" type="qcurve"/>
      <point x="355" y="479"/>
      <point x="387" y="457"/>
      <point x="405" y="421"/>
      <point x="417" y="394"/>
      <point x="419" y="371" type="qcurve"/>
      <point x="422" y="336"/>
      <point x="422" y="298" type="qcurve"/>
      <point x="422" y="0" type="line"/>
      <point x="318" y="-10"/>
    </contour>
    <contour>
      <point x="366" y="46" type="qcurve"/>
      <point x="366" y="303" type="line"/>
      <point x="283" y="343"/>
      <point x="196" y="350" type="qcurve"/>
      <point x="190" y="351"/>
      <point x="184" y="351" type="qcurve"/>
      <point x="146" y="351"/>
      <point x="92" y="304"/>
      <point x="92" y="249" type="qcurve"/>
      <point x="92" y="162" type="line"/>
      <point x="92" y="79"/>
      <point x="164" y="54" type="qcurve"/>
      <point x="206" y="39"/>
      <point x="312" y="39"/>
    </contour>
  </outline>
</glyph>
<glyph name="b" format="1">
  <advance width="480"/>
  <unicode hex="0062"/>
  <outline>
    <contour>
      <point x="134" y="474" type="line"/>
      <point x="183" y="509"/>
      <point x="266" y="509" type="qcurve"/>
      <point x="321" y="509"/>
      <point x="362" y="490" type="qcurve"/>
      <point x="447" y="451"/>
      <point x="447" y="346" type="qcurve"/>
      <point x="447" y="157" type="line"/>
      <point x="447" y="58"/>
      <point x="369" y="18" type="qcurve"/>
      <point x="310" y="-12"/>
      <point x="164" y="-12"/>
      <point x="78" y="0" type="qcurve"/>
      <point x="78" y="700" type="line"/>
      <point x="134" y="700" type="line"/>
    </contour>
    <contour>
      <point x="134" y="425" type="qcurve"/>
      <point x="134" y="48" type="line"/>
      <point x="190" y="39"/>
      <point x="235" y="39" type="qcurve"/>
      <point x="392" y="39"/>
      <point x="392" y="156" type="qcurve"/>
      <point x="392" y="343" type="line"/>
      <point x="392" y="395"/>
      <point x="364" y="424" type="qcurve"/>
      <point x="330" y="459"/>
      <point x="195" y="459"/>
    </contour>
  </outline>
</glyph>
<glyph name="c" format="1">
  <advance width="383"/>
  <unicode hex="0063"/>
  <outline>
    <contour>
      <point x="246" y="38" type="qcurve"/>
      <point x="291" y="38"/>
      <point x="346" y="51" type="qcurve"/>
      <point x="358" y="6" type="line"/>
      <point x="294" y="-11"/>
      <point x="190" y="-11"/>
      <point x="140" y="5" type="qcurve"/>
      <point x="36" y="39"/>
      <point x="36" y="180" type="qcurve"/>
      <point x="36" y="308" type="line"/>
      <point x="36" y="379"/>
      <point x="64" y="427" type="qcurve"/>
      <point x="112" y="510"/>
      <point x="222" y="510" type="qcurve"/>
      <point x="288" y="510"/>
      <point x="356" y="478" type="qcurve"/>
      <point x="340" y="437" type="line"/>
      <point x="283" y="459"/>
      <point x="200" y="459"/>
      <point x="136" y="439"/>
      <point x="92" y="369"/>
      <point x="92" y="314" type="qcurve"/>
      <point x="92" y="169" type="line"/>
      <point x="92" y="38"/>
    </contour>
  </outline>
</glyph>
<glyph name="d" format="1">
  <advance width="480"/>
  <unicode hex="0064"/>
  <outline>
    <contour>
      <point x="259" y="509" type="qcurve"/>
      <point x="342" y="509"/>
      <point x="391" y="474" type="qcurve"/>
      <point x="391" y="700" type="line"/>
      <point x="447" y="700" type="line"/>
      <point x="447" y="0" type="line"/>
      <point x="361" y="-12"/>
      <point x="215" y="-12"/>
      <point x="156" y="18" type="qcurve"/>
      <point x="78" y="58"/>
      <point x="78" y="157" type="qcurve"/>
      <point x="78" y="346" type="line"/>
      <point x="78" y="451"/>
      <point x="163" y="490" type="qcurve"/>
      <point x="204" y="509"/>
    </contour>
    <contour>
      <point x="391" y="425" type="line"/>
      <point x="330" y="459"/>
      <point x="258" y="459" type="qcurve"/>
      <point x="195" y="459"/>
      <point x="133" y="395"/>
      <point x="133" y="343" type="qcurve"/>
      <point x="133" y="156" type="line"/>
      <point x="133" y="39"/>
      <point x="290" y="39" type="qcurve"/>
      <point x="335" y="39"/>
      <point x="391" y="48" type="qcurve"/>
    </contour>
  </outline>
</glyph>
<glyph name="f" format="1">
  <advance width="294"/>
  <unicode hex="0066"/>
  <outline>
    <contour>
      <point x="134" y="0" type="line"/>
      <point x="78" y="0" type="line"/>
      <point x="78" y="549" type="line"/>
      <point x="78" y="599"/>
      <point x="112" y="671"/>
      <point x="138" y="686" type="qcurve"/>
      <point x="181" y="711"/>
      <point x="226" y="711" type="qcurve"/>
      <point x="244" y="711"/>
      <point x="261" y="707" type="qcurve"/>
      <point x="252" y="658" type="line"/>
      <point x="239" y="660"/>
      <point x="227" y="660" type="qcurve"/>
      <point x="134" y="660"/>
      <point x="134" y="549" type="qcurve"/>
      <point x="134" y="501" type="line"/>
      <point x="248" y="501" type="line"/>
      <point x="224" y="448" type="line"/>
      <point x="134" y="448" type="line"/>
    </contour>
  </outline>
</glyph>
<glyph name="g" format="1">
  <advance width="448"/>
  <unicode hex="0067"/>
  <outline>
    <contour>
      <point x="307" y="-210" type="qcurve"/>
      <point x="292" y="-167" type="line"/>
      <point x="358" y="-142"/>
      <point x="358" y="-63" type="qcurve"/>
      <point x="358" y="61" type="line"/>
      <point x="316" y="-12"/>
      <point x="135" y="-12"/>
      <point x="37" y="84"/>
      <point x="37" y="176" type="qcurve"/>
      <point x="37" y="325" type="line"/>
      <point x="37" y="413"/>
      <point x="140" y="510"/>
      <point x="320" y="510"/>
      <point x="362" y="443" type="qcurve"/>
      <point x="358" y="501" type="line"/>
      <point x="414" y="501" type="line"/>
      <point x="414" y="-64" type="line"/>
      <point x="414" y="-124"/>
      <point x="364" y="-192"/>
    </contour>
    <contour>
      <point x="358" y="173" type="qcurve"/>
      <point x="358" y="336" type="line"/>
      <point x="358" y="398"/>
      <point x="278" y="459"/>
      <point x="170" y="459"/>
      <point x="93" y="394"/>
      <point x="93" y="320" type="qcurve"/>
      <point x="93" y="167" type="line"/>
      <point x="93" y="104"/>
      <point x="164" y="40"/>
      <point x="279" y="40"/>
      <point x="358" y="109"/>
    </contour>
  </outline>
</glyph>
<glyph name="i" format="1">
  <advance width="225"/>
  <unicode hex="0069"/>
  <outline>
    <contour>
      <point x="145" y="676" type="qcurve"/>
      <point x="145" y="663"/>
      <point x="125" y="643"/>
      <point x="98" y="643"/>
      <point x="78" y="664"/>
      <point x="78" y="690"/>
      <point x="98" y="710"/>
      <point x="126" y="710"/>
      <point x="145" y="690"/>
    </contour>
    <contour>
      <point x="139" y="0" type="line"/>
      <point x="83" y="0" type="line"/>
      <point x="83" y="501" type="line"/>
      <point x="139" y="501" type="line"/>
    </contour>
  </outline>
</glyph>
<glyph name="j" format="1">
  <advance width="193"/>
  <unicode hex="006A"/>
  <outline>
    <contour>
      <point x="68" y="-56" type="qcurve"/>
      <point x="68" y="446" type="line"/>
      <point x="23" y="449" type="line"/>
      <point x="0" y="501" type="line"/>
      <point x="124" y="501" type="line"/>
      <point x="124" y="-75" type="line"/>
      <point x="122" y="-133"/>
      <point x="54" y="-209"/>
      <point x="0" y="-209" type="qcurve"/>
      <point x="-7" y="-166" type="line"/>
      <point x="0" y="-166"/>
      <point x="32" y="-150"/>
      <point x="42" y="-139" type="qcurve"/>
      <point x="68" y="-110"/>
    </contour>
    <contour>
      <point x="120" y="653" type="qcurve"/>
      <point x="110" y="643"/>
      <point x="84" y="643"/>
      <point x="63" y="664"/>
      <point x="63" y="690"/>
      <point x="83" y="710"/>
      <point x="110" y="710"/>
      <point x="130" y="690"/>
      <point x="130" y="663"/>
    </contour>
  </outline>
</glyph>
<glyph name="k" format="1">
  <advance width="434"/>
  <unicode hex="006B"/>
  <outline>
    <contour>
      <point x="434" y="0" type="qcurve"/>
      <point x="367" y="0" type="line"/>
      <point x="175" y="317" type="line"/>
      <point x="123" y="272" type="line"/>
      <point x="123" y="0" type="line"/>
      <point x="67" y="0" type="line"/>
      <point x="67" y="700" type="line"/>
      <point x="123" y="700" type="line"/>
      <point x="123" y="335" type="line"/>
      <point x="323" y="520" type="line"/>
      <point x="363" y="481" type="line"/>
      <point x="215" y="352" type="line"/>
      <point x="283" y="239"/>
    </contour>
  </outline>
</glyph>
<glyph name="l" format="1">
  <advance width="214"/>
  <unicode hex="006C"/>
  <outline>
    <contour>
      <point x="134" y="0" type="line"/>
      <point x="78" y="0" type="line"/>
      <point x="78" y="700" type="line"/>
      <point x="134" y="700" type="line"/>
    </contour>
  </outline>
</glyph>
<glyph name="m" format="1">
  <advance width="735"/>
  <unicode hex="006D"/>
  <outline>
    <contour>
      <point x="385" y="461" type="qcurve"/>
      <point x="470" y="509"/>
      <point x="546" y="509" type="qcurve"/>
      <point x="618" y="509"/>
      <point x="702" y="417"/>
      <point x="702" y="346" type="qcurve"/>
      <point x="702" y="0" type="line"/>
      <point x="647" y="0" type="line"/>
      <point x="647" y="343" type="line"/>
      <point x="647" y="388"/>
      <point x="609" y="444"/>
      <point x="555" y="458"/>
      <point x="522" y="458"/>
      <point x="481" y="455"/>
      <point x="447" y="442" type="qcurve"/>
      <point x="410" y="424" type="line"/>
      <point x="427" y="390"/>
      <point x="427" y="346" type="qcurve"/>
      <point x="427" y="0" type="line"/>
      <point x="372" y="0" type="line"/>
      <point x="372" y="343" type="line"/>
      <point x="372" y="395"/>
      <point x="347" y="424" type="qcurve"/>
      <point x="317" y="458"/>
      <point x="194" y="458"/>
      <point x="134" y="425" type="qcurve"/>
      <point x="134" y="0" type="line"/>
      <point x="78" y="0" type="line"/>
      <point x="78" y="501" type="line"/>
      <point x="134" y="501" type="line"/>
      <point x="129" y="469" type="line"/>
      <point x="198" y="508"/>
      <point x="339" y="508"/>
    </contour>
  </outline>
</glyph>
<glyph name="n" format="1">
  <advance width="500"/>
  <unicode hex="006E"/>
  <outline>
    <contour>
      <point x="116" y="467" type="line"/>
      <point x="167" y="510"/>
      <point x="259" y="510" type="qcurve"/>
      <point x="311" y="510"/>
      <point x="348" y="491" type="qcurve"/>
      <point x="433" y="452"/>
      <point x="433" y="346" type="qcurve"/>
      <point x="433" y="0" type="line"/>
      <point x="378" y="0" type="line"/>
      <point x="378" y="343" type="line"/>
      <point x="378" y="395"/>
      <point x="350" y="424" type="qcurve"/>
      <point x="316" y="459"/>
      <point x="181" y="459"/>
      <point x="120" y="425" type="qcurve"/>
      <point x="120" y="0" type="line"/>
      <point x="64" y="0" type="line"/>
      <point x="64" y="501" type="line"/>
      <point x="120" y="501" type="line"/>
    </contour>
  </outline>
</glyph>
<glyph name="p" format="1">
  <advance width="488"/>
  <unicode hex="0070"/>
  <outline>
    <contour>
      <point x="134" y="-188" type="line"/>
      <point x="78" y="-210" type="line"/>
      <point x="78" y="501" type="line"/>
      <point x="134" y="501" type="line"/>
      <point x="129" y="450" type="line"/>
      <point x="184" y="509"/>
      <point x="358" y="509"/>
      <point x="455" y="401"/>
      <point x="455" y="315" type="qcurve"/>
      <point x="455" y="176" type="line"/>
      <point x="455" y="85"/>
      <point x="353" y="-12"/>
      <point x="180" y="-12"/>
      <point x="134" y="42" type="qcurve"/>
    </contour>
    <contour>
      <point x="399" y="166" type="qcurve"/>
      <point x="399" y="319" type="line"/>
      <point x="399" y="392"/>
      <point x="322" y="458"/>
      <point x="215" y="458"/>
      <point x="137" y="393"/>
      <point x="134" y="324" type="qcurve"/>
      <point x="134" y="166" type="line"/>
      <point x="134" y="101"/>
      <point x="208" y="39"/>
      <point x="324" y="39"/>
      <point x="399" y="104"/>
    </contour>
  </outline>
</glyph>
<glyph name="q" format="1">
  <advance width="448"/>
  <unicode hex="0071"/>
  <outline>
    <contour>
      <point x="414" y="-210" type="line"/>
      <point x="358" y="-188" type="line"/>
      <point x="358" y="42" type="line"/>
      <point x="312" y="-12"/>
      <point x="139" y="-12"/>
      <point x="37" y="85"/>
      <point x="37" y="176" type="qcurve"/>
      <point x="37" y="314" type="line"/>
      <point x="37" y="400"/>
      <point x="134" y="509"/>
      <point x="307" y="509"/>
      <point x="363" y="448" type="qcurve"/>
      <point x="358" y="501" type="line"/>
      <point x="414" y="501" type="line"/>
    </contour>
    <contour>
      <point x="358" y="166" type="qcurve"/>
      <point x="358" y="324" type="line"/>
      <point x="355" y="393"/>
      <point x="277" y="458"/>
      <point x="170" y="458"/>
      <point x="93" y="391"/>
      <point x="93" y="318" type="qcurve"/>
      <point x="93" y="166" type="line"/>
      <point x="93" y="104"/>
      <point x="168" y="39"/>
      <point x="284" y="39"/>
      <point x="358" y="101"/>
    </contour>
  </outline>
</glyph>
<glyph name="r" format="1">
  <advance width="333"/>
  <unicode hex="0072"/>
  <outline>
    <contour>
      <point x="296" y="450" type="line"/>
      <point x="258" y="460"/>
      <point x="180" y="460"/>
      <point x="117" y="425"/>
      <point x="117" y="392" type="qcurve"/>
      <point x="117" y="0" type="line"/>
      <point x="61" y="0" type="line"/>
      <point x="61" y="501" type="line"/>
      <point x="117" y="501" type="line"/>
      <point x="114" y="466" type="line"/>
      <point x="161" y="509"/>
      <point x="238" y="509" type="qcurve"/>
      <point x="272" y="509"/>
      <point x="311" y="501" type="qcurve"/>
    </contour>
  </outline>
</glyph>
<glyph name="s" format="1">
  <advance width="431"/>
  <unicode hex="0073"/>
  <outline>
    <contour>
      <point x="36" y="127" type="qcurve"/>
      <point x="89" y="127" type="line"/>
      <point x="95" y="82"/>
      <point x="173" y="37"/>
      <point x="266" y="37"/>
      <point x="340" y="78"/>
      <point x="340" y="161"/>
      <point x="283" y="207"/>
      <point x="201" y="233"/>
      <point x="117" y="262"/>
      <point x="85" y="291" type="qcurve"/>
      <point x="47" y="325"/>
      <point x="47" y="426"/>
      <point x="128" y="513"/>
      <point x="219" y="513" type="qcurve"/>
      <point x="251" y="513"/>
      <point x="307" y="498"/>
      <point x="319" y="491" type="qcurve"/>
      <point x="331" y="484" type="line"/>
      <point x="312" y="438" type="line"/>
      <point x="276" y="464"/>
      <point x="168" y="464"/>
      <point x="103" y="418"/>
      <point x="103" y="379" type="qcurve"/>
      <point x="103" y="341"/>
      <point x="169" y="298"/>
      <point x="254" y="273"/>
      <point x="338" y="241"/>
      <point x="396" y="175"/>
      <point x="396" y="65"/>
      <point x="307" y="-15"/>
      <point x="136" y="-15"/>
      <point x="38" y="67"/>
    </contour>
  </outline>
</glyph>
<glyph name="t" format="1">
  <advance width="243"/>
  <unicode hex="0074"/>
  <outline>
    <contour>
      <point x="166" y="30" type="qcurve"/>
      <point x="150" y="-13" type="line"/>
      <point x="94" y="3"/>
      <point x="44" y="73"/>
      <point x="44" y="132" type="qcurve"/>
      <point x="44" y="700" type="line"/>
      <point x="100" y="700" type="line"/>
      <point x="100" y="501" type="line"/>
      <point x="220" y="501" type="line"/>
      <point x="196" y="448" type="line"/>
      <point x="100" y="448" type="line"/>
      <point x="100" y="132" type="line"/>
      <point x="100" y="52"/>
    </contour>
  </outline>
</glyph>
<glyph name="u" format="1">
  <advance width="447"/>
  <unicode hex="0075"/>
  <outline>
    <contour>
      <point x="409" y="0" type="line"/>
      <point x="354" y="0" type="line"/>
      <point x="358" y="51" type="line"/>
      <point x="334" y="21"/>
      <point x="261" y="-11"/>
      <point x="224" y="-11" type="qcurve"/>
      <point x="36" y="-11"/>
      <point x="36" y="172" type="qcurve"/>
      <point x="36" y="501" type="line"/>
      <point x="92" y="501" type="line"/>
      <point x="92" y="165" type="line"/>
      <point x="92" y="101"/>
      <point x="163" y="39"/>
      <point x="224" y="39" type="qcurve"/>
      <point x="353" y="39"/>
      <point x="353" y="165" type="qcurve"/>
      <point x="353" y="501" type="line"/>
      <point x="409" y="501" type="line"/>
    </contour>
  </outline>
</glyph>
<glyph name="v" format="1">
  <advance width="424"/>
  <unicode hex="0076"/>
  <outline>
    <contour>
      <point x="248" y="0" type="line"/>
      <point x="171" y="0" type="line"/>
      <point x="18" y="501" type="line"/>
      <point x="77" y="501" type="line"/>
      <point x="210" y="58" type="line"/>
      <point x="344" y="501" type="line"/>
      <point x="403" y="501" type="line"/>
    </contour>
  </outline>
</glyph>
<glyph name="w" format="1">
  <advance width="704"/>
  <unicode hex="0077"/>
  <outline>
    <contour>
      <point x="528" y="0" type="line"/>
      <point x="451" y="0" type="line"/>
      <point x="350" y="405" type="line"/>
      <point x="248" y="0" type="line"/>
      <point x="171" y="0" type="line"/>
      <point x="18" y="501" type="line"/>
      <point x="77" y="501" type="line"/>
      <point x="210" y="58" type="line"/>
      <point x="323" y="501" type="line"/>
      <point x="380" y="501" type="line"/>
      <point x="490" y="58" type="line"/>
      <point x="624" y="501" type="line"/>
      <point x="683" y="501" type="line"/>
    </contour>
  </outline>
</glyph>
<glyph name="x" format="1">
  <advance width="489"/>
  <unicode hex="0078"/>
  <outline>
    <contour>
      <point x="456" y="0" type="line"/>
      <point x="390" y="0" type="line"/>
      <point x="267" y="197" type="line"/>
      <point x="144" y="0" type="line"/>
      <point x="78" y="0" type="line"/>
      <point x="234" y="249" type="line"/>
      <point x="78" y="501" type="line"/>
      <point x="141" y="501" type="line"/>
      <point x="267" y="301" type="line"/>
      <point x="393" y="501" type="line"/>
      <point x="456" y="501" type="line"/>
      <point x="299" y="249" type="line"/>
    </contour>
  </outline>
</glyph>
<glyph name="y" format="1">
  <advance width="480"/>
  <unicode hex="0079"/>
  <outline>
    <contour>
      <point x="307" y="-210" type="qcurve"/>
      <point x="292" y="-167" type="line"/>
      <point x="359" y="-142"/>
      <point x="359" y="-63" type="qcurve"/>
      <point x="359" y="49" type="line"/>
      <point x="322" y="-12"/>
      <point x="227" y="-12" type="qcurve"/>
      <point x="37" y="-12"/>
      <point x="37" y="176" type="qcurve"/>
      <point x="37" y="501" type="line"/>
      <point x="91" y="501" type="line"/>
      <point x="91" y="166" type="line"/>
      <point x="91" y="102"/>
      <point x="161" y="39"/>
      <point x="282" y="39"/>
      <point x="358" y="101"/>
      <point x="358" y="166" type="qcurve"/>
      <point x="358" y="363" type="line"/>
      <point x="358" y="436"/>
      <point x="368" y="460" type="qcurve"/>
      <point x="385" y="495"/>
      <point x="431" y="510" type="qcurve"/>
      <point x="446" y="472" type="line"/>
      <point x="412" y="457"/>
      <point x="412" y="402" type="qcurve"/>
      <point x="412" y="-61" type="line"/>
      <point x="412" y="-122"/>
      <point x="364" y="-192"/>
    </contour>
  </outline>
</glyph>
<glyph name="z" format="1">
  <advance width="478"/>
  <unicode hex="007A"/>
  <outline>
    <contour>
      <point x="445" y="0" type="line"/>
      <point x="78" y="0" type="line"/>
      <point x="78" y="50" type="line"/>
      <point x="353" y="450" type="line"/>
      <point x="87" y="450" type="line"/>
      <point x="87" y="501" type="line"/>
      <point x="424" y="501" type="line"/>
      <point x="424" y="451" type="line"/>
      <point x="147" y="51" type="line"/>
      <point x="445" y="51" type="line"/>
    </contour>
  </outline>
</glyph>
<glyph name="braceleft" format="1">
  <advance width="309"/>
  <unicode hex="007B"/>
  <outline>
    <contour>
      <point x="276" y="-79" type="qcurve"/>
      <point x="258" y="-116" type="line"/>
      <point x="192" y="-78"/>
      <point x="152" y="17"/>
      <point x="152" y="140" type="qcurve"/>
      <point x="152" y="247" type="line"/>
      <point x="152" y="266"/>
      <point x="120" y="315"/>
      <point x="99" y="335"/>
      <point x="78" y="354" type="qcurve"/>
      <point x="102" y="373"/>
      <point x="150" y="435"/>
      <point x="150" y="462" type="qcurve"/>
      <point x="150" y="567" type="line"/>
      <point x="150" y="651"/>
      <point x="168" y="742"/>
      <point x="211" y="796"/>
      <point x="256" y="822" type="qcurve"/>
      <point x="274" y="785" type="line"/>
      <point x="206" y="734"/>
      <point x="206" y="641" type="qcurve"/>
      <point x="206" y="456" type="line"/>
      <point x="206" y="413"/>
      <point x="148" y="355" type="qcurve"/>
      <point x="208" y="295"/>
      <point x="208" y="253" type="qcurve"/>
      <point x="208" y="65" type="line"/>
      <point x="208" y="-28"/>
    </contour>
  </outline>
</glyph>
<glyph name="bar" format="1">
  <advance width="214"/>
  <unicode hex="007C"/>
  <outline>
    <contour>
      <point x="134" y="-114" type="line"/>
      <point x="78" y="-114" type="line"/>
      <point x="78" y="817" type="line"/>
      <point x="134" y="817" type="line"/>
    </contour>
  </outline>
</glyph>
<glyph name="braceright" format="1">
  <advance width="309"/>
  <unicode hex="007D"/>
  <outline>
    <contour>
      <point x="96" y="-116" type="qcurve"/>
      <point x="78" y="-79" type="line"/>
      <point x="146" y="-28"/>
      <point x="146" y="65" type="qcurve"/>
      <point x="146" y="253" type="line"/>
      <point x="146" y="295"/>
      <point x="206" y="355" type="qcurve"/>
      <point x="148" y="413"/>
      <point x="148" y="456" type="qcurve"/>
      <point x="148" y="641" type="line"/>
      <point x="148" y="734"/>
      <point x="80" y="785" type="qcurve"/>
      <point x="98" y="822" type="line"/>
      <point x="143" y="796"/>
      <point x="186" y="742"/>
      <point x="204" y="651"/>
      <point x="204" y="567" type="qcurve"/>
      <point x="204" y="462" type="line"/>
      <point x="204" y="435"/>
      <point x="252" y="373"/>
      <point x="276" y="354" type="qcurve"/>
      <point x="255" y="335"/>
      <point x="234" y="315"/>
      <point x="202" y="266"/>
      <point x="202" y="247" type="qcurve"/>
      <point x="202" y="140" type="line"/>
      <point x="202" y="17"/>
      <point x="162" y="-78"/>
    </contour>
  </outline>
</glyph>
<glyph name="asciitilde" format="1">
  <advance width="516"/>
  <unicode hex="007E"/>
  <outline>
    <contour>
      <point x="371" y="342" type="qcurve"/>
      <point x="425" y="342"/>
      <point x="456" y="379" type="qcurve"/>
      <point x="483" y="341" type="line"/>
      <point x="439" y="284"/>
      <point x="369" y="284" type="qcurve"/>
      <point x="341" y="284"/>
      <point x="251" y="312" type="qcurve"/>
      <point x="223" y="320"/>
      <point x="196" y="320" type="qcurve"/>
      <point x="139" y="320"/>
      <point x="104" y="281" type="qcurve"/>
      <point x="78" y="319" type="line"/>
      <point x="124" y="376"/>
      <point x="195" y="376" type="qcurve"/>
      <point x="222" y="376"/>
      <point x="343" y="342"/>
    </contour>
  </outline>
</glyph>
<glyph name="exclamdown" format="1">
  <advance width="225"/>
  <unicode hex="00A1"/>
  <outline>
    <contour>
      <point x="79" y="37" type="qcurve"/>
      <point x="89" y="590" type="line"/>
      <point x="136" y="590" type="line"/>
      <point x="145" y="36" type="line"/>
      <point x="145" y="0"/>
      <point x="79" y="0"/>
    </contour>
    <contour>
      <point x="134" y="654" type="qcurve"/>
      <point x="124" y="644"/>
      <point x="98" y="644"/>
      <point x="78" y="664"/>
      <point x="78" y="690"/>
      <point x="98" y="710"/>
      <point x="124" y="710"/>
      <point x="144" y="690"/>
      <point x="144" y="664"/>
    </contour>
  </outline>
</glyph>
<glyph name="cent" format="1">
  <advance width="433"/>
  <unicode hex="00A2"/>
  <outline>
    <contour>
      <point x="293" y="-114" type="line"/>
      <point x="238" y="-114" type="line"/>
      <point x="238" y="-8" type="line"/>
      <point x="219" y="-6"/>
      <point x="190" y="2" type="qcurve"/>
      <point x="131" y="22"/>
      <point x="78" y="105"/>
      <point x="78" y="180" type="qcurve"/>
      <point x="78" y="308" type="line"/>
      <point x="78" y="399"/>
      <point x="166" y="500"/>
      <point x="238" y="508" type="qcurve"/>
      <point x="238" y="623" type="line"/>
      <point x="293" y="623" type="line"/>
      <point x="293" y="508" type="line"/>
      <point x="346" y="502"/>
      <point x="398" y="478" type="qcurve"/>
      <point x="382" y="437" type="line"/>
      <point x="333" y="455"/>
      <point x="293" y="459" type="qcurve"/>
      <point x="293" y="38" type="line"/>
      <point x="336" y="38"/>
      <point x="388" y="51" type="qcurve"/>
      <point x="400" y="6" type="line"/>
      <point x="343" y="-9"/>
      <point x="293" y="-10" type="qcurve"/>
    </contour>
    <contour>
      <point x="238" y="42" type="qcurve"/>
      <point x="238" y="457" type="line"/>
      <point x="190" y="448"/>
      <point x="134" y="377"/>
      <point x="134" y="314" type="qcurve"/>
      <point x="134" y="169" type="line"/>
      <point x="134" y="61"/>
    </contour>
  </outline>
</glyph>
<glyph name="sterling" format="1">
  <advance width="471"/>
  <unicode hex="00A3"/>
  <outline>
    <contour>
      <point x="438" y="0" type="line"/>
      <point x="78" y="0" type="line"/>
      <point x="78" y="50" type="line"/>
      <point x="129" y="76"/>
      <point x="192" y="170"/>
      <point x="192" y="225" type="qcurve"/>
      <point x="192" y="254"/>
      <point x="178" y="303" type="qcurve"/>
      <point x="101" y="303" type="line"/>
      <point x="101" y="358" type="line"/>
      <point x="160" y="358" type="line"/>
      <point x="125" y="465"/>
      <point x="125" y="515" type="qcurve"/>
      <point x="125" y="602"/>
      <point x="234" y="709"/>
      <point x="387" y="709"/>
      <point x="427" y="684" type="qcurve"/>
      <point x="409" y="635" type="line"/>
      <point x="368" y="658"/>
      <point x="258" y="658"/>
      <point x="180" y="579"/>
      <point x="180" y="513" type="qcurve"/>
      <point x="180" y="480"/>
      <point x="220" y="358" type="qcurve"/>
      <point x="421" y="358" type="line"/>
      <point x="421" y="303" type="line"/>
      <point x="237" y="303" type="line"/>
      <point x="249" y="257"/>
      <point x="249" y="174"/>
      <point x="202" y="79"/>
      <point x="163" y="55" type="qcurve"/>
      <point x="438" y="55" type="line"/>
    </contour>
  </outline>
</glyph>
<glyph name="currency" format="1">
  <advance width="462"/>
  <unicode hex="00A4"/>
  <outline>
    <contour>
      <point x="393" y="150" type="line"/>
      <point x="360" y="183" type="line"/>
      <point x="312" y="148"/>
      <point x="191" y="148"/>
      <point x="146" y="184" type="qcurve"/>
      <point x="113" y="149" type="line"/>
      <point x="81" y="182" type="line"/>
      <point x="113" y="216" type="line"/>
      <point x="78" y="264"/>
      <point x="78" y="381"/>
      <point x="112" y="428" type="qcurve"/>
      <point x="81" y="461" type="line"/>
      <point x="114" y="494" type="line"/>
      <point x="145" y="462" type="line"/>
      <point x="193" y="499"/>
      <point x="313" y="499"/>
      <point x="359" y="464" type="qcurve"/>
      <point x="391" y="495" type="line"/>
      <point x="425" y="460" type="line"/>
      <point x="394" y="429" type="line"/>
      <point x="429" y="381"/>
      <point x="429" y="263"/>
      <point x="392" y="215" type="qcurve"/>
      <point x="425" y="182" type="line"/>
    </contour>
    <contour>
      <point x="252" y="203" type="qcurve"/>
      <point x="303" y="203"/>
      <point x="375" y="273"/>
      <point x="375" y="374"/>
      <point x="303" y="446"/>
      <point x="202" y="446"/>
      <point x="130" y="374"/>
      <point x="130" y="273"/>
      <point x="202" y="203"/>
    </contour>
  </outline>
</glyph>
<glyph name="yen" format="1">
  <advance width="583"/>
  <unicode hex="00A5"/>
  <outline>
    <contour>
      <point x="342" y="0" type="line"/>
      <point x="286" y="0" type="line"/>
      <point x="286" y="253" type="line"/>
      <point x="155" y="253" type="line"/>
      <point x="155" y="308" type="line"/>
      <point x="286" y="308" type="line"/>
      <point x="286" y="340" type="line"/>
      <point x="275" y="358" type="line"/>
      <point x="155" y="358" type="line"/>
      <point x="155" y="413" type="line"/>
      <point x="243" y="413" type="line"/>
      <point x="78" y="700" type="line"/>
      <point x="141" y="700" type="line"/>
      <point x="309" y="413" type="line"/>
      <point x="317" y="413" type="line"/>
      <point x="487" y="700" type="line"/>
      <point x="550" y="700" type="line"/>
      <point x="383" y="413" type="line"/>
      <point x="475" y="413" type="line"/>
      <point x="475" y="358" type="line"/>
      <point x="351" y="358" type="line"/>
      <point x="342" y="342" type="line"/>
      <point x="342" y="308" type="line"/>
      <point x="475" y="308" type="line"/>
      <point x="475" y="253" type="line"/>
      <point x="342" y="253" type="line"/>
    </contour>
  </outline>
</glyph>
<glyph name="section" format="1">
  <advance width="586"/>
  <unicode hex="00A7"/>
  <outline>
    <contour>
      <point x="78" y="-8" type="qcurve"/>
      <point x="135" y="-8" type="line"/>
      <point x="140" y="-61"/>
      <point x="237" y="-143"/>
      <point x="389" y="-143"/>
      <point x="493" y="-74"/>
      <point x="493" y="1" type="qcurve"/>
      <point x="493" y="47"/>
      <point x="434" y="112"/>
      <point x="346" y="146"/>
      <point x="243" y="185"/>
      <point x="155" y="223"/>
      <point x="96" y="299"/>
      <point x="96" y="404"/>
      <point x="128" y="445" type="qcurve"/>
      <point x="96" y="485"/>
      <point x="96" y="540" type="qcurve"/>
      <point x="96" y="610"/>
      <point x="212" y="712"/>
      <point x="321" y="712" type="qcurve"/>
      <point x="404" y="712"/>
      <point x="467" y="682" type="qcurve"/>
      <point x="467" y="680"/>
      <point x="450" y="629" type="qcurve"/>
      <point x="393" y="658"/>
      <point x="246" y="658"/>
      <point x="154" y="594"/>
      <point x="154" y="537" type="qcurve"/>
      <point x="154" y="473"/>
      <point x="233" y="437" type="qcurve"/>
      <point x="268" y="421"/>
      <point x="353" y="393"/>
      <point x="439" y="359"/>
      <point x="509" y="316"/>
      <point x="553" y="242"/>
      <point x="553" y="135"/>
      <point x="530" y="92" type="qcurve"/>
      <point x="553" y="57"/>
      <point x="553" y="6" type="qcurve"/>
      <point x="553" y="-86"/>
      <point x="436" y="-197"/>
      <point x="205" y="-197"/>
      <point x="80" y="-82"/>
    </contour>
    <contour>
      <point x="486" y="140" type="qcurve"/>
      <point x="493" y="166"/>
      <point x="493" y="189" type="qcurve"/>
      <point x="493" y="238"/>
      <point x="422" y="307"/>
      <point x="376" y="322" type="qcurve"/>
      <point x="220" y="376"/>
      <point x="171" y="408" type="qcurve"/>
      <point x="154" y="382"/>
      <point x="154" y="306"/>
      <point x="228" y="245"/>
      <point x="276" y="230" type="qcurve"/>
      <point x="426" y="185"/>
    </contour>
  </outline>
</glyph>
<glyph name="dieresis" format="1">
  <advance width="222"/>
  <unicode hex="00A8"/>
  <outline>
    <contour>
      <point x="56" y="674" type="qcurve"/>
      <point x="46" y="664"/>
      <point x="20" y="664"/>
      <point x="0" y="684"/>
      <point x="0" y="710"/>
      <point x="20" y="730"/>
      <point x="46" y="730"/>
      <point x="66" y="710"/>
      <point x="66" y="684"/>
    </contour>
    <contour>
      <point x="212" y="674" type="qcurve"/>
      <point x="202" y="664"/>
      <point x="176" y="664"/>
      <point x="156" y="684"/>
      <point x="156" y="710"/>
      <point x="176" y="730"/>
      <point x="202" y="730"/>
      <point x="222" y="710"/>
      <point x="222" y="684"/>
    </contour>
  </outline>
</glyph>
<glyph name="copyright" format="1">
  <advance width="800"/>
  <unicode hex="00A9"/>
  <outline>
    <contour>
      <point x="774" y="248" type="qcurve"/>
      <point x="774" y="89"/>
      <point x="556" y="-127"/>
      <point x="245" y="-127"/>
      <point x="25" y="89"/>
      <point x="25" y="407"/>
      <point x="243" y="621"/>
      <point x="558" y="621"/>
      <point x="774" y="407"/>
    </contour>
    <contour>
      <point x="84" y="247" type="qcurve"/>
      <point x="84" y="108"/>
      <point x="267" y="-72"/>
      <point x="533" y="-72"/>
      <point x="716" y="109"/>
      <point x="716" y="381"/>
      <point x="531" y="566"/>
      <point x="268" y="566"/>
      <point x="84" y="387"/>
    </contour>
    <contour>
      <point x="535" y="175" type="qcurve"/>
      <point x="599" y="175" type="line"/>
      <point x="583" y="103"/>
      <point x="475" y="16"/>
      <point x="405" y="16" type="qcurve"/>
      <point x="306" y="16"/>
      <point x="191" y="146"/>
      <point x="191" y="343"/>
      <point x="305" y="478"/>
      <point x="403" y="478" type="qcurve"/>
      <point x="476" y="478"/>
      <point x="586" y="392"/>
      <point x="598" y="323" type="qcurve"/>
      <point x="535" y="323" type="line"/>
      <point x="527" y="363"/>
      <point x="453" y="419"/>
      <point x="404" y="419" type="qcurve"/>
      <point x="328" y="419"/>
      <point x="253" y="321"/>
      <point x="253" y="174"/>
      <point x="331" y="74"/>
      <point x="405" y="74" type="qcurve"/>
      <point x="455" y="74"/>
      <point x="528" y="131"/>
    </contour>
  </outline>
</glyph>
<glyph name="ordfeminine" format="1">
  <advance width="380"/>
  <unicode hex="00AA"/>
  <outline>
    <contour>
      <point x="347" y="391" type="line"/>
      <point x="278" y="380"/>
      <point x="216" y="380"/>
      <point x="155" y="386"/>
      <point x="109" y="414"/>
      <point x="78" y="474"/>
      <point x="78" y="519" type="qcurve"/>
      <point x="78" y="601"/>
      <point x="140" y="624" type="qcurve"/>
      <point x="158" y="631"/>
      <point x="179" y="631" type="qcurve"/>
      <point x="229" y="631"/>
      <point x="295" y="592" type="qcurve"/>
      <point x="295" y="624"/>
      <point x="240" y="666"/>
      <point x="178" y="666" type="qcurve"/>
      <point x="181" y="709" type="line"/>
      <point x="279" y="709"/>
      <point x="347" y="634"/>
      <point x="347" y="555" type="qcurve"/>
    </contour>
    <contour>
      <point x="295" y="435" type="qcurve"/>
      <point x="295" y="543" type="line"/>
      <point x="222" y="584"/>
      <point x="180" y="584" type="qcurve"/>
      <point x="125" y="584"/>
      <point x="125" y="513" type="qcurve"/>
      <point x="125" y="453"/>
      <point x="174" y="434" type="qcurve"/>
      <point x="198" y="424"/>
      <point x="258" y="424"/>
    </contour>
  </outline>
</glyph>
<glyph name="guillemotleft" format="1">
  <advance width="488"/>
  <unicode hex="00AB"/>
  <outline>
    <contour>
      <point x="264" y="114" type="line"/>
      <point x="229" y="80" type="line"/>
      <point x="42" y="267" type="line"/>
      <point x="42" y="268" type="line"/>
      <point x="229" y="455" type="line"/>
      <point x="266" y="417" type="line"/>
      <point x="116" y="267" type="line"/>
    </contour>
    <contour>
      <point x="484" y="114" type="line"/>
      <point x="449" y="80" type="line"/>
      <point x="262" y="267" type="line"/>
      <point x="262" y="268" type="line"/>
      <point x="449" y="455" type="line"/>
      <point x="486" y="417" type="line"/>
      <point x="336" y="267" type="line"/>
    </contour>
  </outline>
</glyph>
<glyph name="registered" format="1">
  <advance width="800"/>
  <unicode hex="00AE"/>
  <outline>
    <contour>
      <point x="587" y="39" type="line"/>
      <point x="520" y="39" type="line"/>
      <point x="401" y="229" type="line"/>
      <point x="320" y="229" type="line"/>
      <point x="320" y="39" type="line"/>
      <point x="264" y="39" type="line"/>
      <point x="264" y="476" type="line"/>
      <point x="424" y="476" type="line"/>
      <point x="499" y="476"/>
      <point x="577" y="408"/>
      <point x="577" y="299"/>
      <point x="514" y="240"/>
      <point x="462" y="234" type="qcurve"/>
    </contour>
    <contour>
      <point x="320" y="282" type="line"/>
      <point x="394" y="282" type="line"/>
      <point x="488" y="282"/>
      <point x="510" y="314" type="qcurve"/>
      <point x="520" y="329"/>
      <point x="520" y="354" type="qcurve"/>
      <point x="520" y="393"/>
      <point x="456" y="425"/>
      <point x="413" y="425" type="qcurve"/>
      <point x="320" y="425" type="line"/>
    </contour>
    <contour>
      <point x="774" y="248" type="qcurve"/>
      <point x="774" y="89"/>
      <point x="556" y="-127"/>
      <point x="245" y="-127"/>
      <point x="25" y="89"/>
      <point x="25" y="407"/>
      <point x="243" y="621"/>
      <point x="558" y="621"/>
      <point x="774" y="407"/>
    </contour>
    <contour>
      <point x="84" y="247" type="qcurve"/>
      <point x="84" y="108"/>
      <point x="267" y="-72"/>
      <point x="533" y="-72"/>
      <point x="716" y="109"/>
      <point x="716" y="381"/>
      <point x="531" y="566"/>
      <point x="268" y="566"/>
      <point x="84" y="387"/>
    </contour>
  </outline>
</glyph>
<glyph name="degree" format="1">
  <advance width="399"/>
  <unicode hex="00B0"/>
  <outline>
    <contour>
      <point x="324" y="463" type="qcurve"/>
      <point x="282" y="421"/>
      <point x="162" y="421"/>
      <point x="78" y="505"/>
      <point x="78" y="625"/>
      <point x="162" y="709"/>
      <point x="282" y="709"/>
      <point x="366" y="625"/>
      <point x="366" y="505"/>
    </contour>
    <contour>
      <point x="290" y="499" type="qcurve"/>
      <point x="316" y="528"/>
      <point x="316" y="602"/>
      <point x="264" y="659"/>
      <point x="180" y="659"/>
      <point x="128" y="602"/>
      <point x="128" y="528"/>
      <point x="180" y="471"/>
      <point x="264" y="471"/>
    </contour>
  </outline>
</glyph>
<glyph name="plusminus" format="1">
  <advance width="431"/>
  <unicode hex="00B1"/>
  <outline>
    <contour>
      <point x="398" y="237" type="line"/>
      <point x="78" y="237" type="line"/>
      <point x="78" y="292" type="line"/>
      <point x="211" y="292" type="line"/>
      <point x="211" y="358" type="line"/>
      <point x="78" y="358" type="line"/>
      <point x="78" y="413" type="line"/>
      <point x="211" y="413" type="line"/>
      <point x="211" y="545" type="line"/>
      <point x="266" y="545" type="line"/>
      <point x="266" y="413" type="line"/>
      <point x="398" y="413" type="line"/>
      <point x="398" y="358" type="line"/>
      <point x="266" y="358" type="line"/>
      <point x="266" y="292" type="line"/>
      <point x="398" y="292" type="line"/>
    </contour>
  </outline>
</glyph>
<glyph name="acute" format="1">
  <advance width="222"/>
  <unicode hex="00B4"/>
  <outline>
    <contour>
      <point x="90" y="588" type="line"/>
      <point x="46" y="588" type="line"/>
      <point x="97" y="706" type="line"/>
      <point x="108" y="729"/>
      <point x="129" y="729" type="qcurve"/>
      <point x="156" y="729"/>
      <point x="162" y="706" type="qcurve"/>
      <point x="164" y="700"/>
      <point x="164" y="686"/>
      <point x="159" y="680" type="qcurve"/>
    </contour>
  </outline>
</glyph>
<glyph name="mu" format="1">
  <advance width="478"/>
  <unicode hex="00B5"/>
  <outline>
    <contour>
      <point x="444" y="27" type="qcurve"/>
      <point x="417" y="-6" type="line"/>
      <point x="391" y="-6"/>
      <point x="373" y="25" type="qcurve"/>
      <point x="336" y="-12"/>
      <point x="261" y="-12" type="qcurve"/>
      <point x="185" y="-12"/>
      <point x="110" y="29" type="qcurve"/>
      <point x="96" y="37"/>
      <point x="94" y="38" type="qcurve"/>
      <point x="94" y="-210" type="line"/>
      <point x="37" y="-201" type="line"/>
      <point x="37" y="501" type="line"/>
      <point x="94" y="501" type="line"/>
      <point x="94" y="105" type="line"/>
      <point x="118" y="81"/>
      <point x="162" y="62" type="qcurve"/>
      <point x="212" y="40"/>
      <point x="257" y="40" type="qcurve"/>
      <point x="360" y="40"/>
      <point x="360" y="153" type="qcurve"/>
      <point x="360" y="498" type="line"/>
      <point x="417" y="510" type="line"/>
      <point x="417" y="69" type="line"/>
      <point x="420" y="41"/>
    </contour>
  </outline>
</glyph>
<glyph name="cedilla" format="1">
  <advance width="249"/>
  <unicode hex="00B8"/>
  <outline>
    <contour>
      <point x="76" y="-191" type="qcurve"/>
      <point x="100" y="-138" type="line"/>
      <point x="137" y="-163"/>
      <point x="170" y="-163" type="qcurve"/>
      <point x="240" y="-163"/>
      <point x="240" y="-121" type="qcurve"/>
      <point x="240" y="-99"/>
      <point x="220" y="-89" type="qcurve"/>
      <point x="211" y="-85"/>
      <point x="183" y="-85"/>
      <point x="163" y="-92" type="qcurve"/>
      <point x="129" y="-106" type="line"/>
      <point x="112" y="-78" type="line"/>
      <point x="173" y="0" type="line"/>
      <point x="215" y="0" type="line"/>
      <point x="175" y="-53" type="line"/>
      <point x="184" y="-47"/>
      <point x="245" y="-47"/>
      <point x="292" y="-86"/>
      <point x="292" y="-169"/>
      <point x="218" y="-210"/>
      <point x="128" y="-210"/>
    </contour>
  </outline>
</glyph>
<glyph name="guillemotright" format="1">
  <advance width="512"/>
  <unicode hex="00BB"/>
  <outline>
    <contour>
      <point x="260" y="80" type="line"/>
      <point x="225" y="114" type="line"/>
      <point x="373" y="267" type="line"/>
      <point x="223" y="417" type="line"/>
      <point x="260" y="455" type="line"/>
      <point x="447" y="268" type="line"/>
      <point x="447" y="267" type="line"/>
    </contour>
    <contour>
      <point x="40" y="80" type="line"/>
      <point x="5" y="114" type="line"/>
      <point x="153" y="267" type="line"/>
      <point x="3" y="417" type="line"/>
      <point x="40" y="455" type="line"/>
      <point x="227" y="268" type="line"/>
      <point x="227" y="267" type="line"/>
    </contour>
  </outline>
</glyph>
<glyph name="questiondown" format="1">
  <advance width="466"/>
  <unicode hex="00BF"/>
  <outline>
    <contour>
      <point x="377" y="177" type="qcurve"/>
      <point x="433" y="177" type="line"/>
      <point x="433" y="102"/>
      <point x="340" y="0"/>
      <point x="255" y="0" type="qcurve"/>
      <point x="203" y="0"/>
      <point x="161" y="26" type="qcurve"/>
      <point x="79" y="78"/>
      <point x="79" y="172" type="qcurve"/>
      <point x="79" y="234"/>
      <point x="116" y="288" type="qcurve"/>
      <point x="135" y="315"/>
      <point x="189" y="370"/>
      <point x="218" y="402"/>
      <point x="241" y="473"/>
      <point x="242" y="527" type="qcurve"/>
      <point x="242" y="590" type="line"/>
      <point x="293" y="590" type="line"/>
      <point x="293" y="497" type="line"/>
      <point x="293" y="451"/>
      <point x="266" y="378"/>
      <point x="234" y="339"/>
      <point x="183" y="286"/>
      <point x="171" y="269" type="qcurve"/>
      <point x="138" y="218"/>
      <point x="138" y="174" type="qcurve"/>
      <point x="138" y="121"/>
      <point x="209" y="53"/>
      <point x="306" y="53"/>
      <point x="377" y="116"/>
    </contour>
    <contour>
      <point x="291" y="652" type="qcurve"/>
      <point x="282" y="643"/>
      <point x="254" y="643"/>
      <point x="235" y="662"/>
      <point x="235" y="690"/>
      <point x="254" y="709"/>
      <point x="282" y="709"/>
      <point x="301" y="690"/>
      <point x="301" y="662"/>
    </contour>
  </outline>
</glyph>
<glyph name="Agrave" format="1">
  <advance width="527"/>
  <unicode hex="00C0"/>
  <outline>
    <contour>
      <point x="517" y="0" type="line"/>
      <point x="457" y="0" type="line"/>
      <point x="377" y="245" type="line"/>
      <point x="149" y="245" type="line"/>
      <point x="71" y="0" type="line"/>
      <point x="12" y="0" type="line"/>
      <point x="236" y="700" type="line"/>
      <point x="289" y="700" type="line"/>
    </contour>
    <contour>
      <point x="362" y="300" type="line"/>
      <point x="262" y="613" type="line"/>
      <point x="165" y="300" type="line"/>
    </contour>
    <contour>
      <point x="274" y="733" type="line"/>
      <point x="230" y="733" type="line"/>
      <point x="161" y="825" type="line"/>
      <point x="156" y="831"/>
      <point x="156" y="838" type="qcurve"/>
      <point x="156" y="865"/>
      <point x="178" y="872" type="qcurve"/>
      <point x="185" y="874"/>
      <point x="191" y="874" type="qcurve"/>
      <point x="212" y="874"/>
      <point x="223" y="851" type="qcurve"/>
    </contour>
  </outline>
</glyph>
<glyph name="Aacute" format="1">
  <advance width="527"/>
  <unicode hex="00C1"/>
  <outline>
    <contour>
      <point x="517" y="0" type="line"/>
      <point x="457" y="0" type="line"/>
      <point x="377" y="245" type="line"/>
      <point x="149" y="245" type="line"/>
      <point x="71" y="0" type="line"/>
      <point x="12" y="0" type="line"/>
      <point x="236" y="700" type="line"/>
      <point x="289" y="700" type="line"/>
    </contour>
    <contour>
      <point x="362" y="300" type="line"/>
      <point x="262" y="613" type="line"/>
      <point x="165" y="300" type="line"/>
    </contour>
    <contour>
      <point x="286" y="731" type="line"/>
      <point x="242" y="731" type="line"/>
      <point x="293" y="849" type="line"/>
      <point x="304" y="872"/>
      <point x="325" y="872" type="qcurve"/>
      <point x="352" y="872"/>
      <point x="358" y="849" type="qcurve"/>
      <point x="360" y="843"/>
      <point x="360" y="829"/>
      <point x="355" y="823" type="qcurve"/>
    </contour>
  </outline>
</glyph>
<glyph name="Acircumflex" format="1">
  <advance width="527"/>
  <unicode hex="00C2"/>
  <outline>
    <contour>
      <point x="517" y="0" type="line"/>
      <point x="457" y="0" type="line"/>
      <point x="377" y="245" type="line"/>
      <point x="149" y="245" type="line"/>
      <point x="71" y="0" type="line"/>
      <point x="12" y="0" type="line"/>
      <point x="236" y="700" type="line"/>
      <point x="289" y="700" type="line"/>
    </contour>
    <contour>
      <point x="362" y="300" type="line"/>
      <point x="262" y="613" type="line"/>
      <point x="165" y="300" type="line"/>
    </contour>
    <contour>
      <point x="370" y="733" type="line"/>
      <point x="265" y="837" type="line"/>
      <point x="156" y="733" type="line"/>
      <point x="118" y="772" type="line"/>
      <point x="266" y="913" type="line"/>
      <point x="408" y="772" type="line"/>
    </contour>
  </outline>
</glyph>
<glyph name="Atilde" format="1">
  <advance width="527"/>
  <unicode hex="00C3"/>
  <outline>
    <contour>
      <point x="517" y="0" type="line"/>
      <point x="457" y="0" type="line"/>
      <point x="377" y="245" type="line"/>
      <point x="149" y="245" type="line"/>
      <point x="71" y="0" type="line"/>
      <point x="12" y="0" type="line"/>
      <point x="236" y="700" type="line"/>
      <point x="289" y="700" type="line"/>
    </contour>
    <contour>
      <point x="362" y="300" type="line"/>
      <point x="262" y="613" type="line"/>
      <point x="165" y="300" type="line"/>
    </contour>
    <contour>
      <point x="335" y="785" type="qcurve"/>
      <point x="374" y="785"/>
      <point x="405" y="820" type="qcurve"/>
      <point x="430" y="781" type="line"/>
      <point x="385" y="728"/>
      <point x="334" y="728" type="qcurve"/>
      <point x="316" y="728"/>
      <point x="271" y="747"/>
      <point x="221" y="770"/>
      <point x="196" y="770" type="qcurve"/>
      <point x="155" y="770"/>
      <point x="121" y="734" type="qcurve"/>
      <point x="96" y="773" type="line"/>
      <point x="143" y="826"/>
      <point x="196" y="826" type="qcurve"/>
      <point x="214" y="826"/>
      <point x="259" y="808"/>
      <point x="310" y="785"/>
    </contour>
  </outline>
</glyph>
<glyph name="Adieresis" format="1">
  <advance width="527"/>
  <unicode hex="00C4"/>
  <outline>
    <contour>
      <point x="517" y="0" type="line"/>
      <point x="457" y="0" type="line"/>
      <point x="377" y="245" type="line"/>
      <point x="149" y="245" type="line"/>
      <point x="71" y="0" type="line"/>
      <point x="12" y="0" type="line"/>
      <point x="236" y="700" type="line"/>
      <point x="289" y="700" type="line"/>
    </contour>
    <contour>
      <point x="362" y="300" type="line"/>
      <point x="262" y="613" type="line"/>
      <point x="165" y="300" type="line"/>
    </contour>
    <contour>
      <point x="207" y="740" type="qcurve"/>
      <point x="198" y="731"/>
      <point x="170" y="731"/>
      <point x="151" y="750"/>
      <point x="151" y="778"/>
      <point x="170" y="797"/>
      <point x="198" y="797"/>
      <point x="217" y="778"/>
      <point x="217" y="750"/>
    </contour>
    <contour>
      <point x="363" y="740" type="qcurve"/>
      <point x="354" y="731"/>
      <point x="326" y="731"/>
      <point x="307" y="750"/>
      <point x="307" y="778"/>
      <point x="326" y="797"/>
      <point x="354" y="797"/>
      <point x="373" y="778"/>
      <point x="373" y="750"/>
    </contour>
  </outline>
</glyph>
<glyph name="Aring" format="1">
  <advance width="527"/>
  <unicode hex="00C5"/>
  <outline>
    <contour>
      <point x="517" y="0" type="line"/>
      <point x="457" y="0" type="line"/>
      <point x="377" y="245" type="line"/>
      <point x="149" y="245" type="line"/>
      <point x="71" y="0" type="line"/>
      <point x="12" y="0" type="line"/>
      <point x="224" y="664" type="line"/>
      <point x="191" y="676"/>
      <point x="150" y="734"/>
      <point x="150" y="816"/>
      <point x="216" y="883"/>
      <point x="310" y="883"/>
      <point x="376" y="816"/>
      <point x="376" y="734"/>
      <point x="334" y="675"/>
      <point x="301" y="664" type="qcurve"/>
    </contour>
    <contour>
      <point x="362" y="300" type="line"/>
      <point x="262" y="613" type="line"/>
      <point x="165" y="300" type="line"/>
    </contour>
    <contour>
      <point x="311" y="722" type="qcurve"/>
      <point x="331" y="742"/>
      <point x="331" y="798"/>
      <point x="292" y="838"/>
      <point x="234" y="838"/>
      <point x="195" y="798"/>
      <point x="195" y="742"/>
      <point x="234" y="702"/>
      <point x="292" y="702"/>
    </contour>
  </outline>
</glyph>
<glyph name="AE" format="1">
  <advance width="812"/>
  <unicode hex="00C6"/>
  <outline>
    <contour>
      <point x="777" y="0" type="line"/>
      <point x="444" y="0" type="line"/>
      <point x="445" y="245" type="line"/>
      <point x="265" y="245" type="line"/>
      <point x="137" y="0" type="line"/>
      <point x="78" y="0" type="line"/>
      <point x="444" y="700" type="line"/>
      <point x="779" y="700" type="line"/>
      <point x="779" y="648" type="line"/>
      <point x="501" y="648" type="line"/>
      <point x="501" y="413" type="line"/>
      <point x="692" y="413" type="line"/>
      <point x="673" y="358" type="line"/>
      <point x="501" y="358" type="line"/>
      <point x="501" y="50" type="line"/>
      <point x="777" y="50" type="line"/>
    </contour>
    <contour>
      <point x="445" y="300" type="line"/>
      <point x="445" y="590" type="line"/>
      <point x="293" y="300" type="line"/>
    </contour>
  </outline>
</glyph>
<glyph name="Ccedilla" format="1">
  <advance width="436"/>
  <unicode hex="00C7"/>
  <outline>
    <contour>
      <point x="415" y="70" type="qcurve"/>
      <point x="427" y="23" type="line"/>
      <point x="345" y="-8"/>
      <point x="266" y="-10" type="qcurve"/>
      <point x="234" y="-53" type="line"/>
      <point x="243" y="-47"/>
      <point x="304" y="-47"/>
      <point x="351" y="-86"/>
      <point x="351" y="-169"/>
      <point x="277" y="-210"/>
      <point x="187" y="-210"/>
      <point x="135" y="-191" type="qcurve"/>
      <point x="159" y="-138" type="line"/>
      <point x="196" y="-163"/>
      <point x="228" y="-163" type="qcurve"/>
      <point x="299" y="-163"/>
      <point x="299" y="-121" type="qcurve"/>
      <point x="299" y="-99"/>
      <point x="278" y="-89" type="qcurve"/>
      <point x="270" y="-85"/>
      <point x="242" y="-85"/>
      <point x="222" y="-92" type="qcurve"/>
      <point x="188" y="-106" type="line"/>
      <point x="171" y="-78" type="line"/>
      <point x="225" y="-8" type="line"/>
      <point x="153" y="0"/>
      <point x="66" y="92"/>
      <point x="66" y="183" type="qcurve"/>
      <point x="66" y="504" type="line"/>
      <point x="66" y="580"/>
      <point x="109" y="658"/>
      <point x="153" y="685" type="qcurve"/>
      <point x="198" y="710"/>
      <point x="260" y="710" type="qcurve"/>
      <point x="337" y="710"/>
      <point x="402" y="677" type="qcurve"/>
      <point x="386" y="639" type="line"/>
      <point x="329" y="660"/>
      <point x="278" y="660" type="qcurve"/>
      <point x="122" y="660"/>
      <point x="122" y="513" type="qcurve"/>
      <point x="122" y="185" type="line"/>
      <point x="122" y="54"/>
      <point x="249" y="42" type="qcurve"/>
      <point x="259" y="40"/>
      <point x="270" y="40" type="qcurve"/>
      <point x="330" y="40"/>
    </contour>
  </outline>
</glyph>
<glyph name="Egrave" format="1">
  <advance width="465"/>
  <unicode hex="00C8"/>
  <outline>
    <contour>
      <point x="410" y="0" type="line"/>
      <point x="78" y="0" type="line"/>
      <point x="78" y="700" type="line"/>
      <point x="412" y="700" type="line"/>
      <point x="412" y="648" type="line"/>
      <point x="134" y="648" type="line"/>
      <point x="134" y="413" type="line"/>
      <point x="325" y="413" type="line"/>
      <point x="306" y="358" type="line"/>
      <point x="134" y="358" type="line"/>
      <point x="134" y="50" type="line"/>
      <point x="410" y="50" type="line"/>
    </contour>
    <contour>
      <point x="268" y="732" type="line"/>
      <point x="224" y="732" type="line"/>
      <point x="155" y="824" type="line"/>
      <point x="150" y="830"/>
      <point x="150" y="837" type="qcurve"/>
      <point x="150" y="864"/>
      <point x="172" y="871" type="qcurve"/>
      <point x="179" y="873"/>
      <point x="185" y="873" type="qcurve"/>
      <point x="206" y="873"/>
      <point x="217" y="850" type="qcurve"/>
    </contour>
  </outline>
</glyph>
<glyph name="Eacute" format="1">
  <advance width="465"/>
  <unicode hex="00C9"/>
  <outline>
    <contour>
      <point x="410" y="0" type="line"/>
      <point x="78" y="0" type="line"/>
      <point x="78" y="700" type="line"/>
      <point x="412" y="700" type="line"/>
      <point x="412" y="648" type="line"/>
      <point x="134" y="648" type="line"/>
      <point x="134" y="413" type="line"/>
      <point x="325" y="413" type="line"/>
      <point x="306" y="358" type="line"/>
      <point x="134" y="358" type="line"/>
      <point x="134" y="50" type="line"/>
      <point x="410" y="50" type="line"/>
    </contour>
    <contour>
      <point x="281" y="730" type="line"/>
      <point x="237" y="730" type="line"/>
      <point x="288" y="848" type="line"/>
      <point x="299" y="871"/>
      <point x="320" y="871" type="qcurve"/>
      <point x="347" y="871"/>
      <point x="354" y="848" type="qcurve"/>
      <point x="355" y="842"/>
      <point x="355" y="828"/>
      <point x="350" y="822" type="qcurve"/>
    </contour>
  </outline>
</glyph>
<glyph name="Ecircumflex" format="1">
  <advance width="465"/>
  <unicode hex="00CA"/>
  <outline>
    <contour>
      <point x="410" y="0" type="line"/>
      <point x="78" y="0" type="line"/>
      <point x="78" y="700" type="line"/>
      <point x="412" y="700" type="line"/>
      <point x="412" y="648" type="line"/>
      <point x="134" y="648" type="line"/>
      <point x="134" y="413" type="line"/>
      <point x="325" y="413" type="line"/>
      <point x="306" y="358" type="line"/>
      <point x="134" y="358" type="line"/>
      <point x="134" y="50" type="line"/>
      <point x="410" y="50" type="line"/>
    </contour>
    <contour>
      <point x="353" y="733" type="line"/>
      <point x="248" y="837" type="line"/>
      <point x="139" y="733" type="line"/>
      <point x="101" y="772" type="line"/>
      <point x="249" y="913" type="line"/>
      <point x="391" y="772" type="line"/>
    </contour>
  </outline>
</glyph>
<glyph name="Edieresis" format="1">
  <advance width="465"/>
  <unicode hex="00CB"/>
  <outline>
    <contour>
      <point x="410" y="0" type="line"/>
      <point x="78" y="0" type="line"/>
      <point x="78" y="700" type="line"/>
      <point x="412" y="700" type="line"/>
      <point x="412" y="648" type="line"/>
      <point x="134" y="648" type="line"/>
      <point x="134" y="413" type="line"/>
      <point x="325" y="413" type="line"/>
      <point x="306" y="358" type="line"/>
      <point x="134" y="358" type="line"/>
      <point x="134" y="50" type="line"/>
      <point x="410" y="50" type="line"/>
    </contour>
    <contour>
      <point x="187" y="740" type="qcurve"/>
      <point x="178" y="731"/>
      <point x="150" y="731"/>
      <point x="131" y="750"/>
      <point x="131" y="778"/>
      <point x="150" y="797"/>
      <point x="178" y="797"/>
      <point x="197" y="778"/>
      <point x="197" y="750"/>
    </contour>
    <contour>
      <point x="343" y="740" type="qcurve"/>
      <point x="334" y="731"/>
      <point x="306" y="731"/>
      <point x="287" y="750"/>
      <point x="287" y="778"/>
      <point x="306" y="797"/>
      <point x="334" y="797"/>
      <point x="353" y="778"/>
      <point x="353" y="750"/>
    </contour>
  </outline>
</glyph>
<glyph name="Igrave" format="1">
  <advance width="290"/>
  <unicode hex="00CC"/>
  <outline>
    <contour>
      <point x="210" y="0" type="line"/>
      <point x="154" y="0" type="line"/>
      <point x="154" y="649" type="line"/>
      <point x="87" y="651" type="line"/>
      <point x="87" y="700" type="line"/>
      <point x="210" y="700" type="line"/>
    </contour>
    <contour>
      <point x="196" y="732" type="line"/>
      <point x="152" y="732" type="line"/>
      <point x="83" y="824" type="line"/>
      <point x="78" y="830"/>
      <point x="78" y="837" type="qcurve"/>
      <point x="78" y="864"/>
      <point x="100" y="871" type="qcurve"/>
      <point x="107" y="873"/>
      <point x="113" y="873" type="qcurve"/>
      <point x="134" y="873"/>
      <point x="145" y="850" type="qcurve"/>
    </contour>
  </outline>
</glyph>
<glyph name="Iacute" format="1">
  <advance width="350"/>
  <unicode hex="00CD"/>
  <outline>
    <contour>
      <point x="201" y="0" type="line"/>
      <point x="145" y="0" type="line"/>
      <point x="145" y="649" type="line"/>
      <point x="78" y="651" type="line"/>
      <point x="78" y="700" type="line"/>
      <point x="201" y="700" type="line"/>
    </contour>
    <contour>
      <point x="196" y="730" type="line"/>
      <point x="152" y="730" type="line"/>
      <point x="203" y="848" type="line"/>
      <point x="214" y="871"/>
      <point x="235" y="871" type="qcurve"/>
      <point x="262" y="871"/>
      <point x="268" y="848" type="qcurve"/>
      <point x="270" y="842"/>
      <point x="270" y="828"/>
      <point x="265" y="822" type="qcurve"/>
    </contour>
  </outline>
</glyph>
<glyph name="Icircumflex" format="1">
  <advance width="448"/>
  <unicode hex="00CE"/>
  <outline>
    <contour>
      <point x="263" y="0" type="line"/>
      <point x="207" y="0" type="line"/>
      <point x="207" y="649" type="line"/>
      <point x="140" y="651" type="line"/>
      <point x="140" y="700" type="line"/>
      <point x="263" y="700" type="line"/>
    </contour>
    <contour>
      <point x="330" y="733" type="line"/>
      <point x="225" y="837" type="line"/>
      <point x="116" y="733" type="line"/>
      <point x="78" y="772" type="line"/>
      <point x="226" y="913" type="line"/>
      <point x="368" y="772" type="line"/>
    </contour>
  </outline>
</glyph>
<glyph name="Idieresis" format="1">
  <advance width="380"/>
  <unicode hex="00CF"/>
  <outline>
    <contour>
      <point x="226" y="0" type="line"/>
      <point x="170" y="0" type="line"/>
      <point x="170" y="649" type="line"/>
      <point x="103" y="651" type="line"/>
      <point x="103" y="700" type="line"/>
      <point x="226" y="700" type="line"/>
    </contour>
    <contour>
      <point x="134" y="738" type="qcurve"/>
      <point x="124" y="729"/>
      <point x="98" y="729"/>
      <point x="78" y="748"/>
      <point x="78" y="776"/>
      <point x="98" y="795"/>
      <point x="124" y="795"/>
      <point x="144" y="776"/>
      <point x="144" y="748"/>
    </contour>
    <contour>
      <point x="290" y="738" type="qcurve"/>
      <point x="280" y="729"/>
      <point x="254" y="729"/>
      <point x="234" y="748"/>
      <point x="234" y="776"/>
      <point x="254" y="795"/>
      <point x="280" y="795"/>
      <point x="300" y="776"/>
      <point x="300" y="748"/>
    </contour>
  </outline>
</glyph>
<glyph name="Eth" format="1">
  <advance width="638"/>
  <unicode hex="00D0"/>
  <outline>
    <contour>
      <point x="335" y="0" type="qcurve"/>
      <point x="127" y="0" type="line"/>
      <point x="127" y="483" type="line"/>
      <point x="78" y="483" type="line"/>
      <point x="78" y="538" type="line"/>
      <point x="127" y="538" type="line"/>
      <point x="127" y="701" type="line"/>
      <point x="315" y="701" type="line"/>
      <point x="408" y="701"/>
      <point x="523" y="613"/>
      <point x="540" y="538" type="qcurve"/>
      <point x="605" y="538" type="line"/>
      <point x="605" y="483" type="line"/>
      <point x="547" y="483" type="line"/>
      <point x="547" y="200" type="line"/>
      <point x="547" y="0"/>
    </contour>
    <contour>
      <point x="491" y="190" type="qcurve"/>
      <point x="491" y="483" type="line"/>
      <point x="183" y="483" type="line"/>
      <point x="183" y="50" type="line"/>
      <point x="319" y="50" type="line"/>
      <point x="491" y="50"/>
    </contour>
    <contour>
      <point x="325" y="650" type="qcurve"/>
      <point x="183" y="650" type="line"/>
      <point x="183" y="538" type="line"/>
      <point x="484" y="538" type="line"/>
      <point x="468" y="594"/>
      <point x="377" y="650"/>
    </contour>
  </outline>
</glyph>
<glyph name="Ntilde" format="1">
  <advance width="650"/>
  <unicode hex="00D1"/>
  <outline>
    <contour>
      <point x="570" y="0" type="line"/>
      <point x="514" y="0" type="line"/>
      <point x="134" y="597" type="line"/>
      <point x="134" y="0" type="line"/>
      <point x="78" y="0" type="line"/>
      <point x="78" y="700" type="line"/>
      <point x="134" y="700" type="line"/>
      <point x="514" y="103" type="line"/>
      <point x="514" y="700" type="line"/>
      <point x="570" y="700" type="line"/>
    </contour>
    <contour>
      <point x="397" y="785" type="qcurve"/>
      <point x="436" y="785"/>
      <point x="467" y="820" type="qcurve"/>
      <point x="492" y="781" type="line"/>
      <point x="447" y="728"/>
      <point x="396" y="728" type="qcurve"/>
      <point x="378" y="728"/>
      <point x="333" y="747"/>
      <point x="283" y="770"/>
      <point x="258" y="770" type="qcurve"/>
      <point x="217" y="770"/>
      <point x="183" y="734" type="qcurve"/>
      <point x="158" y="773" type="line"/>
      <point x="205" y="826"/>
      <point x="258" y="826" type="qcurve"/>
      <point x="276" y="826"/>
      <point x="321" y="808"/>
      <point x="372" y="785"/>
    </contour>
  </outline>
</glyph>
<glyph name="Oacute" format="1">
  <advance width="549"/>
  <unicode hex="00D3"/>
  <outline>
    <contour>
      <point x="483" y="506" type="qcurve"/>
      <point x="483" y="185" type="line"/>
      <point x="483" y="84"/>
      <point x="360" y="-11"/>
      <point x="188" y="-11"/>
      <point x="63" y="84"/>
      <point x="63" y="185" type="qcurve"/>
      <point x="63" y="507" type="line"/>
      <point x="63" y="610"/>
      <point x="176" y="716"/>
      <point x="374" y="716"/>
      <point x="483" y="604"/>
    </contour>
    <contour>
      <point x="428" y="187" type="qcurve"/>
      <point x="428" y="516" type="line"/>
      <point x="428" y="589"/>
      <point x="343" y="663"/>
      <point x="203" y="663"/>
      <point x="119" y="589"/>
      <point x="119" y="516" type="qcurve"/>
      <point x="119" y="186" type="line"/>
      <point x="119" y="115"/>
      <point x="206" y="42"/>
      <point x="341" y="42"/>
      <point x="428" y="113"/>
    </contour>
    <contour>
      <point x="301" y="730" type="line"/>
      <point x="257" y="730" type="line"/>
      <point x="308" y="848" type="line"/>
      <point x="319" y="871"/>
      <point x="340" y="871" type="qcurve"/>
      <point x="367" y="871"/>
      <point x="374" y="848" type="qcurve"/>
      <point x="375" y="842"/>
      <point x="375" y="828"/>
      <point x="370" y="822" type="qcurve"/>
    </contour>
  </outline>
</glyph>
<glyph name="Otilde" format="1">
  <advance width="549"/>
  <unicode hex="00D5"/>
  <outline>
    <contour>
      <point x="483" y="506" type="qcurve"/>
      <point x="483" y="185" type="line"/>
      <point x="483" y="84"/>
      <point x="360" y="-11"/>
      <point x="188" y="-11"/>
      <point x="63" y="84"/>
      <point x="63" y="185" type="qcurve"/>
      <point x="63" y="507" type="line"/>
      <point x="63" y="610"/>
      <point x="176" y="716"/>
      <point x="374" y="716"/>
      <point x="483" y="604"/>
    </contour>
    <contour>
      <point x="428" y="187" type="qcurve"/>
      <point x="428" y="516" type="line"/>
      <point x="428" y="589"/>
      <point x="343" y="663"/>
      <point x="203" y="663"/>
      <point x="119" y="589"/>
      <point x="119" y="516" type="qcurve"/>
      <point x="119" y="186" type="line"/>
      <point x="119" y="115"/>
      <point x="206" y="42"/>
      <point x="341" y="42"/>
      <point x="428" y="113"/>
    </contour>
    <contour>
      <point x="350" y="785" type="qcurve"/>
      <point x="389" y="785"/>
      <point x="420" y="820" type="qcurve"/>
      <point x="445" y="781" type="line"/>
      <point x="400" y="728"/>
      <point x="349" y="728" type="qcurve"/>
      <point x="331" y="728"/>
      <point x="286" y="747"/>
      <point x="236" y="770"/>
      <point x="211" y="770" type="qcurve"/>
      <point x="170" y="770"/>
      <point x="136" y="734" type="qcurve"/>
      <point x="111" y="773" type="line"/>
      <point x="158" y="826"/>
      <point x="211" y="826" type="qcurve"/>
      <point x="229" y="826"/>
      <point x="274" y="808"/>
      <point x="325" y="785"/>
    </contour>
  </outline>
</glyph>
<glyph name="Odieresis" format="1">
  <advance width="549"/>
  <unicode hex="00D6"/>
  <outline>
    <contour>
      <point x="483" y="506" type="qcurve"/>
      <point x="483" y="185" type="line"/>
      <point x="483" y="84"/>
      <point x="360" y="-11"/>
      <point x="188" y="-11"/>
      <point x="63" y="84"/>
      <point x="63" y="185" type="qcurve"/>
      <point x="63" y="507" type="line"/>
      <point x="63" y="610"/>
      <point x="176" y="716"/>
      <point x="374" y="716"/>
      <point x="483" y="604"/>
    </contour>
    <contour>
      <point x="428" y="187" type="qcurve"/>
      <point x="428" y="516" type="line"/>
      <point x="428" y="589"/>
      <point x="343" y="663"/>
      <point x="203" y="663"/>
      <point x="119" y="589"/>
      <point x="119" y="516" type="qcurve"/>
      <point x="119" y="186" type="line"/>
      <point x="119" y="115"/>
      <point x="206" y="42"/>
      <point x="341" y="42"/>
      <point x="428" y="113"/>
    </contour>
    <contour>
      <point x="216" y="740" type="qcurve"/>
      <point x="206" y="731"/>
      <point x="180" y="731"/>
      <point x="160" y="750"/>
      <point x="160" y="778"/>
      <point x="180" y="797"/>
      <point x="206" y="797"/>
      <point x="226" y="778"/>
      <point x="226" y="750"/>
    </contour>
    <contour>
      <point x="372" y="740" type="qcurve"/>
      <point x="362" y="731"/>
      <point x="336" y="731"/>
      <point x="316" y="750"/>
      <point x="316" y="778"/>
      <point x="336" y="797"/>
      <point x="362" y="797"/>
      <point x="382" y="778"/>
      <point x="382" y="750"/>
    </contour>
  </outline>
</glyph>
<glyph name="multiply" format="1">
  <advance width="395"/>
  <unicode hex="00D7"/>
  <outline>
    <contour>
      <point x="362" y="205" type="line"/>
      <point x="320" y="168" type="line"/>
      <point x="220" y="290" type="line"/>
      <point x="120" y="168" type="line"/>
      <point x="78" y="205" type="line"/>
      <point x="184" y="333" type="line"/>
      <point x="78" y="462" type="line"/>
      <point x="119" y="497" type="line"/>
      <point x="220" y="375" type="line"/>
      <point x="321" y="497" type="line"/>
      <point x="362" y="462" type="line"/>
      <point x="255" y="333" type="line"/>
    </contour>
  </outline>
</glyph>
<glyph name="Oslash" format="1">
  <advance width="531"/>
  <unicode hex="00D8"/>
  <outline>
    <contour>
      <point x="161" y="-114" type="line"/>
      <point x="100" y="-114" type="line"/>
      <point x="150" y="29" type="line"/>
      <point x="78" y="82"/>
      <point x="78" y="185" type="qcurve"/>
      <point x="78" y="507" type="line"/>
      <point x="78" y="610"/>
      <point x="191" y="716"/>
      <point x="290" y="716" type="qcurve"/>
      <point x="340" y="716"/>
      <point x="383" y="700" type="qcurve"/>
      <point x="424" y="817" type="line"/>
      <point x="481" y="817" type="line"/>
      <point x="431" y="671" type="line"/>
      <point x="498" y="616"/>
      <point x="498" y="506" type="qcurve"/>
      <point x="498" y="185" type="line"/>
      <point x="498" y="84"/>
      <point x="375" y="-11"/>
      <point x="289" y="-11" type="qcurve"/>
      <point x="240" y="-11"/>
      <point x="201" y="3" type="qcurve"/>
    </contour>
    <contour>
      <point x="169" y="86" type="qcurve"/>
      <point x="365" y="648" type="line"/>
      <point x="332" y="663"/>
      <point x="288" y="663" type="qcurve"/>
      <point x="218" y="663"/>
      <point x="134" y="589"/>
      <point x="134" y="516" type="qcurve"/>
      <point x="134" y="186" type="line"/>
      <point x="134" y="123"/>
    </contour>
    <contour>
      <point x="443" y="187" type="qcurve"/>
      <point x="443" y="516" type="line"/>
      <point x="443" y="577"/>
      <point x="411" y="614" type="qcurve"/>
      <point x="218" y="54" type="line"/>
      <point x="249" y="42"/>
      <point x="288" y="42" type="qcurve"/>
      <point x="356" y="42"/>
      <point x="443" y="113"/>
    </contour>
  </outline>
</glyph>
<glyph name="Ugrave" format="1">
  <advance width="566"/>
  <unicode hex="00D9"/>
  <outline>
    <contour>
      <point x="439" y="178" type="qcurve"/>
      <point x="439" y="701" type="line"/>
      <point x="495" y="701" type="line"/>
      <point x="495" y="186" type="line"/>
      <point x="495" y="133"/>
      <point x="458" y="55"/>
      <point x="395" y="13"/>
      <point x="325" y="-7"/>
      <point x="245" y="-7"/>
      <point x="174" y="13"/>
      <point x="111" y="55"/>
      <point x="74" y="133"/>
      <point x="74" y="186" type="qcurve"/>
      <point x="74" y="701" type="line"/>
      <point x="130" y="701" type="line"/>
      <point x="130" y="178" type="line"/>
      <point x="130" y="117"/>
      <point x="219" y="43"/>
      <point x="349" y="43"/>
      <point x="439" y="117"/>
    </contour>
    <contour>
      <point x="306" y="732" type="line"/>
      <point x="262" y="732" type="line"/>
      <point x="193" y="824" type="line"/>
      <point x="188" y="830"/>
      <point x="188" y="837" type="qcurve"/>
      <point x="188" y="864"/>
      <point x="210" y="871" type="qcurve"/>
      <point x="217" y="873"/>
      <point x="223" y="873" type="qcurve"/>
      <point x="244" y="873"/>
      <point x="255" y="850" type="qcurve"/>
    </contour>
  </outline>
</glyph>
<glyph name="Uacute" format="1">
  <advance width="566"/>
  <unicode hex="00DA"/>
  <outline>
    <contour>
      <point x="439" y="178" type="qcurve"/>
      <point x="439" y="701" type="line"/>
      <point x="495" y="701" type="line"/>
      <point x="495" y="186" type="line"/>
      <point x="495" y="133"/>
      <point x="458" y="55"/>
      <point x="395" y="13"/>
      <point x="325" y="-7"/>
      <point x="245" y="-7"/>
      <point x="174" y="13"/>
      <point x="111" y="55"/>
      <point x="74" y="133"/>
      <point x="74" y="186" type="qcurve"/>
      <point x="74" y="701" type="line"/>
      <point x="130" y="701" type="line"/>
      <point x="130" y="178" type="line"/>
      <point x="130" y="117"/>
      <point x="219" y="43"/>
      <point x="349" y="43"/>
      <point x="439" y="117"/>
    </contour>
    <contour>
      <point x="306" y="731" type="line"/>
      <point x="262" y="731" type="line"/>
      <point x="313" y="849" type="line"/>
      <point x="324" y="872"/>
      <point x="345" y="872" type="qcurve"/>
      <point x="372" y="872"/>
      <point x="378" y="849" type="qcurve"/>
      <point x="380" y="843"/>
      <point x="380" y="829"/>
      <point x="375" y="823" type="qcurve"/>
    </contour>
  </outline>
</glyph>
<glyph name="Ucircumflex" format="1">
  <advance width="566"/>
  <unicode hex="00DB"/>
  <outline>
    <contour>
      <point x="439" y="178" type="qcurve"/>
      <point x="439" y="701" type="line"/>
      <point x="495" y="701" type="line"/>
      <point x="495" y="186" type="line"/>
      <point x="495" y="133"/>
      <point x="458" y="55"/>
      <point x="395" y="13"/>
      <point x="325" y="-7"/>
      <point x="245" y="-7"/>
      <point x="174" y="13"/>
      <point x="111" y="55"/>
      <point x="74" y="133"/>
      <point x="74" y="186" type="qcurve"/>
      <point x="74" y="701" type="line"/>
      <point x="130" y="701" type="line"/>
      <point x="130" y="178" type="line"/>
      <point x="130" y="117"/>
      <point x="219" y="43"/>
      <point x="349" y="43"/>
      <point x="439" y="117"/>
    </contour>
    <contour>
      <point x="393" y="733" type="line"/>
      <point x="288" y="837" type="line"/>
      <point x="179" y="733" type="line"/>
      <point x="141" y="772" type="line"/>
      <point x="289" y="913" type="line"/>
      <point x="431" y="772" type="line"/>
    </contour>
  </outline>
</glyph>
<glyph name="Udieresis" format="1">
  <advance width="566"/>
  <unicode hex="00DC"/>
  <outline>
    <contour>
      <point x="439" y="178" type="qcurve"/>
      <point x="439" y="701" type="line"/>
      <point x="495" y="701" type="line"/>
      <point x="495" y="186" type="line"/>
      <point x="495" y="133"/>
      <point x="458" y="55"/>
      <point x="395" y="13"/>
      <point x="325" y="-7"/>
      <point x="245" y="-7"/>
      <point x="174" y="13"/>
      <point x="111" y="55"/>
      <point x="74" y="133"/>
      <point x="74" y="186" type="qcurve"/>
      <point x="74" y="701" type="line"/>
      <point x="130" y="701" type="line"/>
      <point x="130" y="178" type="line"/>
      <point x="130" y="117"/>
      <point x="219" y="43"/>
      <point x="349" y="43"/>
      <point x="439" y="117"/>
    </contour>
    <contour>
      <point x="228" y="740" type="qcurve"/>
      <point x="218" y="731"/>
      <point x="192" y="731"/>
      <point x="172" y="750"/>
      <point x="172" y="778"/>
      <point x="192" y="797"/>
      <point x="218" y="797"/>
      <point x="238" y="778"/>
      <point x="238" y="750"/>
    </contour>
    <contour>
      <point x="384" y="740" type="qcurve"/>
      <point x="374" y="731"/>
      <point x="348" y="731"/>
      <point x="328" y="750"/>
      <point x="328" y="778"/>
      <point x="348" y="797"/>
      <point x="374" y="797"/>
      <point x="394" y="778"/>
      <point x="394" y="750"/>
    </contour>
  </outline>
</glyph>
<glyph name="Yacute" format="1">
  <advance width="560"/>
  <unicode hex="00DD"/>
  <outline>
    <contour>
      <point x="399" y="-7" type="qcurve"/>
      <point x="386" y="30" type="line"/>
      <point x="447" y="53"/>
      <point x="447" y="152" type="qcurve"/>
      <point x="447" y="294" type="line"/>
      <point x="420" y="270"/>
      <point x="330" y="245"/>
      <point x="289" y="245" type="qcurve"/>
      <point x="183" y="245"/>
      <point x="60" y="350"/>
      <point x="60" y="453" type="qcurve"/>
      <point x="60" y="700" type="line"/>
      <point x="116" y="700" type="line"/>
      <point x="116" y="443" type="line"/>
      <point x="116" y="373"/>
      <point x="212" y="300"/>
      <point x="348" y="300"/>
      <point x="436" y="350"/>
      <point x="447" y="400" type="qcurve"/>
      <point x="447" y="700" type="line"/>
      <point x="504" y="700" type="line"/>
      <point x="504" y="156" type="line"/>
      <point x="504" y="83"/>
      <point x="449" y="0"/>
    </contour>
    <contour>
      <point x="306" y="731" type="line"/>
      <point x="262" y="731" type="line"/>
      <point x="313" y="849" type="line"/>
      <point x="324" y="872"/>
      <point x="345" y="872" type="qcurve"/>
      <point x="372" y="872"/>
      <point x="378" y="849" type="qcurve"/>
      <point x="380" y="843"/>
      <point x="380" y="829"/>
      <point x="375" y="823" type="qcurve"/>
    </contour>
  </outline>
</glyph>
<glyph name="Thorn" format="1">
  <advance width="488"/>
  <unicode hex="00DE"/>
  <outline>
    <contour>
      <point x="134" y="0" type="line"/>
      <point x="78" y="0" type="line"/>
      <point x="78" y="700" type="line"/>
      <point x="134" y="700" type="line"/>
      <point x="134" y="455" type="line"/>
      <point x="187" y="509"/>
      <point x="358" y="509"/>
      <point x="455" y="401"/>
      <point x="455" y="221"/>
      <point x="352" y="116"/>
      <point x="269" y="116" type="qcurve"/>
      <point x="232" y="116"/>
      <point x="154" y="153"/>
      <point x="134" y="185" type="qcurve"/>
    </contour>
    <contour>
      <point x="134" y="324" type="qcurve"/>
      <point x="134" y="247"/>
      <point x="208" y="170"/>
      <point x="326" y="170"/>
      <point x="399" y="242"/>
      <point x="399" y="392"/>
      <point x="322" y="458"/>
      <point x="215" y="458"/>
      <point x="137" y="393"/>
    </contour>
  </outline>
</glyph>
<glyph name="germandbls" format="1">
  <advance width="511"/>
  <unicode hex="00DF"/>
  <outline>
    <contour>
      <point x="306" y="477" type="qcurve"/>
      <point x="276" y="477" type="line"/>
      <point x="259" y="448"/>
      <point x="287" y="395"/>
      <point x="332" y="354"/>
      <point x="347" y="341" type="qcurve"/>
      <point x="390" y="304"/>
      <point x="413" y="279" type="qcurve"/>
      <point x="477" y="211"/>
      <point x="477" y="141" type="qcurve"/>
      <point x="477" y="107"/>
      <point x="463" y="73" type="qcurve"/>
      <point x="441" y="22"/>
      <point x="385" y="2" type="qcurve"/>
      <point x="349" y="-11"/>
      <point x="320" y="-11" type="qcurve"/>
      <point x="229" y="-11"/>
      <point x="172" y="37" type="qcurve"/>
      <point x="201" y="85" type="line"/>
      <point x="243" y="44"/>
      <point x="307" y="44" type="qcurve"/>
      <point x="383" y="44"/>
      <point x="407" y="94" type="qcurve"/>
      <point x="419" y="119"/>
      <point x="419" y="144" type="qcurve"/>
      <point x="419" y="194"/>
      <point x="371" y="243" type="qcurve"/>
      <point x="335" y="279"/>
      <point x="300" y="309" type="qcurve"/>
      <point x="236" y="362"/>
      <point x="218" y="404" type="qcurve"/>
      <point x="211" y="423"/>
      <point x="211" y="477"/>
      <point x="228" y="507" type="qcurve"/>
      <point x="269" y="507"/>
      <point x="282" y="542" type="qcurve"/>
      <point x="288" y="556"/>
      <point x="288" y="591"/>
      <point x="276" y="612" type="qcurve"/>
      <point x="257" y="647"/>
      <point x="218" y="647" type="qcurve"/>
      <point x="135" y="647"/>
      <point x="135" y="541" type="qcurve"/>
      <point x="135" y="0" type="line"/>
      <point x="78" y="0" type="line"/>
      <point x="78" y="537" type="line"/>
      <point x="78" y="614"/>
      <point x="147" y="701"/>
      <point x="277" y="701"/>
      <point x="343" y="618"/>
      <point x="343" y="510"/>
    </contour>
  </outline>
</glyph>
<glyph name="atilde" format="1">
  <advance width="496"/>
  <unicode hex="00E3"/>
  <outline>
    <contour>
      <point x="297" y="-10" type="qcurve"/>
      <point x="78" y="-10"/>
      <point x="78" y="169" type="qcurve"/>
      <point x="78" y="252" type="line"/>
      <point x="78" y="351"/>
      <point x="147" y="385" type="qcurve"/>
      <point x="183" y="402"/>
      <point x="218" y="402" type="qcurve"/>
      <point x="336" y="402"/>
      <point x="407" y="346" type="qcurve"/>
      <point x="407" y="401"/>
      <point x="343" y="466"/>
      <point x="252" y="466" type="qcurve"/>
      <point x="255" y="509" type="line"/>
      <point x="336" y="509"/>
      <point x="375" y="490" type="qcurve"/>
      <point x="396" y="479"/>
      <point x="428" y="457"/>
      <point x="446" y="421"/>
      <point x="458" y="394"/>
      <point x="460" y="371" type="qcurve"/>
      <point x="463" y="336"/>
      <point x="463" y="298" type="qcurve"/>
      <point x="463" y="0" type="line"/>
      <point x="359" y="-10"/>
    </contour>
    <contour>
      <point x="407" y="46" type="qcurve"/>
      <point x="407" y="303" type="line"/>
      <point x="324" y="343"/>
      <point x="238" y="350" type="qcurve"/>
      <point x="231" y="351"/>
      <point x="225" y="351" type="qcurve"/>
      <point x="187" y="351"/>
      <point x="133" y="304"/>
      <point x="133" y="249" type="qcurve"/>
      <point x="133" y="162" type="line"/>
      <point x="133" y="79"/>
      <point x="205" y="54" type="qcurve"/>
      <point x="247" y="39"/>
      <point x="353" y="39"/>
    </contour>
    <contour>
      <point x="342" y="597" type="qcurve"/>
      <point x="381" y="597"/>
      <point x="412" y="632" type="qcurve"/>
      <point x="437" y="593" type="line"/>
      <point x="392" y="540"/>
      <point x="341" y="540" type="qcurve"/>
      <point x="323" y="540"/>
      <point x="278" y="559"/>
      <point x="228" y="582"/>
      <point x="203" y="582" type="qcurve"/>
      <point x="162" y="582"/>
      <point x="128" y="546" type="qcurve"/>
      <point x="103" y="585" type="line"/>
      <point x="150" y="638"/>
      <point x="203" y="638" type="qcurve"/>
      <point x="221" y="638"/>
      <point x="266" y="620"/>
      <point x="317" y="597"/>
    </contour>
  </outline>
</glyph>
<glyph name="aring" format="1">
  <advance width="496"/>
  <unicode hex="00E5"/>
  <outline>
    <contour>
      <point x="261" y="466" type="qcurve"/>
      <point x="252" y="466" type="line"/>
      <point x="208" y="470"/>
      <point x="148" y="535"/>
      <point x="148" y="626"/>
      <point x="214" y="692"/>
      <point x="308" y="692"/>
      <point x="374" y="626"/>
      <point x="374" y="533"/>
      <point x="341" y="500" type="qcurve"/>
      <point x="403" y="485"/>
      <point x="427" y="452" type="qcurve"/>
      <point x="440" y="434"/>
      <point x="456" y="404"/>
      <point x="459" y="379" type="qcurve"/>
      <point x="463" y="346"/>
      <point x="463" y="298" type="qcurve"/>
      <point x="463" y="0" type="line"/>
      <point x="359" y="-10"/>
      <point x="297" y="-10" type="qcurve"/>
      <point x="78" y="-10"/>
      <point x="78" y="169" type="qcurve"/>
      <point x="78" y="252" type="line"/>
      <point x="78" y="351"/>
      <point x="147" y="385" type="qcurve"/>
      <point x="183" y="402"/>
      <point x="218" y="402" type="qcurve"/>
      <point x="336" y="402"/>
      <point x="407" y="346" type="qcurve"/>
      <point x="407" y="399"/>
      <point x="347" y="464"/>
    </contour>
    <contour>
      <point x="407" y="46" type="qcurve"/>
      <point x="407" y="303" type="line"/>
      <point x="324" y="343"/>
      <point x="238" y="350" type="qcurve"/>
      <point x="231" y="351"/>
      <point x="225" y="351" type="qcurve"/>
      <point x="187" y="351"/>
      <point x="133" y="304"/>
      <point x="133" y="249" type="qcurve"/>
      <point x="133" y="162" type="line"/>
      <point x="133" y="79"/>
      <point x="205" y="54" type="qcurve"/>
      <point x="247" y="39"/>
      <point x="353" y="39"/>
    </contour>
    <contour>
      <point x="309" y="530" type="qcurve"/>
      <point x="329" y="550"/>
      <point x="329" y="608"/>
      <point x="290" y="647"/>
      <point x="232" y="647"/>
      <point x="193" y="608"/>
      <point x="193" y="550"/>
      <point x="232" y="511"/>
      <point x="290" y="511"/>
    </contour>
  </outline>
</glyph>
<glyph name="ae" format="1">
  <advance width="801"/>
  <unicode hex="00E6"/>
  <outline>
    <contour>
      <point x="575" y="37" type="qcurve"/>
      <point x="644" y="37"/>
      <point x="721" y="78" type="qcurve"/>
      <point x="743" y="35" type="line"/>
      <point x="665" y="-12"/>
      <point x="569" y="-12" type="qcurve"/>
      <point x="504" y="-12"/>
      <point x="463" y="15" type="qcurve"/>
      <point x="463" y="0" type="line"/>
      <point x="359" y="-10"/>
      <point x="297" y="-10" type="qcurve"/>
      <point x="78" y="-10"/>
      <point x="78" y="169" type="qcurve"/>
      <point x="78" y="252" type="line"/>
      <point x="78" y="351"/>
      <point x="147" y="385" type="qcurve"/>
      <point x="183" y="402"/>
      <point x="218" y="402" type="qcurve"/>
      <point x="336" y="402"/>
      <point x="407" y="346" type="qcurve"/>
      <point x="407" y="401"/>
      <point x="343" y="466"/>
      <point x="252" y="466" type="qcurve"/>
      <point x="255" y="509" type="line"/>
      <point x="391" y="509"/>
      <point x="436" y="440" type="qcurve"/>
      <point x="486" y="510"/>
      <point x="592" y="510" type="qcurve"/>
      <point x="675" y="510"/>
      <point x="768" y="421"/>
      <point x="768" y="342" type="qcurve"/>
      <point x="768" y="212" type="line"/>
      <point x="464" y="195" type="line"/>
      <point x="464" y="134" type="line"/>
      <point x="464" y="80"/>
      <point x="503" y="56" type="qcurve"/>
      <point x="533" y="37"/>
    </contour>
    <contour>
      <point x="407" y="46" type="qcurve"/>
      <point x="407" y="303" type="line"/>
      <point x="324" y="343"/>
      <point x="238" y="350" type="qcurve"/>
      <point x="231" y="351"/>
      <point x="225" y="351" type="qcurve"/>
      <point x="187" y="351"/>
      <point x="133" y="304"/>
      <point x="133" y="249" type="qcurve"/>
      <point x="133" y="162" type="line"/>
      <point x="133" y="79"/>
      <point x="205" y="54" type="qcurve"/>
      <point x="247" y="39"/>
      <point x="353" y="39"/>
    </contour>
    <contour>
      <point x="712" y="262" type="line"/>
      <point x="712" y="349" type="line"/>
      <point x="712" y="392"/>
      <point x="666" y="447"/>
      <point x="616" y="462"/>
      <point x="591" y="462" type="qcurve"/>
      <point x="536" y="462"/>
      <point x="464" y="402"/>
      <point x="464" y="338" type="qcurve"/>
      <point x="464" y="250" type="line"/>
    </contour>
  </outline>
</glyph>
<glyph name="ccedilla" format="1">
  <advance width="383"/>
  <unicode hex="00E7"/>
  <outline>
    <contour>
      <point x="246" y="38" type="qcurve"/>
      <point x="291" y="38"/>
      <point x="346" y="51" type="qcurve"/>
      <point x="358" y="6" type="line"/>
      <point x="292" y="-11"/>
      <point x="237" y="-11" type="qcurve"/>
      <point x="226" y="-11"/>
      <point x="215" y="-10" type="qcurve"/>
      <point x="182" y="-53" type="line"/>
      <point x="191" y="-47"/>
      <point x="252" y="-47"/>
      <point x="299" y="-86"/>
      <point x="299" y="-169"/>
      <point x="225" y="-210"/>
      <point x="135" y="-210"/>
      <point x="83" y="-191" type="qcurve"/>
      <point x="107" y="-138" type="line"/>
      <point x="144" y="-163"/>
      <point x="176" y="-163" type="qcurve"/>
      <point x="247" y="-163"/>
      <point x="247" y="-121" type="qcurve"/>
      <point x="247" y="-99"/>
      <point x="226" y="-89" type="qcurve"/>
      <point x="218" y="-85"/>
      <point x="190" y="-85"/>
      <point x="170" y="-92" type="qcurve"/>
      <point x="136" y="-106" type="line"/>
      <point x="119" y="-78" type="line"/>
      <point x="176" y="-5" type="line"/>
      <point x="158" y="-2"/>
      <point x="148" y="2" type="qcurve"/>
      <point x="89" y="22"/>
      <point x="36" y="105"/>
      <point x="36" y="180" type="qcurve"/>
      <point x="36" y="308" type="line"/>
      <point x="36" y="379"/>
      <point x="64" y="427" type="qcurve"/>
      <point x="112" y="510"/>
      <point x="222" y="510" type="qcurve"/>
      <point x="288" y="510"/>
      <point x="356" y="478" type="qcurve"/>
      <point x="340" y="437" type="line"/>
      <point x="283" y="459"/>
      <point x="200" y="459"/>
      <point x="136" y="439"/>
      <point x="92" y="369"/>
      <point x="92" y="314" type="qcurve"/>
      <point x="92" y="169" type="line"/>
      <point x="92" y="38"/>
    </contour>
  </outline>
</glyph>
<glyph name="eacute" format="1">
  <advance width="471"/>
  <unicode hex="00E9"/>
  <outline>
    <contour>
      <point x="245" y="37" type="qcurve"/>
      <point x="314" y="37"/>
      <point x="391" y="78" type="qcurve"/>
      <point x="413" y="35" type="line"/>
      <point x="336" y="-12"/>
      <point x="252" y="-12" type="qcurve"/>
      <point x="78" y="-12"/>
      <point x="78" y="134" type="qcurve"/>
      <point x="78" y="339" type="line"/>
      <point x="78" y="420"/>
      <point x="179" y="510"/>
      <point x="345" y="510"/>
      <point x="438" y="421"/>
      <point x="438" y="342" type="qcurve"/>
      <point x="438" y="212" type="line"/>
      <point x="134" y="195" type="line"/>
      <point x="134" y="134" type="line"/>
      <point x="134" y="80"/>
      <point x="173" y="56" type="qcurve"/>
      <point x="203" y="37"/>
    </contour>
    <contour>
      <point x="382" y="262" type="line"/>
      <point x="382" y="349" type="line"/>
      <point x="382" y="392"/>
      <point x="336" y="447"/>
      <point x="286" y="462"/>
      <point x="261" y="462" type="qcurve"/>
      <point x="206" y="462"/>
      <point x="134" y="402"/>
      <point x="134" y="338" type="qcurve"/>
      <point x="134" y="250" type="line"/>
    </contour>
    <contour>
      <point x="284" y="538" type="line"/>
      <point x="240" y="538" type="line"/>
      <point x="291" y="656" type="line"/>
      <point x="302" y="679"/>
      <point x="323" y="679" type="qcurve"/>
      <point x="350" y="679"/>
      <point x="356" y="656" type="qcurve"/>
      <point x="358" y="650"/>
      <point x="358" y="636"/>
      <point x="353" y="630" type="qcurve"/>
    </contour>
  </outline>
</glyph>
<glyph name="edieresis" format="1">
  <advance width="537"/>
  <unicode hex="00EB"/>
  <outline>
    <contour>
      <point x="202" y="37" type="qcurve"/>
      <point x="271" y="37"/>
      <point x="348" y="78" type="qcurve"/>
      <point x="370" y="35" type="line"/>
      <point x="293" y="-12"/>
      <point x="209" y="-12" type="qcurve"/>
      <point x="35" y="-12"/>
      <point x="35" y="134" type="qcurve"/>
      <point x="35" y="339" type="line"/>
      <point x="35" y="420"/>
      <point x="136" y="510"/>
      <point x="302" y="510"/>
      <point x="395" y="421"/>
      <point x="395" y="342" type="qcurve"/>
      <point x="395" y="212" type="line"/>
      <point x="91" y="195" type="line"/>
      <point x="91" y="134" type="line"/>
      <point x="91" y="80"/>
      <point x="130" y="56" type="qcurve"/>
      <point x="160" y="37"/>
    </contour>
    <contour>
      <point x="339" y="262" type="line"/>
      <point x="339" y="349" type="line"/>
      <point x="339" y="392"/>
      <point x="293" y="447"/>
      <point x="243" y="462"/>
      <point x="218" y="462" type="qcurve"/>
      <point x="163" y="462"/>
      <point x="91" y="402"/>
      <point x="91" y="338" type="qcurve"/>
      <point x="91" y="250" type="line"/>
    </contour>
    <contour>
      <point x="161" y="548" type="qcurve"/>
      <point x="152" y="539"/>
      <point x="124" y="539"/>
      <point x="105" y="558"/>
      <point x="105" y="586"/>
      <point x="124" y="605"/>
      <point x="152" y="605"/>
      <point x="171" y="586"/>
      <point x="171" y="558"/>
    </contour>
    <contour>
      <point x="317" y="548" type="qcurve"/>
      <point x="308" y="539"/>
      <point x="280" y="539"/>
      <point x="261" y="558"/>
      <point x="261" y="586"/>
      <point x="280" y="605"/>
      <point x="308" y="605"/>
      <point x="327" y="586"/>
      <point x="327" y="558"/>
    </contour>
  </outline>
</glyph>
<glyph name="igrave" format="1">
  <advance width="245"/>
  <unicode hex="00EC"/>
  <outline>
    <contour>
      <point x="196" y="540" type="line"/>
      <point x="152" y="540" type="line"/>
      <point x="83" y="632" type="line"/>
      <point x="78" y="638"/>
      <point x="78" y="645" type="qcurve"/>
      <point x="78" y="672"/>
      <point x="100" y="679" type="qcurve"/>
      <point x="107" y="681"/>
      <point x="113" y="681" type="qcurve"/>
      <point x="134" y="681"/>
      <point x="145" y="658" type="qcurve"/>
    </contour>
    <contour>
      <point x="212" y="0" type="line"/>
      <point x="156" y="0" type="line"/>
      <point x="156" y="501" type="line"/>
      <point x="212" y="501" type="line"/>
    </contour>
  </outline>
</glyph>
<glyph name="iacute" format="1">
  <advance width="237"/>
  <unicode hex="00ED"/>
  <outline>
    <contour>
      <point x="130" y="538" type="line"/>
      <point x="86" y="538" type="line"/>
      <point x="137" y="656" type="line"/>
      <point x="148" y="679"/>
      <point x="169" y="679" type="qcurve"/>
      <point x="196" y="679"/>
      <point x="202" y="656" type="qcurve"/>
      <point x="204" y="650"/>
      <point x="204" y="636"/>
      <point x="199" y="630" type="qcurve"/>
    </contour>
    <contour>
      <point x="134" y="0" type="line"/>
      <point x="78" y="0" type="line"/>
      <point x="78" y="501" type="line"/>
      <point x="134" y="501" type="line"/>
    </contour>
  </outline>
</glyph>
<glyph name="icircumflex" format="1">
  <advance width="223"/>
  <unicode hex="00EE"/>
  <outline>
    <contour>
      <point x="216" y="540" type="line"/>
      <point x="111" y="644" type="line"/>
      <point x="2" y="540" type="line"/>
      <point x="-36" y="579" type="line"/>
      <point x="112" y="720" type="line"/>
      <point x="254" y="579" type="line"/>
    </contour>
    <contour>
      <point x="139" y="0" type="line"/>
      <point x="83" y="0" type="line"/>
      <point x="83" y="501" type="line"/>
      <point x="139" y="501" type="line"/>
    </contour>
  </outline>
</glyph>
<glyph name="idieresis" format="1">
  <advance width="333"/>
  <unicode hex="00EF"/>
  <outline>
    <contour>
      <point x="134" y="548" type="qcurve"/>
      <point x="124" y="539"/>
      <point x="98" y="539"/>
      <point x="78" y="558"/>
      <point x="78" y="586"/>
      <point x="98" y="605"/>
      <point x="124" y="605"/>
      <point x="144" y="586"/>
      <point x="144" y="558"/>
    </contour>
    <contour>
      <point x="290" y="548" type="qcurve"/>
      <point x="280" y="539"/>
      <point x="254" y="539"/>
      <point x="234" y="558"/>
      <point x="234" y="586"/>
      <point x="254" y="605"/>
      <point x="280" y="605"/>
      <point x="300" y="586"/>
      <point x="300" y="558"/>
    </contour>
    <contour>
      <point x="218" y="0" type="line"/>
      <point x="162" y="0" type="line"/>
      <point x="162" y="501" type="line"/>
      <point x="218" y="501" type="line"/>
    </contour>
  </outline>
</glyph>
<glyph name="ntilde" format="1">
  <advance width="480"/>
  <unicode hex="00F1"/>
  <outline>
    <contour>
      <point x="130" y="467" type="line"/>
      <point x="181" y="510"/>
      <point x="273" y="510" type="qcurve"/>
      <point x="325" y="510"/>
      <point x="362" y="491" type="qcurve"/>
      <point x="447" y="452"/>
      <point x="447" y="346" type="qcurve"/>
      <point x="447" y="0" type="line"/>
      <point x="392" y="0" type="line"/>
      <point x="392" y="343" type="line"/>
      <point x="392" y="395"/>
      <point x="364" y="424" type="qcurve"/>
      <point x="330" y="459"/>
      <point x="195" y="459"/>
      <point x="134" y="425" type="qcurve"/>
      <point x="134" y="0" type="line"/>
      <point x="78" y="0" type="line"/>
      <point x="78" y="501" type="line"/>
      <point x="134" y="501" type="line"/>
    </contour>
    <contour>
      <point x="331" y="597" type="qcurve"/>
      <point x="370" y="597"/>
      <point x="401" y="632" type="qcurve"/>
      <point x="426" y="593" type="line"/>
      <point x="381" y="540"/>
      <point x="330" y="540" type="qcurve"/>
      <point x="312" y="540"/>
      <point x="267" y="559"/>
      <point x="217" y="582"/>
      <point x="192" y="582" type="qcurve"/>
      <point x="151" y="582"/>
      <point x="117" y="546" type="qcurve"/>
      <point x="92" y="585" type="line"/>
      <point x="139" y="638"/>
      <point x="192" y="638" type="qcurve"/>
      <point x="210" y="638"/>
      <point x="255" y="620"/>
      <point x="306" y="597"/>
    </contour>
  </outline>
</glyph>
<glyph name="otilde" format="1">
  <advance width="484"/>
  <unicode hex="00F5"/>
  <outline>
    <contour>
      <point x="451" y="316" type="qcurve"/>
      <point x="451" y="184" type="line"/>
      <point x="451" y="100"/>
      <point x="359" y="-10"/>
      <point x="173" y="-10"/>
      <point x="78" y="101"/>
      <point x="78" y="184" type="qcurve"/>
      <point x="78" y="316" type="line"/>
      <point x="78" y="411"/>
      <point x="175" y="512"/>
      <point x="353" y="512"/>
      <point x="451" y="407"/>
    </contour>
    <contour>
      <point x="395" y="174" type="qcurve"/>
      <point x="395" y="316" type="line"/>
      <point x="395" y="461"/>
      <point x="266" y="461" type="qcurve"/>
      <point x="134" y="461"/>
      <point x="134" y="316" type="qcurve"/>
      <point x="134" y="174" type="line"/>
      <point x="134" y="114"/>
      <point x="205" y="40"/>
      <point x="328" y="40"/>
      <point x="395" y="113"/>
    </contour>
    <contour>
      <point x="340" y="597" type="qcurve"/>
      <point x="379" y="597"/>
      <point x="410" y="632" type="qcurve"/>
      <point x="435" y="593" type="line"/>
      <point x="390" y="540"/>
      <point x="339" y="540" type="qcurve"/>
      <point x="321" y="540"/>
      <point x="276" y="559"/>
      <point x="226" y="582"/>
      <point x="201" y="582" type="qcurve"/>
      <point x="160" y="582"/>
      <point x="126" y="546" type="qcurve"/>
      <point x="101" y="585" type="line"/>
      <point x="148" y="638"/>
      <point x="201" y="638" type="qcurve"/>
      <point x="219" y="638"/>
      <point x="264" y="620"/>
      <point x="315" y="597"/>
    </contour>
  </outline>
</glyph>
<glyph name="odieresis" format="1">
  <advance width="484"/>
  <unicode hex="00F6"/>
  <outline>
    <contour>
      <point x="451" y="316" type="qcurve"/>
      <point x="451" y="184" type="line"/>
      <point x="451" y="100"/>
      <point x="359" y="-10"/>
      <point x="173" y="-10"/>
      <point x="78" y="101"/>
      <point x="78" y="184" type="qcurve"/>
      <point x="78" y="316" type="line"/>
      <point x="78" y="411"/>
      <point x="175" y="512"/>
      <point x="353" y="512"/>
      <point x="451" y="407"/>
    </contour>
    <contour>
      <point x="395" y="174" type="qcurve"/>
      <point x="395" y="316" type="line"/>
      <point x="395" y="461"/>
      <point x="266" y="461" type="qcurve"/>
      <point x="134" y="461"/>
      <point x="134" y="316" type="qcurve"/>
      <point x="134" y="174" type="line"/>
      <point x="134" y="114"/>
      <point x="205" y="40"/>
      <point x="328" y="40"/>
      <point x="395" y="113"/>
    </contour>
    <contour>
      <point x="215" y="548" type="qcurve"/>
      <point x="206" y="539"/>
      <point x="178" y="539"/>
      <point x="159" y="558"/>
      <point x="159" y="586"/>
      <point x="178" y="605"/>
      <point x="206" y="605"/>
      <point x="225" y="586"/>
      <point x="225" y="558"/>
    </contour>
    <contour>
      <point x="371" y="548" type="qcurve"/>
      <point x="362" y="539"/>
      <point x="334" y="539"/>
      <point x="315" y="558"/>
      <point x="315" y="586"/>
      <point x="334" y="605"/>
      <point x="362" y="605"/>
      <point x="381" y="586"/>
      <point x="381" y="558"/>
    </contour>
  </outline>
</glyph>
<glyph name="divide" format="1">
  <advance width="431"/>
  <unicode hex="00F7"/>
  <outline>
    <contour>
      <point x="398" y="358" type="line"/>
      <point x="78" y="358" type="line"/>
      <point x="78" y="413" type="line"/>
      <point x="398" y="413" type="line"/>
    </contour>
    <contour>
      <point x="263" y="488" type="qcurve"/>
      <point x="254" y="479"/>
      <point x="226" y="479"/>
      <point x="207" y="498"/>
      <point x="207" y="526"/>
      <point x="226" y="545"/>
      <point x="254" y="545"/>
      <point x="273" y="526"/>
      <point x="273" y="498"/>
    </contour>
    <contour>
      <point x="263" y="232" type="qcurve"/>
      <point x="254" y="222"/>
      <point x="226" y="222"/>
      <point x="207" y="242"/>
      <point x="207" y="268"/>
      <point x="226" y="288"/>
      <point x="254" y="288"/>
      <point x="273" y="268"/>
      <point x="273" y="242"/>
    </contour>
  </outline>
</glyph>
<glyph name="oslash" format="1">
  <advance width="484"/>
  <unicode hex="00F8"/>
  <outline>
    <contour>
      <point x="155" y="-67" type="line"/>
      <point x="98" y="-67" type="line"/>
      <point x="140" y="31" type="line"/>
      <point x="78" y="84"/>
      <point x="78" y="184" type="qcurve"/>
      <point x="78" y="316" type="line"/>
      <point x="78" y="411"/>
      <point x="175" y="512"/>
      <point x="266" y="512" type="qcurve"/>
      <point x="305" y="512"/>
      <point x="341" y="499" type="qcurve"/>
      <point x="379" y="588" type="line"/>
      <point x="438" y="588" type="line"/>
      <point x="388" y="472" type="line"/>
      <point x="451" y="418"/>
      <point x="451" y="316" type="qcurve"/>
      <point x="451" y="184" type="line"/>
      <point x="451" y="100"/>
      <point x="359" y="-10"/>
      <point x="266" y="-10" type="qcurve"/>
      <point x="222" y="-10"/>
      <point x="186" y="4" type="qcurve"/>
    </contour>
    <contour>
      <point x="395" y="174" type="qcurve"/>
      <point x="395" y="316" type="line"/>
      <point x="395" y="384"/>
      <point x="365" y="420" type="qcurve"/>
      <point x="206" y="51" type="line"/>
      <point x="233" y="40"/>
      <point x="266" y="40" type="qcurve"/>
      <point x="328" y="40"/>
      <point x="395" y="113"/>
    </contour>
    <contour>
      <point x="163" y="84" type="qcurve"/>
      <point x="320" y="452" type="line"/>
      <point x="296" y="461"/>
      <point x="266" y="461" type="qcurve"/>
      <point x="134" y="461"/>
      <point x="134" y="316" type="qcurve"/>
      <point x="134" y="174" type="line"/>
      <point x="134" y="119"/>
    </contour>
  </outline>
</glyph>
<glyph name="ugrave" format="1">
  <advance width="484"/>
  <unicode hex="00F9"/>
  <outline>
    <contour>
      <point x="451" y="0" type="line"/>
      <point x="396" y="0" type="line"/>
      <point x="400" y="51" type="line"/>
      <point x="376" y="21"/>
      <point x="303" y="-11"/>
      <point x="266" y="-11" type="qcurve"/>
      <point x="78" y="-11"/>
      <point x="78" y="172" type="qcurve"/>
      <point x="78" y="501" type="line"/>
      <point x="134" y="501" type="line"/>
      <point x="134" y="165" type="line"/>
      <point x="134" y="101"/>
      <point x="205" y="39"/>
      <point x="266" y="39" type="qcurve"/>
      <point x="395" y="39"/>
      <point x="395" y="165" type="qcurve"/>
      <point x="395" y="501" type="line"/>
      <point x="451" y="501" type="line"/>
    </contour>
    <contour>
      <point x="288" y="540" type="line"/>
      <point x="244" y="540" type="line"/>
      <point x="175" y="632" type="line"/>
      <point x="170" y="638"/>
      <point x="170" y="645" type="qcurve"/>
      <point x="170" y="672"/>
      <point x="192" y="679" type="qcurve"/>
      <point x="199" y="681"/>
      <point x="205" y="681" type="qcurve"/>
      <point x="226" y="681"/>
      <point x="237" y="658" type="qcurve"/>
    </contour>
  </outline>
</glyph>
<glyph name="uacute" format="1">
  <advance width="484"/>
  <unicode hex="00FA"/>
  <outline>
    <contour>
      <point x="451" y="0" type="line"/>
      <point x="396" y="0" type="line"/>
      <point x="400" y="51" type="line"/>
      <point x="376" y="21"/>
      <point x="303" y="-11"/>
      <point x="266" y="-11" type="qcurve"/>
      <point x="78" y="-11"/>
      <point x="78" y="172" type="qcurve"/>
      <point x="78" y="501" type="line"/>
      <point x="134" y="501" type="line"/>
      <point x="134" y="165" type="line"/>
      <point x="134" y="101"/>
      <point x="205" y="39"/>
      <point x="266" y="39" type="qcurve"/>
      <point x="395" y="39"/>
      <point x="395" y="165" type="qcurve"/>
      <point x="395" y="501" type="line"/>
      <point x="451" y="501" type="line"/>
    </contour>
    <contour>
      <point x="283" y="538" type="line"/>
      <point x="239" y="538" type="line"/>
      <point x="290" y="656" type="line"/>
      <point x="301" y="679"/>
      <point x="322" y="679" type="qcurve"/>
      <point x="349" y="679"/>
      <point x="356" y="656" type="qcurve"/>
      <point x="357" y="650"/>
      <point x="357" y="636"/>
      <point x="352" y="630" type="qcurve"/>
    </contour>
  </outline>
</glyph>
<glyph name="ucircumflex" format="1">
  <advance width="484"/>
  <unicode hex="00FB"/>
  <outline>
    <contour>
      <point x="451" y="0" type="line"/>
      <point x="396" y="0" type="line"/>
      <point x="400" y="51" type="line"/>
      <point x="376" y="21"/>
      <point x="303" y="-11"/>
      <point x="266" y="-11" type="qcurve"/>
      <point x="78" y="-11"/>
      <point x="78" y="172" type="qcurve"/>
      <point x="78" y="501" type="line"/>
      <point x="134" y="501" type="line"/>
      <point x="134" y="165" type="line"/>
      <point x="134" y="101"/>
      <point x="205" y="39"/>
      <point x="266" y="39" type="qcurve"/>
      <point x="395" y="39"/>
      <point x="395" y="165" type="qcurve"/>
      <point x="395" y="501" type="line"/>
      <point x="451" y="501" type="line"/>
    </contour>
    <contour>
      <point x="373" y="540" type="line"/>
      <point x="268" y="644" type="line"/>
      <point x="159" y="540" type="line"/>
      <point x="121" y="579" type="line"/>
      <point x="269" y="720" type="line"/>
      <point x="411" y="579" type="line"/>
    </contour>
  </outline>
</glyph>
<glyph name="udieresis" format="1">
  <advance width="484"/>
  <unicode hex="00FC"/>
  <outline>
    <contour>
      <point x="451" y="0" type="line"/>
      <point x="396" y="0" type="line"/>
      <point x="400" y="51" type="line"/>
      <point x="376" y="21"/>
      <point x="303" y="-11"/>
      <point x="266" y="-11" type="qcurve"/>
      <point x="78" y="-11"/>
      <point x="78" y="172" type="qcurve"/>
      <point x="78" y="501" type="line"/>
      <point x="134" y="501" type="line"/>
      <point x="134" y="165" type="line"/>
      <point x="134" y="101"/>
      <point x="205" y="39"/>
      <point x="266" y="39" type="qcurve"/>
      <point x="395" y="39"/>
      <point x="395" y="165" type="qcurve"/>
      <point x="395" y="501" type="line"/>
      <point x="451" y="501" type="line"/>
    </contour>
    <contour>
      <point x="210" y="548" type="qcurve"/>
      <point x="200" y="539"/>
      <point x="174" y="539"/>
      <point x="154" y="558"/>
      <point x="154" y="586"/>
      <point x="174" y="605"/>
      <point x="200" y="605"/>
      <point x="220" y="586"/>
      <point x="220" y="558"/>
    </contour>
    <contour>
      <point x="366" y="548" type="qcurve"/>
      <point x="356" y="539"/>
      <point x="330" y="539"/>
      <point x="310" y="558"/>
      <point x="310" y="586"/>
      <point x="330" y="605"/>
      <point x="356" y="605"/>
      <point x="376" y="586"/>
      <point x="376" y="558"/>
    </contour>
  </outline>
</glyph>
<glyph name="yacute" format="1">
  <advance width="520"/>
  <unicode hex="00FD"/>
  <outline>
    <contour>
      <point x="348" y="-210" type="qcurve"/>
      <point x="333" y="-167" type="line"/>
      <point x="400" y="-142"/>
      <point x="400" y="-63" type="qcurve"/>
      <point x="400" y="49" type="line"/>
      <point x="363" y="-12"/>
      <point x="268" y="-12" type="qcurve"/>
      <point x="78" y="-12"/>
      <point x="78" y="176" type="qcurve"/>
      <point x="78" y="501" type="line"/>
      <point x="132" y="501" type="line"/>
      <point x="132" y="166" type="line"/>
      <point x="132" y="102"/>
      <point x="202" y="39"/>
      <point x="323" y="39"/>
      <point x="399" y="101"/>
      <point x="399" y="166" type="qcurve"/>
      <point x="399" y="363" type="line"/>
      <point x="399" y="436"/>
      <point x="409" y="460" type="qcurve"/>
      <point x="426" y="495"/>
      <point x="472" y="510" type="qcurve"/>
      <point x="487" y="472" type="line"/>
      <point x="453" y="457"/>
      <point x="453" y="402" type="qcurve"/>
      <point x="453" y="-61" type="line"/>
      <point x="453" y="-122"/>
      <point x="405" y="-192"/>
    </contour>
    <contour>
      <point x="280" y="538" type="line"/>
      <point x="236" y="538" type="line"/>
      <point x="287" y="656" type="line"/>
      <point x="298" y="679"/>
      <point x="319" y="679" type="qcurve"/>
      <point x="346" y="679"/>
      <point x="352" y="656" type="qcurve"/>
      <point x="354" y="650"/>
      <point x="354" y="636"/>
      <point x="349" y="630" type="qcurve"/>
    </contour>
  </outline>
</glyph>
<glyph name="ydieresis" format="1">
  <advance width="520"/>
  <unicode hex="00FF"/>
  <outline>
    <contour>
      <point x="348" y="-210" type="qcurve"/>
      <point x="333" y="-167" type="line"/>
      <point x="400" y="-142"/>
      <point x="400" y="-63" type="qcurve"/>
      <point x="400" y="49" type="line"/>
      <point x="363" y="-12"/>
      <point x="268" y="-12" type="qcurve"/>
      <point x="78" y="-12"/>
      <point x="78" y="176" type="qcurve"/>
      <point x="78" y="501" type="line"/>
      <point x="132" y="501" type="line"/>
      <point x="132" y="166" type="line"/>
      <point x="132" y="102"/>
      <point x="202" y="39"/>
      <point x="323" y="39"/>
      <point x="399" y="101"/>
      <point x="399" y="166" type="qcurve"/>
      <point x="399" y="363" type="line"/>
      <point x="399" y="436"/>
      <point x="409" y="460" type="qcurve"/>
      <point x="426" y="495"/>
      <point x="472" y="510" type="qcurve"/>
      <point x="487" y="472" type="line"/>
      <point x="453" y="457"/>
      <point x="453" y="402" type="qcurve"/>
      <point x="453" y="-61" type="line"/>
      <point x="453" y="-122"/>
      <point x="405" y="-192"/>
    </contour>
    <contour>
      <point x="216" y="548" type="qcurve"/>
      <point x="206" y="539"/>
      <point x="180" y="539"/>
      <point x="160" y="558"/>
      <point x="160" y="586"/>
      <point x="180" y="605"/>
      <point x="206" y="605"/>
      <point x="226" y="586"/>
      <point x="226" y="558"/>
    </contour>
    <contour>
      <point x="372" y="548" type="qcurve"/>
      <point x="362" y="539"/>
      <point x="336" y="539"/>
      <point x="316" y="558"/>
      <point x="316" y="586"/>
      <point x="336" y="605"/>
      <point x="362" y="605"/>
      <point x="382" y="586"/>
      <point x="382" y="558"/>
    </contour>
  </outline>
</glyph>
<glyph name="Amacron" format="1">
  <advance width="527"/>
  <unicode hex="0100"/>
  <outline>
    <contour>
      <point x="517" y="0" type="line"/>
      <point x="457" y="0" type="line"/>
      <point x="377" y="245" type="line"/>
      <point x="149" y="245" type="line"/>
      <point x="71" y="0" type="line"/>
      <point x="12" y="0" type="line"/>
      <point x="236" y="700" type="line"/>
      <point x="289" y="700" type="line"/>
    </contour>
    <contour>
      <point x="362" y="300" type="line"/>
      <point x="262" y="613" type="line"/>
      <point x="165" y="300" type="line"/>
    </contour>
    <contour>
      <point x="368" y="730" type="line"/>
      <point x="151" y="730" type="line"/>
      <point x="151" y="788" type="line"/>
      <point x="368" y="788" type="line"/>
    </contour>
  </outline>
</glyph>
<glyph name="amacron" format="1">
  <advance width="496"/>
  <unicode hex="0101"/>
  <outline>
    <contour>
      <point x="297" y="-10" type="qcurve"/>
      <point x="78" y="-10"/>
      <point x="78" y="169" type="qcurve"/>
      <point x="78" y="252" type="line"/>
      <point x="78" y="351"/>
      <point x="147" y="385" type="qcurve"/>
      <point x="183" y="402"/>
      <point x="218" y="402" type="qcurve"/>
      <point x="336" y="402"/>
      <point x="407" y="346" type="qcurve"/>
      <point x="407" y="401"/>
      <point x="343" y="466"/>
      <point x="252" y="466" type="qcurve"/>
      <point x="255" y="509" type="line"/>
      <point x="336" y="509"/>
      <point x="375" y="490" type="qcurve"/>
      <point x="396" y="479"/>
      <point x="428" y="457"/>
      <point x="446" y="421"/>
      <point x="458" y="394"/>
      <point x="460" y="371" type="qcurve"/>
      <point x="463" y="336"/>
      <point x="463" y="298" type="qcurve"/>
      <point x="463" y="0" type="line"/>
      <point x="359" y="-10"/>
    </contour>
    <contour>
      <point x="407" y="46" type="qcurve"/>
      <point x="407" y="303" type="line"/>
      <point x="324" y="343"/>
      <point x="238" y="350" type="qcurve"/>
      <point x="231" y="351"/>
      <point x="225" y="351" type="qcurve"/>
      <point x="187" y="351"/>
      <point x="133" y="304"/>
      <point x="133" y="249" type="qcurve"/>
      <point x="133" y="162" type="line"/>
      <point x="133" y="79"/>
      <point x="205" y="54" type="qcurve"/>
      <point x="247" y="39"/>
      <point x="353" y="39"/>
    </contour>
    <contour>
      <point x="386" y="538" type="line"/>
      <point x="169" y="538" type="line"/>
      <point x="169" y="596" type="line"/>
      <point x="386" y="596" type="line"/>
    </contour>
  </outline>
</glyph>
<glyph name="Abreve" format="1">
  <advance width="527"/>
  <unicode hex="0102"/>
  <outline>
    <contour>
      <point x="517" y="0" type="line"/>
      <point x="457" y="0" type="line"/>
      <point x="377" y="245" type="line"/>
      <point x="149" y="245" type="line"/>
      <point x="71" y="0" type="line"/>
      <point x="12" y="0" type="line"/>
      <point x="236" y="700" type="line"/>
      <point x="289" y="700" type="line"/>
    </contour>
    <contour>
      <point x="362" y="300" type="line"/>
      <point x="262" y="613" type="line"/>
      <point x="165" y="300" type="line"/>
    </contour>
    <contour>
      <point x="378" y="848" type="line"/>
      <point x="378" y="843" type="line"/>
      <point x="378" y="796"/>
      <point x="312" y="730"/>
      <point x="218" y="730"/>
      <point x="152" y="796"/>
      <point x="152" y="843" type="qcurve"/>
      <point x="152" y="848" type="line"/>
      <point x="197" y="848" type="line"/>
      <point x="197" y="843" type="line"/>
      <point x="197" y="814"/>
      <point x="236" y="775"/>
      <point x="294" y="775"/>
      <point x="333" y="814"/>
      <point x="333" y="843" type="qcurve"/>
      <point x="333" y="848" type="line"/>
    </contour>
  </outline>
</glyph>
<glyph name="Aogonek" format="1">
  <advance width="650"/>
  <unicode hex="0104"/>
  <outline>
    <contour>
      <point x="582" y="0" type="line"/>
      <point x="478" y="-87"/>
      <point x="478" y="-127" type="qcurve"/>
      <point x="478" y="-142"/>
      <point x="497" y="-166"/>
      <point x="539" y="-166"/>
      <point x="566" y="-147"/>
      <point x="580" y="-125" type="qcurve"/>
      <point x="617" y="-163" type="line"/>
      <point x="585" y="-213"/>
      <point x="520" y="-213" type="qcurve"/>
      <point x="503" y="-213"/>
      <point x="467" y="-204"/>
      <point x="428" y="-164"/>
      <point x="428" y="-131" type="qcurve"/>
      <point x="428" y="-63"/>
      <point x="524" y="0" type="qcurve"/>
      <point x="523" y="0" type="line"/>
      <point x="443" y="245" type="line"/>
      <point x="215" y="245" type="line"/>
      <point x="137" y="0" type="line"/>
      <point x="78" y="0" type="line"/>
      <point x="302" y="700" type="line"/>
      <point x="355" y="700" type="line"/>
      <point x="583" y="0" type="line"/>
    </contour>
    <contour>
      <point x="428" y="300" type="line"/>
      <point x="328" y="613" type="line"/>
      <point x="231" y="300" type="line"/>
    </contour>
  </outline>
</glyph>
<glyph name="aogonek" format="1">
  <advance width="492"/>
  <unicode hex="0105"/>
  <outline>
    <contour>
      <point x="421" y="0" type="line"/>
      <point x="317" y="-87"/>
      <point x="317" y="-127" type="qcurve"/>
      <point x="317" y="-142"/>
      <point x="336" y="-166"/>
      <point x="378" y="-166"/>
      <point x="405" y="-147"/>
      <point x="419" y="-125" type="qcurve"/>
      <point x="456" y="-163" type="line"/>
      <point x="424" y="-213"/>
      <point x="359" y="-213" type="qcurve"/>
      <point x="342" y="-213"/>
      <point x="306" y="-204"/>
      <point x="267" y="-164"/>
      <point x="267" y="-131" type="qcurve"/>
      <point x="267" y="-66"/>
      <point x="353" y="-6" type="qcurve"/>
      <point x="255" y="-10"/>
      <point x="212" y="-10"/>
      <point x="137" y="7"/>
      <point x="74" y="42"/>
      <point x="37" y="116"/>
      <point x="37" y="169" type="qcurve"/>
      <point x="37" y="252" type="line"/>
      <point x="37" y="351"/>
      <point x="106" y="385" type="qcurve"/>
      <point x="142" y="402"/>
      <point x="177" y="402" type="qcurve"/>
      <point x="295" y="402"/>
      <point x="366" y="346" type="qcurve"/>
      <point x="366" y="401"/>
      <point x="302" y="466"/>
      <point x="211" y="466" type="qcurve"/>
      <point x="214" y="509" type="line"/>
      <point x="295" y="509"/>
      <point x="334" y="490" type="qcurve"/>
      <point x="355" y="479"/>
      <point x="387" y="457"/>
      <point x="405" y="421"/>
      <point x="417" y="394"/>
      <point x="419" y="371" type="qcurve"/>
      <point x="422" y="336"/>
      <point x="422" y="298" type="qcurve"/>
      <point x="422" y="0" type="line"/>
    </contour>
    <contour>
      <point x="366" y="46" type="qcurve"/>
      <point x="366" y="303" type="line"/>
      <point x="283" y="343"/>
      <point x="196" y="350" type="qcurve"/>
      <point x="190" y="351"/>
      <point x="184" y="351" type="qcurve"/>
      <point x="146" y="351"/>
      <point x="92" y="304"/>
      <point x="92" y="249" type="qcurve"/>
      <point x="92" y="162" type="line"/>
      <point x="92" y="79"/>
      <point x="164" y="54" type="qcurve"/>
      <point x="206" y="39"/>
      <point x="312" y="39"/>
    </contour>
  </outline>
</glyph>
<glyph name="Cacute" format="1">
  <advance width="436"/>
  <unicode hex="0106"/>
  <outline>
    <contour>
      <point x="427" y="23" type="line"/>
      <point x="342" y="-10"/>
      <point x="265" y="-10" type="qcurve"/>
      <point x="249" y="-10"/>
      <point x="184" y="-4"/>
      <point x="111" y="35"/>
      <point x="66" y="120"/>
      <point x="66" y="183" type="qcurve"/>
      <point x="66" y="504" type="line"/>
      <point x="66" y="580"/>
      <point x="109" y="658"/>
      <point x="153" y="685" type="qcurve"/>
      <point x="198" y="710"/>
      <point x="260" y="710" type="qcurve"/>
      <point x="337" y="710"/>
      <point x="402" y="677" type="qcurve"/>
      <point x="386" y="639" type="line"/>
      <point x="329" y="660"/>
      <point x="278" y="660" type="qcurve"/>
      <point x="122" y="660"/>
      <point x="122" y="513" type="qcurve"/>
      <point x="122" y="185" type="line"/>
      <point x="122" y="54"/>
      <point x="249" y="42" type="qcurve"/>
      <point x="259" y="40"/>
      <point x="270" y="40" type="qcurve"/>
      <point x="330" y="40"/>
      <point x="415" y="70" type="qcurve"/>
    </contour>
    <contour>
      <point x="278" y="734" type="line"/>
      <point x="234" y="734" type="line"/>
      <point x="285" y="852" type="line"/>
      <point x="296" y="875"/>
      <point x="317" y="875" type="qcurve"/>
      <point x="344" y="875"/>
      <point x="350" y="852" type="qcurve"/>
      <point x="352" y="846"/>
      <point x="352" y="832"/>
      <point x="347" y="826" type="qcurve"/>
    </contour>
  </outline>
</glyph>
<glyph name="cacute" format="1">
  <advance width="433"/>
  <unicode hex="0107"/>
  <outline>
    <contour>
      <point x="288" y="38" type="qcurve"/>
      <point x="333" y="38"/>
      <point x="388" y="51" type="qcurve"/>
      <point x="400" y="6" type="line"/>
      <point x="336" y="-11"/>
      <point x="232" y="-11"/>
      <point x="182" y="5" type="qcurve"/>
      <point x="78" y="39"/>
      <point x="78" y="180" type="qcurve"/>
      <point x="78" y="308" type="line"/>
      <point x="78" y="379"/>
      <point x="106" y="427" type="qcurve"/>
      <point x="154" y="510"/>
      <point x="264" y="510" type="qcurve"/>
      <point x="330" y="510"/>
      <point x="398" y="478" type="qcurve"/>
      <point x="382" y="437" type="line"/>
      <point x="325" y="459"/>
      <point x="242" y="459"/>
      <point x="178" y="439"/>
      <point x="134" y="369"/>
      <point x="134" y="314" type="qcurve"/>
      <point x="134" y="169" type="line"/>
      <point x="134" y="38"/>
    </contour>
    <contour>
      <point x="253" y="538" type="line"/>
      <point x="209" y="538" type="line"/>
      <point x="260" y="656" type="line"/>
      <point x="271" y="679"/>
      <point x="292" y="679" type="qcurve"/>
      <point x="319" y="679"/>
      <point x="326" y="656" type="qcurve"/>
      <point x="327" y="650"/>
      <point x="327" y="636"/>
      <point x="322" y="630" type="qcurve"/>
    </contour>
  </outline>
</glyph>
<glyph name="Cdotaccent" format="1">
  <advance width="436"/>
  <unicode hex="010A"/>
  <outline>
    <contour>
      <point x="427" y="23" type="line"/>
      <point x="342" y="-10"/>
      <point x="265" y="-10" type="qcurve"/>
      <point x="249" y="-10"/>
      <point x="184" y="-4"/>
      <point x="111" y="35"/>
      <point x="66" y="120"/>
      <point x="66" y="183" type="qcurve"/>
      <point x="66" y="504" type="line"/>
      <point x="66" y="580"/>
      <point x="109" y="658"/>
      <point x="153" y="685" type="qcurve"/>
      <point x="198" y="710"/>
      <point x="260" y="710" type="qcurve"/>
      <point x="337" y="710"/>
      <point x="402" y="677" type="qcurve"/>
      <point x="386" y="639" type="line"/>
      <point x="329" y="660"/>
      <point x="278" y="660" type="qcurve"/>
      <point x="122" y="660"/>
      <point x="122" y="513" type="qcurve"/>
      <point x="122" y="185" type="line"/>
      <point x="122" y="54"/>
      <point x="249" y="42" type="qcurve"/>
      <point x="259" y="40"/>
      <point x="270" y="40" type="qcurve"/>
      <point x="330" y="40"/>
      <point x="415" y="70" type="qcurve"/>
    </contour>
    <contour>
      <point x="299" y="764" type="qcurve"/>
      <point x="299" y="750"/>
      <point x="279" y="730"/>
      <point x="252" y="730"/>
      <point x="232" y="750"/>
      <point x="232" y="777"/>
      <point x="252" y="797"/>
      <point x="280" y="797"/>
      <point x="299" y="778"/>
    </contour>
  </outline>
</glyph>
<glyph name="cdotaccent" format="1">
  <advance width="433"/>
  <unicode hex="010B"/>
  <outline>
    <contour>
      <point x="288" y="38" type="qcurve"/>
      <point x="333" y="38"/>
      <point x="388" y="51" type="qcurve"/>
      <point x="400" y="6" type="line"/>
      <point x="336" y="-11"/>
      <point x="232" y="-11"/>
      <point x="182" y="5" type="qcurve"/>
      <point x="78" y="39"/>
      <point x="78" y="180" type="qcurve"/>
      <point x="78" y="308" type="line"/>
      <point x="78" y="379"/>
      <point x="106" y="427" type="qcurve"/>
      <point x="154" y="510"/>
      <point x="264" y="510" type="qcurve"/>
      <point x="330" y="510"/>
      <point x="398" y="478" type="qcurve"/>
      <point x="382" y="437" type="line"/>
      <point x="325" y="459"/>
      <point x="242" y="459"/>
      <point x="178" y="439"/>
      <point x="134" y="369"/>
      <point x="134" y="314" type="qcurve"/>
      <point x="134" y="169" type="line"/>
      <point x="134" y="38"/>
    </contour>
    <contour>
      <point x="288" y="548" type="qcurve"/>
      <point x="278" y="538"/>
      <point x="252" y="538"/>
      <point x="231" y="558"/>
      <point x="231" y="585"/>
      <point x="251" y="605"/>
      <point x="278" y="605"/>
      <point x="298" y="586"/>
      <point x="298" y="558"/>
    </contour>
  </outline>
</glyph>
<glyph name="Ccaron" format="1">
  <advance width="436"/>
  <unicode hex="010C"/>
  <outline>
    <contour>
      <point x="427" y="23" type="line"/>
      <point x="342" y="-10"/>
      <point x="265" y="-10" type="qcurve"/>
      <point x="249" y="-10"/>
      <point x="184" y="-4"/>
      <point x="111" y="35"/>
      <point x="66" y="120"/>
      <point x="66" y="183" type="qcurve"/>
      <point x="66" y="504" type="line"/>
      <point x="66" y="580"/>
      <point x="109" y="658"/>
      <point x="153" y="685" type="qcurve"/>
      <point x="198" y="710"/>
      <point x="260" y="710" type="qcurve"/>
      <point x="337" y="710"/>
      <point x="402" y="677" type="qcurve"/>
      <point x="386" y="639" type="line"/>
      <point x="329" y="660"/>
      <point x="278" y="660" type="qcurve"/>
      <point x="122" y="660"/>
      <point x="122" y="513" type="qcurve"/>
      <point x="122" y="185" type="line"/>
      <point x="122" y="54"/>
      <point x="249" y="42" type="qcurve"/>
      <point x="259" y="40"/>
      <point x="270" y="40" type="qcurve"/>
      <point x="330" y="40"/>
      <point x="415" y="70" type="qcurve"/>
    </contour>
    <contour>
      <point x="398" y="874" type="line"/>
      <point x="256" y="733" type="line"/>
      <point x="108" y="874" type="line"/>
      <point x="146" y="913" type="line"/>
      <point x="255" y="809" type="line"/>
      <point x="360" y="913" type="line"/>
    </contour>
  </outline>
</glyph>
<glyph name="ccaron" format="1">
  <advance width="434"/>
  <unicode hex="010D"/>
  <outline>
    <contour>
      <point x="288" y="38" type="qcurve"/>
      <point x="333" y="38"/>
      <point x="388" y="51" type="qcurve"/>
      <point x="400" y="6" type="line"/>
      <point x="336" y="-11"/>
      <point x="232" y="-11"/>
      <point x="182" y="5" type="qcurve"/>
      <point x="78" y="39"/>
      <point x="78" y="180" type="qcurve"/>
      <point x="78" y="308" type="line"/>
      <point x="78" y="379"/>
      <point x="106" y="427" type="qcurve"/>
      <point x="154" y="510"/>
      <point x="264" y="510" type="qcurve"/>
      <point x="330" y="510"/>
      <point x="398" y="478" type="qcurve"/>
      <point x="382" y="437" type="line"/>
      <point x="325" y="459"/>
      <point x="242" y="459"/>
      <point x="178" y="439"/>
      <point x="134" y="369"/>
      <point x="134" y="314" type="qcurve"/>
      <point x="134" y="169" type="line"/>
      <point x="134" y="38"/>
    </contour>
    <contour>
      <point x="401" y="684" type="line"/>
      <point x="259" y="543" type="line"/>
      <point x="111" y="684" type="line"/>
      <point x="149" y="723" type="line"/>
      <point x="258" y="619" type="line"/>
      <point x="363" y="723" type="line"/>
    </contour>
  </outline>
</glyph>
<glyph name="Dcaron" format="1">
  <advance width="576"/>
  <unicode hex="010E"/>
  <outline>
    <contour>
      <point x="286" y="0" type="qcurve"/>
      <point x="78" y="0" type="line"/>
      <point x="78" y="701" type="line"/>
      <point x="266" y="701" type="line"/>
      <point x="379" y="701"/>
      <point x="498" y="577"/>
      <point x="498" y="474" type="qcurve"/>
      <point x="498" y="200" type="line"/>
      <point x="498" y="0"/>
    </contour>
    <contour>
      <point x="442" y="190" type="qcurve"/>
      <point x="442" y="484" type="line"/>
      <point x="442" y="568"/>
      <point x="342" y="650"/>
      <point x="276" y="650" type="qcurve"/>
      <point x="134" y="650" type="line"/>
      <point x="134" y="50" type="line"/>
      <point x="270" y="50" type="line"/>
      <point x="442" y="50"/>
    </contour>
    <contour>
      <point x="416" y="875" type="line"/>
      <point x="274" y="734" type="line"/>
      <point x="126" y="875" type="line"/>
      <point x="164" y="914" type="line"/>
      <point x="273" y="810" type="line"/>
      <point x="378" y="914" type="line"/>
    </contour>
  </outline>
</glyph>
<glyph name="emacron" format="1">
  <advance width="537"/>
  <unicode hex="0113"/>
  <outline>
    <contour>
      <point x="202" y="37" type="qcurve"/>
      <point x="271" y="37"/>
      <point x="348" y="78" type="qcurve"/>
      <point x="370" y="35" type="line"/>
      <point x="293" y="-12"/>
      <point x="209" y="-12" type="qcurve"/>
      <point x="35" y="-12"/>
      <point x="35" y="134" type="qcurve"/>
      <point x="35" y="339" type="line"/>
      <point x="35" y="420"/>
      <point x="136" y="510"/>
      <point x="302" y="510"/>
      <point x="395" y="421"/>
      <point x="395" y="342" type="qcurve"/>
      <point x="395" y="212" type="line"/>
      <point x="91" y="195" type="line"/>
      <point x="91" y="134" type="line"/>
      <point x="91" y="80"/>
      <point x="130" y="56" type="qcurve"/>
      <point x="160" y="37"/>
    </contour>
    <contour>
      <point x="339" y="262" type="line"/>
      <point x="339" y="349" type="line"/>
      <point x="339" y="392"/>
      <point x="293" y="447"/>
      <point x="243" y="462"/>
      <point x="218" y="462" type="qcurve"/>
      <point x="163" y="462"/>
      <point x="91" y="402"/>
      <point x="91" y="338" type="qcurve"/>
      <point x="91" y="250" type="line"/>
    </contour>
    <contour>
      <point x="326" y="538" type="line"/>
      <point x="109" y="538" type="line"/>
      <point x="109" y="596" type="line"/>
      <point x="326" y="596" type="line"/>
    </contour>
  </outline>
</glyph>
<glyph name="Edotaccent" format="1">
  <advance width="465"/>
  <unicode hex="0116"/>
  <outline>
    <contour>
      <point x="410" y="0" type="line"/>
      <point x="78" y="0" type="line"/>
      <point x="78" y="700" type="line"/>
      <point x="412" y="700" type="line"/>
      <point x="412" y="648" type="line"/>
      <point x="134" y="648" type="line"/>
      <point x="134" y="413" type="line"/>
      <point x="325" y="413" type="line"/>
      <point x="306" y="358" type="line"/>
      <point x="134" y="358" type="line"/>
      <point x="134" y="50" type="line"/>
      <point x="410" y="50" type="line"/>
    </contour>
    <contour>
      <point x="289" y="764" type="qcurve"/>
      <point x="289" y="750"/>
      <point x="269" y="730"/>
      <point x="242" y="730"/>
      <point x="222" y="750"/>
      <point x="222" y="777"/>
      <point x="242" y="797"/>
      <point x="270" y="797"/>
      <point x="289" y="778"/>
    </contour>
  </outline>
</glyph>
<glyph name="Eogonek" format="1">
  <advance width="497"/>
  <unicode hex="0118"/>
  <outline>
    <contour>
      <point x="409" y="0" type="line"/>
      <point x="305" y="-87"/>
      <point x="305" y="-127" type="qcurve"/>
      <point x="305" y="-142"/>
      <point x="324" y="-166"/>
      <point x="366" y="-166"/>
      <point x="393" y="-147"/>
      <point x="407" y="-125" type="qcurve"/>
      <point x="444" y="-163" type="line"/>
      <point x="412" y="-213"/>
      <point x="347" y="-213" type="qcurve"/>
      <point x="330" y="-213"/>
      <point x="294" y="-204"/>
      <point x="255" y="-164"/>
      <point x="255" y="-131" type="qcurve"/>
      <point x="255" y="-63"/>
      <point x="351" y="0" type="qcurve"/>
      <point x="78" y="0" type="line"/>
      <point x="78" y="700" type="line"/>
      <point x="412" y="700" type="line"/>
      <point x="412" y="648" type="line"/>
      <point x="134" y="648" type="line"/>
      <point x="134" y="413" type="line"/>
      <point x="325" y="413" type="line"/>
      <point x="306" y="358" type="line"/>
      <point x="134" y="358" type="line"/>
      <point x="134" y="50" type="line"/>
      <point x="410" y="50" type="line"/>
      <point x="410" y="0" type="line"/>
    </contour>
  </outline>
</glyph>
<glyph name="eogonek" format="1">
  <advance width="434"/>
  <unicode hex="0119"/>
  <outline>
    <contour>
      <point x="202" y="37" type="qcurve"/>
      <point x="271" y="37"/>
      <point x="348" y="78" type="qcurve"/>
      <point x="370" y="35" type="line"/>
      <point x="322" y="5"/>
      <point x="265" y="-5" type="qcurve"/>
      <point x="168" y="-88"/>
      <point x="168" y="-127" type="qcurve"/>
      <point x="168" y="-142"/>
      <point x="187" y="-166"/>
      <point x="229" y="-166"/>
      <point x="256" y="-147"/>
      <point x="270" y="-125" type="qcurve"/>
      <point x="307" y="-163" type="line"/>
      <point x="275" y="-213"/>
      <point x="210" y="-213" type="qcurve"/>
      <point x="193" y="-213"/>
      <point x="157" y="-204"/>
      <point x="118" y="-164"/>
      <point x="118" y="-131" type="qcurve"/>
      <point x="118" y="-69"/>
      <point x="196" y="-12" type="qcurve"/>
      <point x="122" y="-12"/>
      <point x="35" y="61"/>
      <point x="35" y="134" type="qcurve"/>
      <point x="35" y="339" type="line"/>
      <point x="35" y="420"/>
      <point x="136" y="510"/>
      <point x="302" y="510"/>
      <point x="395" y="421"/>
      <point x="395" y="342" type="qcurve"/>
      <point x="395" y="212" type="line"/>
      <point x="91" y="195" type="line"/>
      <point x="91" y="134" type="line"/>
      <point x="91" y="80"/>
      <point x="130" y="56" type="qcurve"/>
      <point x="160" y="37"/>
    </contour>
    <contour>
      <point x="339" y="262" type="line"/>
      <point x="339" y="349" type="line"/>
      <point x="339" y="392"/>
      <point x="293" y="447"/>
      <point x="243" y="462"/>
      <point x="218" y="462" type="qcurve"/>
      <point x="163" y="462"/>
      <point x="91" y="402"/>
      <point x="91" y="338" type="qcurve"/>
      <point x="91" y="250" type="line"/>
    </contour>
  </outline>
</glyph>
<glyph name="Ecaron" format="1">
  <advance width="465"/>
  <unicode hex="011A"/>
  <outline>
    <contour>
      <point x="410" y="0" type="line"/>
      <point x="78" y="0" type="line"/>
      <point x="78" y="700" type="line"/>
      <point x="412" y="700" type="line"/>
      <point x="412" y="648" type="line"/>
      <point x="134" y="648" type="line"/>
      <point x="134" y="413" type="line"/>
      <point x="325" y="413" type="line"/>
      <point x="306" y="358" type="line"/>
      <point x="134" y="358" type="line"/>
      <point x="134" y="50" type="line"/>
      <point x="410" y="50" type="line"/>
    </contour>
    <contour>
      <point x="391" y="875" type="line"/>
      <point x="249" y="734" type="line"/>
      <point x="101" y="875" type="line"/>
      <point x="139" y="914" type="line"/>
      <point x="248" y="810" type="line"/>
      <point x="353" y="914" type="line"/>
    </contour>
  </outline>
</glyph>
<glyph name="Gcircumflex" format="1">
  <advance width="537"/>
  <unicode hex="011C"/>
  <outline>
    <contour>
      <point x="476" y="0" type="line"/>
      <point x="435" y="0" type="line"/>
      <point x="421" y="41" type="line"/>
      <point x="369" y="-10"/>
      <point x="188" y="-10"/>
      <point x="65" y="90"/>
      <point x="65" y="189" type="qcurve"/>
      <point x="65" y="503" type="line"/>
      <point x="65" y="631"/>
      <point x="152" y="684" type="qcurve"/>
      <point x="197" y="709"/>
      <point x="259" y="709" type="qcurve"/>
      <point x="336" y="709"/>
      <point x="401" y="676" type="qcurve"/>
      <point x="385" y="638" type="line"/>
      <point x="328" y="659"/>
      <point x="277" y="659" type="qcurve"/>
      <point x="121" y="659"/>
      <point x="121" y="512" type="qcurve"/>
      <point x="121" y="187" type="line"/>
      <point x="121" y="120"/>
      <point x="208" y="44"/>
      <point x="343" y="44"/>
      <point x="423" y="122"/>
      <point x="423" y="186" type="qcurve"/>
      <point x="423" y="245" type="line"/>
      <point x="357" y="245" type="line"/>
      <point x="338" y="300" type="line"/>
      <point x="476" y="300" type="line"/>
    </contour>
    <contour>
      <point x="388" y="733" type="line"/>
      <point x="283" y="837" type="line"/>
      <point x="174" y="733" type="line"/>
      <point x="136" y="772" type="line"/>
      <point x="284" y="913" type="line"/>
      <point x="426" y="772" type="line"/>
    </contour>
  </outline>
</glyph>
<glyph name="gcircumflex" format="1">
  <advance width="489"/>
  <unicode hex="011D"/>
  <outline>
    <contour>
      <point x="418" y="541" type="line"/>
      <point x="313" y="645" type="line"/>
      <point x="204" y="541" type="line"/>
      <point x="166" y="580" type="line"/>
      <point x="314" y="721" type="line"/>
      <point x="456" y="580" type="line"/>
    </contour>
    <contour>
      <point x="348" y="-210" type="qcurve"/>
      <point x="333" y="-167" type="line"/>
      <point x="399" y="-142"/>
      <point x="399" y="-63" type="qcurve"/>
      <point x="399" y="61" type="line"/>
      <point x="357" y="-12"/>
      <point x="176" y="-12"/>
      <point x="78" y="84"/>
      <point x="78" y="176" type="qcurve"/>
      <point x="78" y="325" type="line"/>
      <point x="78" y="413"/>
      <point x="181" y="510"/>
      <point x="361" y="510"/>
      <point x="403" y="443" type="qcurve"/>
      <point x="399" y="501" type="line"/>
      <point x="455" y="501" type="line"/>
      <point x="455" y="-64" type="line"/>
      <point x="455" y="-124"/>
      <point x="405" y="-192"/>
    </contour>
    <contour>
      <point x="399" y="173" type="qcurve"/>
      <point x="399" y="336" type="line"/>
      <point x="399" y="398"/>
      <point x="319" y="459"/>
      <point x="211" y="459"/>
      <point x="134" y="394"/>
      <point x="134" y="320" type="qcurve"/>
      <point x="134" y="167" type="line"/>
      <point x="134" y="104"/>
      <point x="205" y="40"/>
      <point x="320" y="40"/>
      <point x="399" y="109"/>
    </contour>
  </outline>
</glyph>
<glyph name="Gbreve" format="1">
  <advance width="537"/>
  <unicode hex="011E"/>
  <outline>
    <contour>
      <point x="476" y="0" type="line"/>
      <point x="435" y="0" type="line"/>
      <point x="421" y="41" type="line"/>
      <point x="369" y="-10"/>
      <point x="188" y="-10"/>
      <point x="65" y="90"/>
      <point x="65" y="189" type="qcurve"/>
      <point x="65" y="503" type="line"/>
      <point x="65" y="631"/>
      <point x="152" y="684" type="qcurve"/>
      <point x="197" y="709"/>
      <point x="259" y="709" type="qcurve"/>
      <point x="336" y="709"/>
      <point x="401" y="676" type="qcurve"/>
      <point x="385" y="638" type="line"/>
      <point x="328" y="659"/>
      <point x="277" y="659" type="qcurve"/>
      <point x="121" y="659"/>
      <point x="121" y="512" type="qcurve"/>
      <point x="121" y="187" type="line"/>
      <point x="121" y="120"/>
      <point x="208" y="44"/>
      <point x="343" y="44"/>
      <point x="423" y="122"/>
      <point x="423" y="186" type="qcurve"/>
      <point x="423" y="245" type="line"/>
      <point x="357" y="245" type="line"/>
      <point x="338" y="300" type="line"/>
      <point x="476" y="300" type="line"/>
    </contour>
    <contour>
      <point x="389" y="846" type="line"/>
      <point x="389" y="841" type="line"/>
      <point x="389" y="794"/>
      <point x="322" y="728"/>
      <point x="230" y="728"/>
      <point x="163" y="794"/>
      <point x="163" y="841" type="qcurve"/>
      <point x="163" y="846" type="line"/>
      <point x="208" y="846" type="line"/>
      <point x="208" y="841" type="line"/>
      <point x="208" y="812"/>
      <point x="248" y="773"/>
      <point x="304" y="773"/>
      <point x="344" y="812"/>
      <point x="344" y="841" type="qcurve"/>
      <point x="344" y="846" type="line"/>
    </contour>
  </outline>
</glyph>
<glyph name="gbreve" format="1">
  <advance width="488"/>
  <unicode hex="011F"/>
  <outline>
    <contour>
      <point x="395" y="650" type="line"/>
      <point x="395" y="645" type="line"/>
      <point x="395" y="598"/>
      <point x="328" y="532"/>
      <point x="236" y="532"/>
      <point x="169" y="598"/>
      <point x="169" y="645" type="qcurve"/>
      <point x="169" y="650" type="line"/>
      <point x="214" y="650" type="line"/>
      <point x="214" y="645" type="line"/>
      <point x="214" y="616"/>
      <point x="254" y="577"/>
      <point x="310" y="577"/>
      <point x="350" y="616"/>
      <point x="350" y="645" type="qcurve"/>
      <point x="350" y="650" type="line"/>
    </contour>
    <contour>
      <point x="348" y="-210" type="qcurve"/>
      <point x="333" y="-167" type="line"/>
      <point x="399" y="-142"/>
      <point x="399" y="-63" type="qcurve"/>
      <point x="399" y="61" type="line"/>
      <point x="357" y="-12"/>
      <point x="176" y="-12"/>
      <point x="78" y="84"/>
      <point x="78" y="176" type="qcurve"/>
      <point x="78" y="325" type="line"/>
      <point x="78" y="413"/>
      <point x="181" y="510"/>
      <point x="361" y="510"/>
      <point x="403" y="443" type="qcurve"/>
      <point x="399" y="501" type="line"/>
      <point x="455" y="501" type="line"/>
      <point x="455" y="-64" type="line"/>
      <point x="455" y="-124"/>
      <point x="405" y="-192"/>
    </contour>
    <contour>
      <point x="399" y="173" type="qcurve"/>
      <point x="399" y="336" type="line"/>
      <point x="399" y="398"/>
      <point x="319" y="459"/>
      <point x="211" y="459"/>
      <point x="134" y="394"/>
      <point x="134" y="320" type="qcurve"/>
      <point x="134" y="167" type="line"/>
      <point x="134" y="104"/>
      <point x="205" y="40"/>
      <point x="320" y="40"/>
      <point x="399" y="109"/>
    </contour>
  </outline>
</glyph>
<glyph name="gdotaccent" format="1">
  <advance width="488"/>
  <unicode hex="0121"/>
  <outline>
    <contour>
      <point x="313" y="570" type="qcurve"/>
      <point x="313" y="557"/>
      <point x="293" y="537"/>
      <point x="266" y="537"/>
      <point x="246" y="558"/>
      <point x="246" y="584"/>
      <point x="266" y="604"/>
      <point x="294" y="604"/>
      <point x="313" y="584"/>
    </contour>
    <contour>
      <point x="348" y="-210" type="qcurve"/>
      <point x="333" y="-167" type="line"/>
      <point x="399" y="-142"/>
      <point x="399" y="-63" type="qcurve"/>
      <point x="399" y="61" type="line"/>
      <point x="357" y="-12"/>
      <point x="176" y="-12"/>
      <point x="78" y="84"/>
      <point x="78" y="176" type="qcurve"/>
      <point x="78" y="325" type="line"/>
      <point x="78" y="413"/>
      <point x="181" y="510"/>
      <point x="361" y="510"/>
      <point x="403" y="443" type="qcurve"/>
      <point x="399" y="501" type="line"/>
      <point x="455" y="501" type="line"/>
      <point x="455" y="-64" type="line"/>
      <point x="455" y="-124"/>
      <point x="405" y="-192"/>
    </contour>
    <contour>
      <point x="399" y="173" type="qcurve"/>
      <point x="399" y="336" type="line"/>
      <point x="399" y="398"/>
      <point x="319" y="459"/>
      <point x="211" y="459"/>
      <point x="134" y="394"/>
      <point x="134" y="320" type="qcurve"/>
      <point x="134" y="167" type="line"/>
      <point x="134" y="104"/>
      <point x="205" y="40"/>
      <point x="320" y="40"/>
      <point x="399" y="109"/>
    </contour>
  </outline>
</glyph>
<glyph name="Gcommaaccent" format="1">
  <advance width="537"/>
  <unicode hex="0122"/>
  <outline>
    <contour>
      <point x="476" y="0" type="line"/>
      <point x="435" y="0" type="line"/>
      <point x="421" y="41" type="line"/>
      <point x="369" y="-10"/>
      <point x="188" y="-10"/>
      <point x="65" y="90"/>
      <point x="65" y="189" type="qcurve"/>
      <point x="65" y="503" type="line"/>
      <point x="65" y="631"/>
      <point x="152" y="684" type="qcurve"/>
      <point x="197" y="709"/>
      <point x="259" y="709" type="qcurve"/>
      <point x="336" y="709"/>
      <point x="401" y="676" type="qcurve"/>
      <point x="385" y="638" type="line"/>
      <point x="328" y="659"/>
      <point x="277" y="659" type="qcurve"/>
      <point x="121" y="659"/>
      <point x="121" y="512" type="qcurve"/>
      <point x="121" y="187" type="line"/>
      <point x="121" y="120"/>
      <point x="208" y="44"/>
      <point x="343" y="44"/>
      <point x="423" y="122"/>
      <point x="423" y="186" type="qcurve"/>
      <point x="423" y="245" type="line"/>
      <point x="357" y="245" type="line"/>
      <point x="338" y="300" type="line"/>
      <point x="476" y="300" type="line"/>
    </contour>
    <contour>
      <point x="241" y="-184" type="qcurve"/>
      <point x="201" y="-156" type="line"/>
      <point x="246" y="-130"/>
      <point x="259" y="-110" type="qcurve"/>
      <point x="264" y="-103" type="line"/>
      <point x="254" y="-100" type="line"/>
      <point x="236" y="-87"/>
      <point x="237" y="-51"/>
      <point x="256" y="-34"/>
      <point x="270" y="-34"/>
      <point x="284" y="-35"/>
      <point x="305" y="-58"/>
      <point x="305" y="-73" type="qcurve"/>
      <point x="305" y="-131"/>
    </contour>
  </outline>
</glyph>
<glyph name="Hcircumflex" format="1">
  <advance width="588"/>
  <unicode hex="0124"/>
  <outline>
    <contour>
      <point x="508" y="0" type="line"/>
      <point x="452" y="0" type="line"/>
      <point x="452" y="358" type="line"/>
      <point x="134" y="358" type="line"/>
      <point x="134" y="0" type="line"/>
      <point x="78" y="0" type="line"/>
      <point x="78" y="700" type="line"/>
      <point x="134" y="700" type="line"/>
      <point x="134" y="413" type="line"/>
      <point x="452" y="413" type="line"/>
      <point x="452" y="700" type="line"/>
      <point x="508" y="700" type="line"/>
    </contour>
    <contour>
      <point x="431" y="733" type="line"/>
      <point x="326" y="837" type="line"/>
      <point x="217" y="733" type="line"/>
      <point x="179" y="772" type="line"/>
      <point x="327" y="913" type="line"/>
      <point x="469" y="772" type="line"/>
    </contour>
  </outline>
</glyph>
<glyph name="hcircumflex" format="1">
  <advance width="610"/>
  <unicode hex="0125"/>
  <outline>
    <contour>
      <point x="316" y="733" type="line"/>
      <point x="211" y="837" type="line"/>
      <point x="102" y="733" type="line"/>
      <point x="64" y="772" type="line"/>
      <point x="212" y="913" type="line"/>
      <point x="354" y="772" type="line"/>
    </contour>
    <contour>
      <point x="237" y="474" type="line"/>
      <point x="287" y="510"/>
      <point x="372" y="510" type="qcurve"/>
      <point x="426" y="510"/>
      <point x="465" y="491" type="qcurve"/>
      <point x="550" y="452"/>
      <point x="550" y="346" type="qcurve"/>
      <point x="550" y="0" type="line"/>
      <point x="495" y="0" type="line"/>
      <point x="495" y="343" type="line"/>
      <point x="495" y="395"/>
      <point x="467" y="424" type="qcurve"/>
      <point x="433" y="459"/>
      <point x="298" y="459"/>
      <point x="237" y="425" type="qcurve"/>
      <point x="237" y="0" type="line"/>
      <point x="181" y="0" type="line"/>
      <point x="181" y="700" type="line"/>
      <point x="237" y="700" type="line"/>
    </contour>
  </outline>
</glyph>
<glyph name="Hbar" format="1">
  <advance width="685"/>
  <unicode hex="0126"/>
  <outline>
    <contour>
      <point x="557" y="0" type="line"/>
      <point x="501" y="0" type="line"/>
      <point x="501" y="358" type="line"/>
      <point x="183" y="358" type="line"/>
      <point x="183" y="0" type="line"/>
      <point x="127" y="0" type="line"/>
      <point x="127" y="483" type="line"/>
      <point x="78" y="483" type="line"/>
      <point x="78" y="538" type="line"/>
      <point x="127" y="538" type="line"/>
      <point x="127" y="700" type="line"/>
      <point x="183" y="700" type="line"/>
      <point x="183" y="538" type="line"/>
      <point x="501" y="538" type="line"/>
      <point x="501" y="700" type="line"/>
      <point x="557" y="700" type="line"/>
      <point x="557" y="538" type="line"/>
      <point x="605" y="538" type="line"/>
      <point x="605" y="483" type="line"/>
      <point x="557" y="483" type="line"/>
    </contour>
    <contour>
      <point x="501" y="413" type="line"/>
      <point x="501" y="483" type="line"/>
      <point x="183" y="483" type="line"/>
      <point x="183" y="413" type="line"/>
    </contour>
  </outline>
</glyph>
<glyph name="hbar" format="1">
  <advance width="542"/>
  <unicode hex="0127"/>
  <outline>
    <contour>
      <point x="196" y="474" type="line"/>
      <point x="246" y="510"/>
      <point x="331" y="510" type="qcurve"/>
      <point x="385" y="510"/>
      <point x="424" y="491" type="qcurve"/>
      <point x="509" y="452"/>
      <point x="509" y="346" type="qcurve"/>
      <point x="509" y="0" type="line"/>
      <point x="454" y="0" type="line"/>
      <point x="454" y="343" type="line"/>
      <point x="454" y="395"/>
      <point x="426" y="424" type="qcurve"/>
      <point x="392" y="459"/>
      <point x="257" y="459"/>
      <point x="196" y="425" type="qcurve"/>
      <point x="196" y="0" type="line"/>
      <point x="140" y="0" type="line"/>
      <point x="140" y="562" type="line"/>
      <point x="78" y="562" type="line"/>
      <point x="78" y="617" type="line"/>
      <point x="140" y="617" type="line"/>
      <point x="140" y="700" type="line"/>
      <point x="196" y="700" type="line"/>
      <point x="196" y="617" type="line"/>
      <point x="312" y="617" type="line"/>
      <point x="312" y="562" type="line"/>
      <point x="196" y="562" type="line"/>
    </contour>
  </outline>
</glyph>
